<?xml version="1.0" standalone="no"?>
<!DOCTYPE svg PUBLIC "-//W3C//DTD SVG 1.1//EN" "http://www.w3.org/Graphics/SVG/1.1/DTD/svg11.dtd" >
<svg xmlns="http://www.w3.org/2000/svg" xmlns:xlink="http://www.w3.org/1999/xlink" version="1.1">
<metadata>
Created by FontForge 20170731 at Sun May 13 06:32:25 2001
 By Aleksey,,,
Made by Svein Kare Gunnarson - www.dionaea.com
</metadata>
<defs>
<font id="DotMatrixBold" horiz-adv-x="600" >
  <font-face 
    font-family="Dot Matrix"
    font-weight="700"
    font-stretch="normal"
    units-per-em="1000"
    panose-1="0 0 7 0 0 0 0 0 0 0"
    ascent="800"
    descent="-200"
    x-height="495"
    cap-height="697"
    bbox="-102 -203 906 800"
    underline-thickness="20"
    underline-position="-163"
    unicode-range="U+0020-00F8"
  />
<missing-glyph horiz-adv-x="500" 
d="M63 0v800h375v-800h-375zM125 63h250v675h-250v-675z" />
    <glyph glyph-name=".notdef" horiz-adv-x="500" 
d="M63 0v800h375v-800h-375zM125 63h250v675h-250v-675z" />
    <glyph glyph-name=".null" horiz-adv-x="0" 
 />
    <glyph glyph-name="nonmarkingreturn" 
 />
    <glyph glyph-name="space" unicode=" " 
 />
    <glyph glyph-name="exclam" unicode="!" horiz-adv-x="300" 
d="M0 648q0 20 15 34.5t36 14.5t36 -14.5t15 -34.5t-15 -34.5t-36 -14.5t-36 14.5t-15 34.5zM0 550q0 20 15 34.5t36 14.5t36 -14.5t15 -34.5q0 -21 -15 -35.5t-36 -14.5t-36 14.5t-15 35.5zM0 450q0 20 14.5 35t35.5 15t35.5 -15t14.5 -35q0 -21 -14.5 -36t-35.5 -15
t-35.5 15t-14.5 36zM0 349q0 20 14.5 35t35.5 15t35.5 -15t14.5 -35q0 -21 -14.5 -36t-35.5 -15t-35.5 15t-14.5 36zM0 249q0 20 15 34.5t36 14.5t36 -14.5t15 -34.5q0 -21 -15 -35.5t-36 -14.5t-36 14.5t-15 35.5zM0 49q0 20 15 34t36 14t36 -14t15 -34q0 -21 -15 -35
t-36 -14t-36 14t-15 35zM100 648q0 20 15 34.5t36 14.5t36 -14.5t15 -34.5t-15 -34.5t-36 -14.5t-36 14.5t-15 34.5zM100 550q0 20 15 34.5t36 14.5t36 -14.5t15 -34.5q0 -21 -15 -35.5t-36 -14.5t-36 14.5t-15 35.5zM100 450q0 20 14.5 35t35.5 15t35.5 -15t14.5 -35
q0 -21 -14.5 -36t-35.5 -15t-35.5 15t-14.5 36zM100 349q0 20 14.5 35t35.5 15t35.5 -15t14.5 -35q0 -21 -14.5 -36t-35.5 -15t-35.5 15t-14.5 36zM100 249q0 20 15 34.5t36 14.5t36 -14.5t15 -34.5q0 -21 -15 -35.5t-36 -14.5t-36 14.5t-15 35.5zM100 49q0 20 15 34t36 14
t36 -14t15 -34q0 -21 -15 -35t-36 -14t-36 14t-15 35z" />
    <glyph glyph-name="quotedbl" unicode="&#x22;" 
d="M0 649q0 20 15 34t37 14q21 0 36 -14t15 -34t-15 -34t-36 -14q-22 0 -37 14t-15 34zM0 551q0 20 15 35t37 15q21 0 36 -15t15 -35q0 -21 -15 -36t-36 -15q-22 0 -37 15t-15 36zM99 648q0 20 15 34.5t37 14.5q21 0 36 -14.5t15 -34.5t-15 -34.5t-36 -14.5q-22 0 -37 14.5
t-15 34.5zM98 549q0 21 15 35.5t37 14.5t37 -14.5t15 -35.5t-15 -35.5t-37 -14.5t-37 14.5t-15 35.5zM300 649q0 20 15 34t37 14q21 0 36 -14t15 -34t-15 -34t-36 -14q-22 0 -37 14t-15 34zM300 551q0 20 15 35t37 15q21 0 36 -15t15 -35q0 -21 -15 -36t-36 -15
q-22 0 -37 15t-15 36zM399 648q0 20 15 34.5t37 14.5q21 0 36 -14.5t15 -34.5t-15 -34.5t-36 -14.5q-22 0 -37 14.5t-15 34.5zM398 549q0 21 15 35.5t37 14.5t37 -14.5t15 -35.5t-15 -35.5t-37 -14.5t-37 14.5t-15 35.5z" />
    <glyph glyph-name="numbersign" unicode="#" horiz-adv-x="800" 
d="M0 449q0 20 15 34.5t36 14.5t36 -14.5t15 -34.5q0 -21 -15 -35.5t-36 -14.5t-36 14.5t-15 35.5zM102 449q0 21 14.5 35.5t35.5 14.5t35.5 -14.5t14.5 -35.5t-14.5 -35.5t-35.5 -14.5t-35.5 14.5t-14.5 35.5zM202 451q0 20 14.5 34t35.5 14zM200 249q0 20 14.5 34t35.5 14
q20 0 34.5 -14t14.5 -34t-14.5 -34t-34.5 -14q-21 0 -35.5 14t-14.5 34zM100 250q0 20 14.5 34.5t35.5 14.5t35.5 -14.5t14.5 -34.5t-14.5 -34.5t-35.5 -14.5t-35.5 14.5t-14.5 34.5zM0 250q0 20 14.5 34.5t35.5 14.5t35.5 -14.5t14.5 -34.5t-14.5 -34.5t-35.5 -14.5
t-35.5 14.5t-14.5 34.5zM98 150q0 19 15 33t36 14t36 -14t15 -33q0 -20 -15 -34t-36 -14t-36 14t-15 34zM102 349q0 20 14.5 34t35.5 14q20 0 34.5 -14t14.5 -34q0 -21 -14.5 -35t-34.5 -14q-21 0 -35.5 14t-14.5 35zM103 551q0 20 14.5 34t34.5 14t34.5 -14t14.5 -34
q0 -19 -14.5 -33.5t-34.5 -14.5t-34.5 14.5t-14.5 33.5zM100 449q0 20 15 34.5t36 14.5t36 -14.5t15 -34.5q0 -21 -15 -35.5t-36 -14.5t-36 14.5t-15 35.5zM202 449q0 21 14.5 35.5t35.5 14.5t35.5 -14.5t14.5 -35.5t-14.5 -35.5t-35.5 -14.5t-35.5 14.5t-14.5 35.5z
M501 449q0 20 15 35t36 15q20 0 35 -15t15 -35q0 -21 -15 -36t-35 -15q-21 0 -36 15t-15 36zM398 249q0 20 15 34.5t37 14.5zM303 249q0 20 14.5 34t34.5 14q21 0 35.5 -14t14.5 -34t-14.5 -34t-35.5 -14q-20 0 -34.5 14t-14.5 34zM200 250q0 20 14.5 34.5t35.5 14.5
t35.5 -14.5t14.5 -34.5t-14.5 -34.5t-35.5 -14.5t-35.5 14.5t-14.5 34.5zM100 250q0 20 14.5 34.5t35.5 14.5t35.5 -14.5t14.5 -34.5t-14.5 -34.5t-35.5 -14.5t-35.5 14.5t-14.5 34.5zM198 150q0 19 15 33t36 14t36 -14t15 -33q0 -20 -15 -34t-36 -14t-36 14t-15 34z
M202 349q0 20 14.5 34t35.5 14q20 0 34.5 -14t14.5 -34q0 -21 -14.5 -35t-34.5 -14q-21 0 -35.5 14t-14.5 35zM203 551q0 20 14.5 34t34.5 14t34.5 -14t14.5 -34q0 -19 -14.5 -33.5t-34.5 -14.5t-34.5 14.5t-14.5 33.5zM300 449q0 20 15 34.5t36 14.5t36 -14.5t15 -34.5
q0 -21 -15 -35.5t-36 -14.5t-36 14.5t-15 35.5zM402 449q0 21 14.5 35.5t35.5 14.5t35.5 -14.5t14.5 -35.5t-14.5 -35.5t-35.5 -14.5t-35.5 14.5t-14.5 35.5zM398 150q0 19 15 33t36 14t36 -14t15 -33q0 -20 -15 -34t-36 -14t-36 14t-15 34zM402 350q0 20 14.5 34t35.5 14
q20 0 34.5 -14t14.5 -34q0 -21 -14.5 -35t-34.5 -14q-21 0 -35.5 14t-14.5 35zM403 551q0 20 14.5 34t34.5 14t34.5 -14t14.5 -34q0 -19 -14.5 -33.5t-34.5 -14.5t-34.5 14.5t-14.5 33.5zM502 449q0 21 14.5 35.5t35.5 14.5t35.5 -14.5t14.5 -35.5t-14.5 -35.5t-35.5 -14.5
t-35.5 14.5t-14.5 35.5zM602 451q0 20 14.5 34t35.5 14t35.5 -14t14.5 -34q0 -21 -14.5 -35t-35.5 -14t-35.5 14t-14.5 35zM603 249q0 19 14.5 33.5t35.5 14.5q20 0 34.5 -14.5t14.5 -33.5q0 -22 -14.5 -35t-34.5 -13q-21 0 -35.5 14t-14.5 34zM500 250q0 20 14.5 34.5
t35.5 14.5t35.5 -14.5t14.5 -34.5t-14.5 -34.5t-35.5 -14.5t-35.5 14.5t-14.5 34.5zM400 250q0 20 14.5 34.5t35.5 14.5t35.5 -14.5t14.5 -34.5t-14.5 -34.5t-35.5 -14.5t-35.5 14.5t-14.5 34.5zM498 150q0 19 15 33t36 14t36 -14t15 -33q0 -20 -15 -34t-36 -14t-36 14
t-15 34zM502 349q0 20 14.5 34t35.5 14q20 0 34.5 -14t14.5 -34q0 -21 -14.5 -35t-34.5 -14q-21 0 -35.5 14t-14.5 35zM503 551q0 20 14.5 34t34.5 14t34.5 -14t14.5 -34q0 -19 -14.5 -33.5t-34.5 -14.5t-34.5 14.5t-14.5 33.5z" />
    <glyph glyph-name="dollar" unicode="$" 
d="M202 652q0 20 15 34t36 14q22 0 37 -14t15 -34q0 -19 -15 -33t-37 -14q-21 0 -36 14t-15 33zM302 551q0 21 14.5 36t35.5 15q20 0 34.5 -15t14.5 -36q0 -22 -14.5 -37t-34.5 -15q-21 0 -35.5 15t-14.5 37zM200 550q0 20 14 34.5t35 14.5q20 0 34 -14.5t14 -34.5
q0 -21 -14 -35.5t-34 -14.5q-21 0 -35 14.5t-14 35.5zM99 549q0 20 15 35t36 15q20 0 35 -15t15 -35q0 -21 -15 -36t-35 -15q-21 0 -36 15t-15 36zM0 450q0 20 14.5 34t35.5 14q20 0 34.5 -14t14.5 -34q0 -21 -14.5 -35t-34.5 -14q-21 0 -35.5 14t-14.5 35zM96 349
q0 20 15.5 34.5t37.5 14.5q21 0 36.5 -14.5t15.5 -34.5t-15.5 -34.5t-36.5 -14.5q-22 0 -37.5 14.5t-15.5 34.5zM201 350q0 20 15 34.5t37 14.5q21 0 36 -14.5t15 -34.5q0 -21 -15 -35.5t-36 -14.5q-22 0 -37 14.5t-15 35.5zM302 250q0 20 14.5 35t35.5 15q20 0 34.5 -15
t14.5 -35q0 -21 -14.5 -36t-34.5 -15q-21 0 -35.5 15t-14.5 36zM200 149q0 18 14.5 31.5t35.5 13.5t35.5 -13.5t14.5 -31.5q0 -19 -14.5 -32.5t-35.5 -13.5t-35.5 13.5t-14.5 32.5zM99 150q0 19 15 33t36 14q20 0 35 -14t15 -33t-15 -33t-35 -14q-21 0 -36 14t-15 33zM0 149
q0 20 14.5 34t35.5 14q20 0 34.5 -14t14.5 -34q0 -21 -14.5 -35t-34.5 -14q-21 0 -35.5 14t-14.5 35zM98 50q0 20 15.5 34.5t37.5 14.5q21 0 36.5 -14.5t15.5 -34.5q0 -21 -15.5 -35.5t-36.5 -14.5q-22 0 -37.5 14.5t-15.5 35.5zM302 652q0 20 15 34t36 14q22 0 37 -14
t15 -34q0 -19 -15 -33t-37 -14q-21 0 -36 14t-15 33zM202 52q0 20 15 34t36 14q22 0 37 -14t15 -34q0 -19 -15 -33t-37 -14q-21 0 -36 14t-15 33zM102 452q0 20 15 34t36 14q22 0 37 -14t15 -34q0 -19 -15 -33t-37 -14q-21 0 -36 14t-15 33zM402 252q0 20 15 34t36 14
q22 0 37 -14t15 -34q0 -19 -15 -33t-37 -14q-21 0 -36 14t-15 33zM402 552q0 20 15 34t36 14q22 0 37 -14t15 -34q0 -19 -15 -33t-37 -14q-21 0 -36 14t-15 33zM302 152q0 20 15 34t36 14q22 0 37 -14t15 -34q0 -19 -15 -33t-37 -14q-21 0 -36 14t-15 33zM302 352
q0 20 15 34t36 14q22 0 37 -14t15 -34q0 -19 -15 -33t-37 -14q-21 0 -36 14t-15 33z" />
    <glyph glyph-name="percent" unicode="%" horiz-adv-x="700" 
d="M0 649q0 20 15 34t36 14t36 -14t15 -34t-15 -34t-36 -14t-36 14t-15 34zM102 550q0 21 14.5 36t34.5 15t34.5 -15t14.5 -36q0 -22 -14.5 -37t-34.5 -15t-34.5 15t-14.5 37zM104 648q0 20 14.5 34.5t34.5 14.5t34.5 -14.5t14.5 -34.5t-14.5 -34.5t-34.5 -14.5t-34.5 14.5
t-14.5 34.5zM0 547q0 21 15 35.5t36 14.5q20 0 35 -14.5t15 -35.5t-15 -35.5t-35 -14.5q-21 0 -36 14.5t-15 35.5zM400 649q0 20 15 34t36 14t36 -14t15 -34t-15 -34t-36 -14t-36 14t-15 34zM398 551q0 21 15 35.5t37 14.5t37 -14.5t15 -35.5t-15 -35.5t-37 -14.5t-37 14.5
t-15 35.5zM301 450q0 21 14 36t35 15q20 0 34 -15t14 -36q0 -22 -14 -37t-34 -15q-21 0 -35 15t-14 37zM200 349q0 20 15 34.5t36 14.5q20 0 35 -14.5t15 -34.5t-15 -34.5t-35 -14.5q-21 0 -36 14.5t-15 34.5zM99 251q0 20 15 34.5t36 14.5q20 0 35 -14.5t15 -34.5
q0 -21 -15 -35.5t-35 -14.5q-21 0 -36 14.5t-15 35.5zM0 152q0 20 14.5 35t35.5 15t35.5 -15t14.5 -35q0 -21 -14.5 -36t-35.5 -15t-35.5 15t-14.5 36zM0 49q0 20 15 34.5t37 14.5t37 -14.5t15 -34.5t-15 -34.5t-37 -14.5t-37 14.5t-15 34.5zM397 49q0 20 15.5 34t37.5 14
q21 0 36.5 -14t15.5 -34q0 -21 -15.5 -35t-36.5 -14q-22 0 -37.5 14t-15.5 35zM502 148q0 21 14.5 36t35.5 15q20 0 34.5 -15t14.5 -36t-14.5 -36t-34.5 -15q-21 0 -35.5 15t-14.5 36zM501 49q0 20 14.5 34t34.5 14t34.5 -14t14.5 -34q0 -21 -14.5 -35t-34.5 -14t-34.5 14
t-14.5 35zM398 147q0 21 15 35.5t37 14.5q21 0 36 -14.5t15 -35.5t-15 -35.5t-36 -14.5q-22 0 -37 14.5t-15 35.5zM100 152q0 20 14.5 35t35.5 15t35.5 -15t14.5 -35q0 -21 -14.5 -36t-35.5 -15t-35.5 15t-14.5 36zM100 49q0 20 15 34.5t37 14.5t37 -14.5t15 -34.5
t-15 -34.5t-37 -14.5t-37 14.5t-15 34.5zM500 652q0 20 14.5 35t35.5 15t35.5 -15t14.5 -35q0 -21 -14.5 -36t-35.5 -15t-35.5 15t-14.5 36zM500 549q0 20 15 34.5t37 14.5t37 -14.5t15 -34.5t-15 -34.5t-37 -14.5t-37 14.5t-15 34.5zM401 450q0 21 14 36t35 15q20 0 34 -15
t14 -36q0 -22 -14 -37t-34 -15q-21 0 -35 15t-14 37zM301 350q0 21 14 36t35 15q20 0 34 -15t14 -36q0 -22 -14 -37t-34 -15q-21 0 -35 15t-14 37zM201 250q0 21 14 36t35 15q20 0 34 -15t14 -36q0 -22 -14 -37t-34 -15q-21 0 -35 15t-14 37z" />
    <glyph glyph-name="ampersand" unicode="&#x26;" horiz-adv-x="700" 
d="M199 649q0 20 15 34t36 14t36 -14t15 -34q0 -21 -15 -35t-36 -14t-36 14t-15 35zM301 550q0 21 14.5 35.5t35.5 14.5t35.5 -14.5t14.5 -35.5t-14.5 -35.5t-35.5 -14.5t-35.5 14.5t-14.5 35.5zM298 450q0 20 15 35t37 15q21 0 36 -15t15 -35q0 -21 -15 -36t-36 -15
q-22 0 -37 15t-15 36zM199 349q0 21 14.5 35.5t35.5 14.5q20 0 34.5 -14.5t14.5 -35.5t-14.5 -35.5t-34.5 -14.5q-21 0 -35.5 14.5t-14.5 35.5zM100 250q0 20 14.5 34.5t35.5 14.5q20 0 34.5 -14.5t14.5 -34.5t-14.5 -34.5t-34.5 -14.5q-21 0 -35.5 14.5t-14.5 34.5z
M100 150q0 21 15 36t37 15q21 0 36 -15t15 -36t-15 -36t-36 -15q-22 0 -37 15t-15 36zM100 448q0 20 15 34.5t36 14.5q20 0 35 -14.5t15 -34.5t-15 -34.5t-35 -14.5q-21 0 -36 14.5t-15 34.5zM100 549q0 21 15 35.5t36 14.5q20 0 35 -14.5t15 -35.5q0 -20 -15 -35t-35 -15
q-21 0 -36 15t-15 35zM403 150q0 20 14.5 35t35.5 15q20 0 34.5 -15t14.5 -35q0 -21 -14.5 -36t-34.5 -15q-21 0 -35.5 15t-14.5 36zM402 50q0 20 15 34.5t36 14.5q20 0 35 -14.5t15 -34.5q0 -21 -15 -35.5t-35 -14.5q-21 0 -36 14.5t-15 35.5zM399 248q0 19 15 33t37 14
q21 0 36 -14t15 -33q0 -20 -15 -34t-36 -14q-22 0 -37 14t-15 34zM200 49q0 20 14.5 34t35.5 14q20 0 34.5 -14t14.5 -34q0 -21 -14.5 -35t-34.5 -14q-21 0 -35.5 14t-14.5 35zM0 448q0 20 15 34.5t36 14.5q20 0 35 -14.5t15 -34.5t-15 -34.5t-35 -14.5q-21 0 -36 14.5
t-15 34.5zM0 549q0 21 15 35.5t36 14.5q20 0 35 -14.5t15 -35.5q0 -20 -15 -35t-35 -15q-21 0 -36 15t-15 35zM0 148q0 20 15 34.5t36 14.5q20 0 35 -14.5t15 -34.5t-15 -34.5t-35 -14.5q-21 0 -36 14.5t-15 34.5zM0 249q0 21 15 35.5t36 14.5q20 0 35 -14.5t15 -35.5
q0 -20 -15 -35t-35 -15q-21 0 -36 15t-15 35zM400 448q0 20 15 34.5t36 14.5q20 0 35 -14.5t15 -34.5t-15 -34.5t-35 -14.5q-21 0 -36 14.5t-15 34.5zM400 549q0 21 15 35.5t36 14.5q20 0 35 -14.5t15 -35.5q0 -20 -15 -35t-35 -15q-21 0 -36 15t-15 35zM299 249q0 20 15 34
t36 14t36 -14t15 -34q0 -21 -15 -35t-36 -14t-36 14t-15 35zM299 149q0 20 15 34t36 14t36 -14t15 -34q0 -21 -15 -35t-36 -14t-36 14t-15 35zM499 248q0 19 15 33t37 14q21 0 36 -14t15 -33q0 -20 -15 -34t-36 -14q-22 0 -37 14t-15 34zM499 48q0 19 15 33t37 14
q21 0 36 -14t15 -33q0 -20 -15 -34t-36 -14q-22 0 -37 14t-15 34zM99 649q0 20 15 34t36 14t36 -14t15 -34q0 -21 -15 -35t-36 -14t-36 14t-15 35zM299 649q0 20 15 34t36 14t36 -14t15 -34q0 -21 -15 -35t-36 -14t-36 14t-15 35zM99 349q0 20 15 34t36 14t36 -14t15 -34
q0 -21 -15 -35t-36 -14t-36 14t-15 35zM299 349q0 20 15 34t36 14t36 -14t15 -34q0 -21 -15 -35t-36 -14t-36 14t-15 35zM99 49q0 20 15 34t36 14t36 -14t15 -34q0 -21 -15 -35t-36 -14t-36 14t-15 35z" />
    <glyph glyph-name="quotesingle" unicode="'" horiz-adv-x="300" 
d="M0 752q0 20 14 34t35 14q20 0 34 -14t14 -34t-14 -34t-34 -14q-21 0 -35 14t-14 34zM0 654q0 20 14 35t35 15q20 0 34 -15t14 -35q0 -21 -14 -36t-34 -15q-21 0 -35 15t-14 36zM100 752q0 20 14 34t35 14q20 0 34 -14t14 -34t-14 -34t-34 -14q-21 0 -35 14t-14 34z
M100 654q0 20 14 35t35 15q20 0 34 -15t14 -35q0 -21 -14 -36t-34 -15q-21 0 -35 15t-14 36z" />
    <glyph glyph-name="parenleft" unicode="(" horiz-adv-x="500" 
d="M200 649q0 20 14.5 34t35.5 14q20 0 34.5 -14t14.5 -34q0 -21 -14.5 -35t-34.5 -14q-21 0 -35.5 14t-14.5 35zM98 550q0 20 15 35t36 15t36 -15t15 -35q0 -21 -15 -36t-36 -15t-36 15t-15 36zM0 450q0 20 14.5 34.5t34.5 14.5t34.5 -14.5t14.5 -34.5q0 -21 -14.5 -35.5
t-34.5 -14.5t-34.5 14.5t-14.5 35.5zM0 349q0 21 15 36t37 15q21 0 36 -15t15 -36t-15 -36t-36 -15q-22 0 -37 15t-15 36zM0 248q0 21 15 35.5t37 14.5q21 0 36 -14.5t15 -35.5t-15 -35.5t-36 -14.5q-22 0 -37 14.5t-15 35.5zM98 150q0 20 15.5 34.5t37.5 14.5
q21 0 36.5 -14.5t15.5 -34.5q0 -21 -15.5 -35.5t-36.5 -14.5q-22 0 -37.5 14.5t-15.5 35.5zM203 50q0 21 14.5 35.5t35.5 14.5q20 0 34.5 -14.5t14.5 -35.5t-14.5 -35.5t-34.5 -14.5q-21 0 -35.5 14.5t-14.5 35.5zM300 649q0 20 14.5 34t35.5 14q20 0 34.5 -14t14.5 -34
q0 -21 -14.5 -35t-34.5 -14q-21 0 -35.5 14t-14.5 35zM198 550q0 20 15 35t36 15t36 -15t15 -35q0 -21 -15 -36t-36 -15t-36 15t-15 36zM100 450q0 20 14.5 34.5t34.5 14.5t34.5 -14.5t14.5 -34.5q0 -21 -14.5 -35.5t-34.5 -14.5t-34.5 14.5t-14.5 35.5zM100 349q0 21 15 36
t37 15q21 0 36 -15t15 -36t-15 -36t-36 -15q-22 0 -37 15t-15 36zM100 248q0 21 15 35.5t37 14.5q21 0 36 -14.5t15 -35.5t-15 -35.5t-36 -14.5q-22 0 -37 14.5t-15 35.5zM198 150q0 20 15.5 34.5t37.5 14.5q21 0 36.5 -14.5t15.5 -34.5q0 -21 -15.5 -35.5t-36.5 -14.5
q-22 0 -37.5 14.5t-15.5 35.5zM303 50q0 21 14.5 35.5t35.5 14.5q20 0 34.5 -14.5t14.5 -35.5t-14.5 -35.5t-34.5 -14.5q-21 0 -35.5 14.5t-14.5 35.5z" />
    <glyph glyph-name="parenright" unicode=")" horiz-adv-x="500" 
d="M0 649q0 20 15 34t36 14q20 0 35 -14t15 -34q0 -21 -15 -35t-35 -14q-21 0 -36 14t-15 35zM101 551q0 20 14.5 34.5t35.5 14.5t35.5 -14.5t14.5 -34.5t-14.5 -34.5t-35.5 -14.5t-35.5 14.5t-14.5 34.5zM200 451q0 21 15 36t37 15q21 0 36 -15t15 -36q0 -22 -15 -37
t-36 -15q-22 0 -37 15t-15 37zM198 349q0 21 15.5 35.5t37.5 14.5q21 0 36.5 -14.5t15.5 -35.5t-15.5 -35.5t-36.5 -14.5q-22 0 -37.5 14.5t-15.5 35.5zM198 249q0 20 15.5 35t37.5 15q21 0 36.5 -15t15.5 -35q0 -21 -15.5 -36t-36.5 -15q-22 0 -37.5 15t-15.5 36zM99 150
q0 21 15 35.5t37 14.5q21 0 36 -14.5t15 -35.5t-15 -35.5t-36 -14.5q-22 0 -37 14.5t-15 35.5zM0 50q0 21 14.5 35.5t35.5 14.5q20 0 34.5 -14.5t14.5 -35.5t-14.5 -35.5t-34.5 -14.5q-21 0 -35.5 14.5t-14.5 35.5zM100 649q0 20 15 34t36 14q20 0 35 -14t15 -34
q0 -21 -15 -35t-35 -14q-21 0 -36 14t-15 35zM201 551q0 20 14.5 34.5t35.5 14.5t35.5 -14.5t14.5 -34.5t-14.5 -34.5t-35.5 -14.5t-35.5 14.5t-14.5 34.5zM300 451q0 21 15 36t37 15q21 0 36 -15t15 -36q0 -22 -15 -37t-36 -15q-22 0 -37 15t-15 37zM298 349
q0 21 15.5 35.5t37.5 14.5q21 0 36.5 -14.5t15.5 -35.5t-15.5 -35.5t-36.5 -14.5q-22 0 -37.5 14.5t-15.5 35.5zM298 249q0 20 15.5 35t37.5 15q21 0 36.5 -15t15.5 -35q0 -21 -15.5 -36t-36.5 -15q-22 0 -37.5 15t-15.5 36zM199 150q0 21 15 35.5t37 14.5q21 0 36 -14.5
t15 -35.5t-15 -35.5t-36 -14.5q-22 0 -37 14.5t-15 35.5zM100 50q0 21 14.5 35.5t35.5 14.5q20 0 34.5 -14.5t14.5 -35.5t-14.5 -35.5t-34.5 -14.5q-21 0 -35.5 14.5t-14.5 35.5z" />
    <glyph glyph-name="asterisk" unicode="*" horiz-adv-x="700" 
d="M0 347q0 19 15 32.5t36 13.5t36 -13.5t15 -32.5q0 -20 -15 -33.5t-36 -13.5t-36 13.5t-15 33.5zM102 348q0 20 14.5 34t35.5 14t35.5 -14t14.5 -34t-14.5 -34t-35.5 -14t-35.5 14t-14.5 34zM202 348q0 20 14.5 34t34.5 14t34.5 -14t14.5 -34t-14.5 -34t-34.5 -14
t-34.5 14t-14.5 34zM300 349q0 20 15 34t36 14t36 -14t15 -34q0 -21 -15 -35t-36 -14t-36 14t-15 35zM402 349q0 20 14.5 34t35.5 14t35.5 -14t14.5 -34t-14.5 -34t-35.5 -14t-35.5 14t-14.5 34zM297 248q0 20 15.5 34t37.5 14t37.5 -14t15.5 -34q0 -21 -15.5 -35t-37.5 -14
t-37.5 14t-15.5 35zM403 149q0 21 14.5 35.5t34.5 14.5t34.5 -14.5t14.5 -35.5t-14.5 -35.5t-34.5 -14.5t-34.5 14.5t-14.5 35.5zM98 250q0 20 15 34.5t37 14.5t37 -14.5t15 -34.5q0 -21 -15 -35.5t-37 -14.5t-37 14.5t-15 35.5zM0 151q0 20 14.5 34.5t34.5 14.5t34.5 -14.5
t14.5 -34.5t-14.5 -34.5t-34.5 -14.5t-34.5 14.5t-14.5 34.5zM202 448q0 21 15 36.5t36 15.5q20 0 35 -15.5t15 -36.5q0 -22 -15 -37.5t-35 -15.5q-21 0 -36 15.5t-15 37.5zM198 549q0 20 15.5 34t37.5 14q21 0 36.5 -14t15.5 -34q0 -21 -15.5 -35t-36.5 -14q-22 0 -37.5 14
t-15.5 35zM503 149q0 21 14.5 35.5t34.5 14.5t34.5 -14.5t14.5 -35.5t-14.5 -35.5t-34.5 -14.5t-34.5 14.5t-14.5 35.5zM403 249q0 21 14.5 35.5t34.5 14.5t34.5 -14.5t14.5 -35.5t-14.5 -35.5t-34.5 -14.5t-34.5 14.5t-14.5 35.5zM103 149q0 21 14.5 35.5t34.5 14.5
t34.5 -14.5t14.5 -35.5t-14.5 -35.5t-34.5 -14.5t-34.5 14.5t-14.5 35.5zM203 249q0 21 14.5 35.5t34.5 14.5t34.5 -14.5t14.5 -35.5t-14.5 -35.5t-34.5 -14.5t-34.5 14.5t-14.5 35.5zM303 449q0 21 14.5 35.5t34.5 14.5t34.5 -14.5t14.5 -35.5t-14.5 -35.5t-34.5 -14.5
t-34.5 14.5t-14.5 35.5zM503 349q0 21 14.5 35.5t34.5 14.5t34.5 -14.5t14.5 -35.5t-14.5 -35.5t-34.5 -14.5t-34.5 14.5t-14.5 35.5zM303 549q0 21 14.5 35.5t34.5 14.5t34.5 -14.5t14.5 -35.5t-14.5 -35.5t-34.5 -14.5t-34.5 14.5t-14.5 35.5z" />
    <glyph glyph-name="plus" unicode="+" horiz-adv-x="700" 
d="M196 546q0 19 15 32.5t37 13.5t37 -13.5t15 -32.5q0 -20 -15 -33.5t-37 -13.5t-37 13.5t-15 33.5zM197 450q0 20 15 34.5t37 14.5q21 0 36 -14.5t15 -34.5t-15 -34.5t-36 -14.5q-22 0 -37 14.5t-15 34.5zM197 350q0 21 15 36t37 15q21 0 36 -15t15 -36t-15 -36t-36 -15
q-22 0 -37 15t-15 36zM300 350q0 21 14.5 36t35.5 15t35.5 -15t14.5 -36t-14.5 -36t-35.5 -15t-35.5 15t-14.5 36zM400 351q0 20 15 35t36 15t36 -15t15 -35q0 -21 -15 -36t-36 -15t-36 15t-15 36zM202 247q0 19 14.5 33t35.5 14q20 0 34.5 -14t14.5 -33t-14.5 -33
t-34.5 -14q-21 0 -35.5 14t-14.5 33zM201 150q0 21 14.5 35.5t35.5 14.5t35.5 -14.5t14.5 -35.5t-14.5 -35.5t-35.5 -14.5t-35.5 14.5t-14.5 35.5zM97 350q0 20 14 34t35 14q20 0 34 -14t14 -34q0 -21 -14 -35t-34 -14q-21 0 -35 14t-14 35zM0 350q0 20 14 34.5t35 14.5
q20 0 34 -14.5t14 -34.5t-14 -34.5t-34 -14.5q-21 0 -35 14.5t-14 34.5zM296 546q0 19 15 32.5t37 13.5t37 -13.5t15 -32.5q0 -20 -15 -33.5t-37 -13.5t-37 13.5t-15 33.5zM296 446q0 19 15 32.5t37 13.5t37 -13.5t15 -32.5q0 -20 -15 -33.5t-37 -13.5t-37 13.5t-15 33.5z
M296 246q0 19 15 32.5t37 13.5t37 -13.5t15 -32.5q0 -20 -15 -33.5t-37 -13.5t-37 13.5t-15 33.5zM296 146q0 19 15 32.5t37 13.5t37 -13.5t15 -32.5q0 -20 -15 -33.5t-37 -13.5t-37 13.5t-15 33.5zM496 346q0 19 15 32.5t37 13.5t37 -13.5t15 -32.5q0 -20 -15 -33.5
t-37 -13.5t-37 13.5t-15 33.5z" />
    <glyph glyph-name="comma" unicode="," horiz-adv-x="300" 
d="M0 49q0 20 15 34t37 14q21 0 36 -14t15 -34q0 -21 -15 -35t-36 -14q-22 0 -37 14t-15 35zM103 148q0 20 14.5 35t35.5 15t35.5 -15t14.5 -35q0 -21 -14.5 -36t-35.5 -15t-35.5 15t-14.5 36zM101 47q0 19 15 33t37 14q21 0 36 -14t15 -33q0 -20 -15 -33.5t-36 -13.5
q-22 0 -37 13.5t-15 33.5zM0 148q0 20 15 35t36 15q20 0 35 -15t15 -35q0 -21 -15 -36t-35 -15q-21 0 -36 15t-15 36zM97 -50q0 21 15.5 35.5t38.5 14.5q22 0 37.5 -14.5t15.5 -35.5t-15.5 -35.5t-37.5 -14.5q-23 0 -38.5 14.5t-15.5 35.5zM0 -150q0 20 15 34t37 14
q21 0 36 -14t15 -34t-15 -34t-36 -14q-22 0 -37 14t-15 34z" />
    <glyph glyph-name="hyphen" unicode="-" 
d="M0 348q0 20 15 34t36 14t36 -14t15 -34t-15 -34t-36 -14t-36 14t-15 34zM102 350q0 21 14.5 35.5t35.5 14.5t35.5 -14.5t14.5 -35.5t-14.5 -35.5t-35.5 -14.5t-35.5 14.5t-14.5 35.5zM202 350q0 20 14.5 35t35.5 15t35.5 -15t14.5 -35q0 -21 -14.5 -36t-35.5 -15
t-35.5 15t-14.5 36zM302 348q0 20 15 34t36 14t36 -14t15 -34q0 -21 -15 -35t-36 -14t-36 14t-15 35zM402 348q0 20 15 34t36 14t36 -14t15 -34q0 -21 -15 -35t-36 -14t-36 14t-15 35z" />
    <glyph glyph-name="hyphen" unicode="&#x2010;" 
d="M0 348q0 20 15 34t36 14t36 -14t15 -34t-15 -34t-36 -14t-36 14t-15 34zM102 350q0 21 14.5 35.5t35.5 14.5t35.5 -14.5t14.5 -35.5t-14.5 -35.5t-35.5 -14.5t-35.5 14.5t-14.5 35.5zM202 350q0 20 14.5 35t35.5 15t35.5 -15t14.5 -35q0 -21 -14.5 -36t-35.5 -15
t-35.5 15t-14.5 36zM302 348q0 20 15 34t36 14t36 -14t15 -34q0 -21 -15 -35t-36 -14t-36 14t-15 35zM402 348q0 20 15 34t36 14t36 -14t15 -34q0 -21 -15 -35t-36 -14t-36 14t-15 35z" />
    <glyph glyph-name="period" unicode="." horiz-adv-x="300" 
d="M0 48q0 20 15 34t36 14t36 -14t15 -34t-15 -34t-36 -14t-36 14t-15 34zM104 46q0 20 14.5 34t35.5 14q20 0 35 -14t15 -34q0 -19 -15 -33.5t-35 -14.5q-21 0 -35.5 14.5t-14.5 33.5zM0 149q0 20 15 34.5t37 14.5q21 0 36 -14.5t15 -34.5q0 -21 -15 -35.5t-36 -14.5
q-22 0 -37 14.5t-15 35.5zM104 146q0 20 14.5 34t35.5 14q20 0 35 -14t15 -34q0 -19 -15 -33.5t-35 -14.5q-21 0 -35.5 14.5t-14.5 33.5z" />
    <glyph glyph-name="slash" unicode="/" horiz-adv-x="700" 
d="M0 48q0 20 15 34t37 14q21 0 36 -14t15 -34t-15 -34t-36 -14q-22 0 -37 14t-15 34zM0 147q0 21 15 36t37 15q21 0 36 -15t15 -36t-15 -36t-36 -15q-22 0 -37 15t-15 36zM98 248q0 20 15 35t37 15t37 -15t15 -35q0 -21 -15 -36t-37 -15t-37 15t-15 36zM202 349q0 20 15 35
t36 15q20 0 35 -15t15 -35q0 -21 -15 -36t-35 -15q-21 0 -36 15t-15 36zM303 449q0 20 14.5 34.5t35.5 14.5t35.5 -14.5t14.5 -34.5q0 -21 -14.5 -35.5t-35.5 -14.5t-35.5 14.5t-14.5 35.5zM403 549q0 20 14.5 35t35.5 15t35.5 -15t14.5 -35q0 -21 -14.5 -36t-35.5 -15
t-35.5 15t-14.5 36zM399 648q0 20 15 34.5t37 14.5t37 -14.5t15 -34.5t-15 -34.5t-37 -14.5t-37 14.5t-15 34.5zM100 48q0 20 15 34t37 14q21 0 36 -14t15 -34t-15 -34t-36 -14q-22 0 -37 14t-15 34zM100 147q0 21 15 36t37 15q21 0 36 -15t15 -36t-15 -36t-36 -15
q-22 0 -37 15t-15 36zM198 248q0 20 15 35t37 15t37 -15t15 -35q0 -21 -15 -36t-37 -15t-37 15t-15 36zM302 349q0 20 15 35t36 15q20 0 35 -15t15 -35q0 -21 -15 -36t-35 -15q-21 0 -36 15t-15 36zM403 449q0 20 14.5 34.5t35.5 14.5t35.5 -14.5t14.5 -34.5
q0 -21 -14.5 -35.5t-35.5 -14.5t-35.5 14.5t-14.5 35.5zM503 549q0 20 14.5 35t35.5 15t35.5 -15t14.5 -35q0 -21 -14.5 -36t-35.5 -15t-35.5 15t-14.5 36zM499 648q0 20 15 34.5t37 14.5t37 -14.5t15 -34.5t-15 -34.5t-37 -14.5t-37 14.5t-15 34.5z" />
    <glyph glyph-name="zero" unicode="0" 
d="M198 650q0 19 15.5 33t38.5 14q22 0 37.5 -14t15.5 -33q0 -20 -15.5 -34t-37.5 -14q-23 0 -38.5 14t-15.5 34zM300 550q0 21 15 36.5t36 15.5t36 -15.5t15 -36.5q0 -22 -15 -37t-36 -15t-36 15t-15 37zM299 448q0 20 15 34.5t37 14.5q21 0 36 -14.5t15 -34.5t-15 -34.5
t-36 -14.5q-22 0 -37 14.5t-15 34.5zM299 351q0 20 15 34t37 14q21 0 36 -14t15 -34q0 -21 -15 -35t-36 -14q-22 0 -37 14t-15 35zM298 250q0 20 15 35t37 15t37 -15t15 -35q0 -21 -15 -36t-37 -15t-37 15t-15 36zM298 149q0 21 15.5 35.5t37.5 14.5q21 0 36.5 -14.5
t15.5 -35.5t-15.5 -35.5t-36.5 -14.5q-22 0 -37.5 14.5t-15.5 35.5zM198 50q0 20 15 34.5t37 14.5t37 -14.5t15 -34.5q0 -21 -15 -35.5t-37 -14.5t-37 14.5t-15 35.5zM100 149q0 21 14.5 35.5t34.5 14.5t34.5 -14.5t14.5 -35.5t-14.5 -35.5t-34.5 -14.5t-34.5 14.5
t-14.5 35.5zM100 250q0 20 15 35t37 15q21 0 36 -15t15 -35q0 -21 -15 -36t-36 -15q-22 0 -37 15t-15 36zM100 350q0 20 15 34.5t37 14.5q21 0 36 -14.5t15 -34.5q0 -21 -15 -35.5t-36 -14.5q-22 0 -37 14.5t-15 35.5zM100 450q0 20 15 35t37 15q21 0 36 -15t15 -35
q0 -21 -15 -36t-36 -15q-22 0 -37 15t-15 36zM100 549q0 20 15 34t37 14q21 0 36 -14t15 -34q0 -21 -15 -35t-36 -14q-22 0 -37 14t-15 35zM0 149q0 21 14.5 35.5t34.5 14.5t34.5 -14.5t14.5 -35.5t-14.5 -35.5t-34.5 -14.5t-34.5 14.5t-14.5 35.5zM0 250q0 20 15 35t37 15
q21 0 36 -15t15 -35q0 -21 -15 -36t-36 -15q-22 0 -37 15t-15 36zM0 350q0 20 15 34.5t37 14.5q21 0 36 -14.5t15 -34.5q0 -21 -15 -35.5t-36 -14.5q-22 0 -37 14.5t-15 35.5zM0 450q0 20 15 35t37 15q21 0 36 -15t15 -35q0 -21 -15 -36t-36 -15q-22 0 -37 15t-15 36zM0 549
q0 20 15 34t37 14q21 0 36 -14t15 -34q0 -21 -15 -35t-36 -14q-22 0 -37 14t-15 35zM400 149q0 21 14.5 35.5t34.5 14.5t34.5 -14.5t14.5 -35.5t-14.5 -35.5t-34.5 -14.5t-34.5 14.5t-14.5 35.5zM400 250q0 20 15 35t37 15q21 0 36 -15t15 -35q0 -21 -15 -36t-36 -15
q-22 0 -37 15t-15 36zM400 350q0 20 15 34.5t37 14.5q21 0 36 -14.5t15 -34.5q0 -21 -15 -35.5t-36 -14.5q-22 0 -37 14.5t-15 35.5zM400 450q0 20 15 35t37 15q21 0 36 -15t15 -35q0 -21 -15 -36t-36 -15q-22 0 -37 15t-15 36zM400 549q0 20 15 34t37 14q21 0 36 -14
t15 -34q0 -21 -15 -35t-36 -14q-22 0 -37 14t-15 35z" />
    <glyph glyph-name="one" unicode="1" horiz-adv-x="500" 
d="M101 649q0 20 15 34t37 14q21 0 36 -14t15 -34t-15 -34t-36 -14q-22 0 -37 14t-15 34zM98 550q0 21 15.5 36t37.5 15t37.5 -15t15.5 -36t-15.5 -36t-37.5 -15t-37.5 15t-15.5 36zM98 450q0 20 15.5 34.5t38.5 14.5q22 0 37.5 -14.5t15.5 -34.5q0 -21 -15.5 -35.5
t-37.5 -14.5q-23 0 -38.5 14.5t-15.5 35.5zM97 350q0 21 16 35.5t38 14.5t38 -14.5t16 -35.5t-16 -35.5t-38 -14.5t-38 14.5t-16 35.5zM97 249q0 21 16 36t38 15t38 -15t16 -36t-16 -36t-38 -15t-38 15t-16 36zM98 147q0 21 15.5 36t38.5 15q22 0 37.5 -15t15.5 -36
t-15.5 -36t-37.5 -15q-23 0 -38.5 15t-15.5 36zM0 49q0 20 14.5 34.5t35.5 14.5t35.5 -14.5t14.5 -34.5t-14.5 -34.5t-35.5 -14.5t-35.5 14.5t-14.5 34.5zM0 548q0 19 15 33t36 14t36 -14t15 -33q0 -20 -15 -34t-36 -14t-36 14t-15 34zM201 649q0 20 15 34t37 14
q21 0 36 -14t15 -34t-15 -34t-36 -14q-22 0 -37 14t-15 34zM205 548q0 22 15.5 36.5t37.5 14.5t37.5 -14.5t15.5 -36.5q0 -21 -15.5 -36t-37.5 -15t-37.5 15t-15.5 36zM210 451q0 21 15.5 35.5t37.5 14.5t38 -14.5t16 -35.5q0 -20 -16 -34.5t-38 -14.5t-37.5 14.5
t-15.5 34.5zM207 350q0 21 16 35.5t38 14.5t38 -14.5t16 -35.5t-16 -35.5t-38 -14.5t-38 14.5t-16 35.5zM207 249q0 21 16 36t38 15t37.5 -15t16.5 -36q1 -20 -15 -35.5t-39 -15.5q-22 0 -38 15t-16 36zM206 145q0 22 16 36.5t38 14.5t37.5 -14.5t15.5 -36.5
q0 -21 -15.5 -36t-37.5 -15t-38 15t-16 36zM198 48q0 20 15.5 34t38.5 14q22 0 37.5 -14t15.5 -34t-15.5 -34t-37.5 -14q-23 0 -38.5 14t-15.5 34zM304 48q0 20 15 34t36 14t36 -14t15 -34t-15 -34t-36 -14t-36 14t-15 34zM100 49q0 20 14.5 34.5t35.5 14.5t35.5 -14.5
t14.5 -34.5q0 -21 -14 -35t-36 -14q-21 0 -35.5 14t-14.5 35z" />
    <glyph glyph-name="two" unicode="2" 
d="M0 49q0 20 15 34.5t37 14.5q21 0 36 -14.5t15 -34.5t-15 -34.5t-36 -14.5q-22 0 -37 14.5t-15 34.5zM103 49q0 20 14.5 34.5t35.5 14.5q20 0 34.5 -14.5t14.5 -34.5t-14.5 -34.5t-34.5 -14.5q-21 0 -35.5 14.5t-14.5 34.5zM202 49q0 20 15 34t36 14q20 0 35 -14t15 -34
q0 -21 -15 -35t-35 -14q-21 0 -36 14t-15 35zM303 49q0 20 15 34t36 14t36 -14t15 -34q0 -21 -15 -35t-36 -14t-36 14t-15 35zM0 147q0 20 15 34.5t36 14.5q20 0 35 -14.5t15 -34.5q0 -21 -15 -35.5t-35 -14.5q-21 0 -36 14.5t-15 35.5zM96 249q0 21 15.5 36t37.5 15
t37.5 -15t15.5 -36q0 -22 -15.5 -37t-37.5 -15t-37.5 15t-15.5 37zM202 349q0 20 15 34.5t36 14.5q20 0 35 -14.5t15 -34.5t-15 -34.5t-35 -14.5q-21 0 -36 14.5t-15 34.5zM303 449q0 21 14.5 36t35.5 15t35.5 -15t14.5 -36t-14.5 -36t-35.5 -15t-35.5 15t-14.5 36zM298 550
q0 20 15.5 34.5t37.5 14.5q21 0 36.5 -14.5t15.5 -34.5q0 -21 -15.5 -35.5t-36.5 -14.5q-22 0 -37.5 14.5t-15.5 35.5zM201 648q0 20 14 34.5t35 14.5q20 0 34 -14.5t14 -34.5t-14 -34.5t-34 -14.5q-21 0 -35 14.5t-14 34.5zM99 648q0 20 15 34.5t36 14.5t36 -14.5t15 -34.5
t-15 -34.5t-36 -14.5t-36 14.5t-15 34.5zM0 550q0 20 14.5 34.5t35.5 14.5q20 0 34.5 -14.5t14.5 -34.5q0 -21 -14.5 -35.5t-34.5 -14.5q-21 0 -35.5 14.5t-14.5 35.5zM100 550q0 20 14.5 34.5t35.5 14.5q20 0 34.5 -14.5t14.5 -34.5q0 -21 -14.5 -35.5t-34.5 -14.5
q-21 0 -35.5 14.5t-14.5 35.5zM400 550q0 20 14.5 34.5t35.5 14.5q20 0 34.5 -14.5t14.5 -34.5q0 -21 -14.5 -35.5t-34.5 -14.5q-21 0 -35.5 14.5t-14.5 35.5zM300 650q0 20 14.5 34.5t35.5 14.5q20 0 34.5 -14.5t14.5 -34.5q0 -21 -14.5 -35.5t-34.5 -14.5
q-21 0 -35.5 14.5t-14.5 35.5zM300 350q0 20 14.5 34.5t35.5 14.5q20 0 34.5 -14.5t14.5 -34.5q0 -21 -14.5 -35.5t-34.5 -14.5q-21 0 -35.5 14.5t-14.5 35.5zM200 250q0 20 14.5 34.5t35.5 14.5q20 0 34.5 -14.5t14.5 -34.5q0 -21 -14.5 -35.5t-34.5 -14.5
q-21 0 -35.5 14.5t-14.5 35.5zM400 450q0 20 14.5 34.5t35.5 14.5q20 0 34.5 -14.5t14.5 -34.5q0 -21 -14.5 -35.5t-34.5 -14.5q-21 0 -35.5 14.5t-14.5 35.5zM100 150q0 20 14.5 34.5t35.5 14.5q20 0 34.5 -14.5t14.5 -34.5q0 -21 -14.5 -35.5t-34.5 -14.5
q-21 0 -35.5 14.5t-14.5 35.5zM400 50q0 20 14.5 34.5t35.5 14.5q20 0 34.5 -14.5t14.5 -34.5q0 -21 -14.5 -35.5t-34.5 -14.5q-21 0 -35.5 14.5t-14.5 35.5z" />
    <glyph glyph-name="three" unicode="3" 
d="M0 548q0 20 15 34.5t37 14.5t37 -14.5t15 -34.5t-15 -34.5t-37 -14.5t-37 14.5t-15 34.5zM97 649q0 20 15.5 34t37.5 14t37.5 -14t15.5 -34q0 -21 -15.5 -35t-37.5 -14t-37.5 14t-15.5 35zM203 648q0 20 14.5 34.5t35.5 14.5t35.5 -14.5t14.5 -34.5q0 -21 -14.5 -35.5
t-35.5 -14.5t-35.5 14.5t-14.5 35.5zM303 549q0 20 14.5 35t35.5 15q20 0 34.5 -15t14.5 -35q0 -21 -14.5 -36t-34.5 -15q-21 0 -35.5 15t-14.5 36zM298 448q0 21 15 35.5t37 14.5t37 -14.5t15 -35.5t-15 -35.5t-37 -14.5t-37 14.5t-15 35.5zM200 349q0 20 14.5 34.5
t34.5 14.5t34.5 -14.5t14.5 -34.5q0 -21 -14.5 -35.5t-34.5 -14.5t-34.5 14.5t-14.5 35.5zM299 249q0 21 15.5 36t37.5 15t37.5 -15t15.5 -36q0 -22 -15.5 -37t-37.5 -15t-37.5 15t-15.5 37zM298 147q0 21 15.5 35.5t38.5 14.5q22 0 37.5 -14.5t15.5 -35.5t-15.5 -35.5
t-37.5 -14.5q-23 0 -38.5 14.5t-15.5 35.5zM198 49q0 20 14.5 34t35.5 14t35.5 -14t14.5 -34q0 -21 -14.5 -35t-35.5 -14t-35.5 14t-14.5 35zM99 49q0 20 14.5 34t35.5 14q20 0 34.5 -14t14.5 -34q0 -21 -14.5 -35t-34.5 -14q-21 0 -35.5 14t-14.5 35zM0 148q0 20 14.5 35
t35.5 15q20 0 34.5 -15t14.5 -35q0 -21 -14.5 -36t-34.5 -15q-21 0 -35.5 15t-14.5 36zM100 550q0 20 14.5 34.5t35.5 14.5q20 0 34.5 -14.5t14.5 -34.5q0 -21 -14.5 -35.5t-34.5 -14.5q-21 0 -35.5 14.5t-14.5 35.5zM100 150q0 20 14.5 34.5t35.5 14.5q20 0 34.5 -14.5
t14.5 -34.5q0 -21 -14.5 -35.5t-34.5 -14.5q-21 0 -35.5 14.5t-14.5 35.5zM400 550q0 20 14.5 34.5t35.5 14.5q20 0 34.5 -14.5t14.5 -34.5q0 -21 -14.5 -35.5t-34.5 -14.5q-21 0 -35.5 14.5t-14.5 35.5zM300 650q0 20 14.5 34.5t35.5 14.5q20 0 34.5 -14.5t14.5 -34.5
q0 -21 -14.5 -35.5t-34.5 -14.5q-21 0 -35.5 14.5t-14.5 35.5zM300 350q0 20 14.5 34.5t35.5 14.5q20 0 34.5 -14.5t14.5 -34.5q0 -21 -14.5 -35.5t-34.5 -14.5q-21 0 -35.5 14.5t-14.5 35.5zM400 450q0 20 14.5 34.5t35.5 14.5q20 0 34.5 -14.5t14.5 -34.5
q0 -21 -14.5 -35.5t-34.5 -14.5q-21 0 -35.5 14.5t-14.5 35.5zM400 250q0 20 14.5 34.5t35.5 14.5q20 0 34.5 -14.5t14.5 -34.5q0 -21 -14.5 -35.5t-34.5 -14.5q-21 0 -35.5 14.5t-14.5 35.5zM400 150q0 20 14.5 34.5t35.5 14.5q20 0 34.5 -14.5t14.5 -34.5
q0 -21 -14.5 -35.5t-34.5 -14.5q-21 0 -35.5 14.5t-14.5 35.5zM300 50q0 20 14.5 34.5t35.5 14.5q20 0 34.5 -14.5t14.5 -34.5q0 -21 -14.5 -35.5t-34.5 -14.5q-21 0 -35.5 14.5t-14.5 35.5z" />
    <glyph glyph-name="four" unicode="4" 
d="M0 350q0 20 15 34t36 14t36 -14t15 -34t-15 -34t-36 -14t-36 14t-15 34zM102 349q0 20 14.5 34.5t35.5 14.5q20 0 34.5 -14.5t14.5 -34.5q0 -21 -14.5 -35.5t-34.5 -14.5q-21 0 -35.5 14.5t-14.5 35.5zM201 350q0 20 15 35t36 15t36 -15t15 -35q0 -21 -15 -36t-36 -15
t-36 15t-15 36zM303 350q0 21 14.5 35.5t35.5 14.5t35.5 -14.5t14.5 -35.5t-14.5 -35.5t-35.5 -14.5t-35.5 14.5t-14.5 35.5zM299 249q0 21 15 36t37 15t37 -15t15 -36t-15 -36t-37 -15t-37 15t-15 36zM299 148q0 21 15 35.5t37 14.5q21 0 36 -14.5t15 -35.5t-15 -35.5
t-36 -14.5q-22 0 -37 14.5t-15 35.5zM298 49q0 20 15 34.5t37 14.5t37 -14.5t15 -34.5t-15 -34.5t-37 -14.5t-37 14.5t-15 34.5zM0 453q0 20 14.5 34t35.5 14t35.5 -14t14.5 -34q0 -21 -14.5 -35t-35.5 -14t-35.5 14t-14.5 35zM100 550q0 20 15 34.5t36 14.5q20 0 35 -14.5
t15 -34.5t-15 -34.5t-35 -14.5q-21 0 -36 14.5t-15 34.5zM201 648q0 20 15 34.5t36 14.5t36 -14.5t15 -34.5t-15 -34.5t-36 -14.5t-36 14.5t-15 34.5zM303 648q0 20 14.5 34.5t35.5 14.5q20 0 34.5 -14.5t14.5 -34.5t-14.5 -34.5t-34.5 -14.5q-21 0 -35.5 14.5t-14.5 34.5z
M298 550q0 20 15 34.5t37 14.5t37 -14.5t15 -34.5t-15 -34.5t-37 -14.5t-37 14.5t-15 34.5zM298 450q0 21 15.5 36t37.5 15q21 0 36.5 -15t15.5 -36t-15.5 -36t-36.5 -15q-22 0 -37.5 15t-15.5 36zM200 550q0 20 15 34.5t36 14.5q20 0 35 -14.5t15 -34.5t-15 -34.5
t-35 -14.5q-21 0 -36 14.5t-15 34.5zM100 450q0 20 15 34.5t36 14.5q20 0 35 -14.5t15 -34.5t-15 -34.5t-35 -14.5q-21 0 -36 14.5t-15 34.5zM400 550q0 20 15 34.5t36 14.5q20 0 35 -14.5t15 -34.5t-15 -34.5t-35 -14.5q-21 0 -36 14.5t-15 34.5zM400 650q0 20 15 34.5
t36 14.5q20 0 35 -14.5t15 -34.5t-15 -34.5t-35 -14.5q-21 0 -36 14.5t-15 34.5zM400 450q0 20 15 34.5t36 14.5q20 0 35 -14.5t15 -34.5t-15 -34.5t-35 -14.5q-21 0 -36 14.5t-15 34.5zM400 350q0 20 15 34.5t36 14.5q20 0 35 -14.5t15 -34.5t-15 -34.5t-35 -14.5
q-21 0 -36 14.5t-15 34.5zM400 250q0 20 15 34.5t36 14.5q20 0 35 -14.5t15 -34.5t-15 -34.5t-35 -14.5q-21 0 -36 14.5t-15 34.5zM400 150q0 20 15 34.5t36 14.5q20 0 35 -14.5t15 -34.5t-15 -34.5t-35 -14.5q-21 0 -36 14.5t-15 34.5zM400 50q0 20 15 34.5t36 14.5
q20 0 35 -14.5t15 -34.5t-15 -34.5t-35 -14.5q-21 0 -36 14.5t-15 34.5z" />
    <glyph glyph-name="five" unicode="5" 
d="M0 648q0 20 15 34.5t36 14.5t36 -14.5t15 -34.5q0 -21 -15 -35.5t-36 -14.5t-36 14.5t-15 35.5zM102 648q0 20 15 34.5t36 14.5t36 -14.5t15 -34.5q0 -21 -15 -35.5t-36 -14.5t-36 14.5t-15 35.5zM204 649q0 20 14.5 34t35.5 14q20 0 34.5 -14t14.5 -34q0 -21 -14.5 -35
t-34.5 -14q-21 0 -35.5 14t-14.5 35zM303 649q0 20 14.5 34t35.5 14t35.5 -14t14.5 -34q0 -21 -14.5 -35t-35.5 -14t-35.5 14t-14.5 35zM0 548q0 21 15 35.5t36 14.5t36 -14.5t15 -35.5t-15 -35.5t-36 -14.5t-36 14.5t-15 35.5zM0 450q0 20 15 34t36 14t36 -14t15 -34
q0 -21 -15 -35t-36 -14t-36 14t-15 35zM105 448q0 21 14 35.5t35 14.5q20 0 34 -14.5t14 -35.5t-14 -35.5t-34 -14.5q-21 0 -35 14.5t-14 35.5zM201 448q0 20 15 34.5t37 14.5t37 -14.5t15 -34.5q0 -21 -15 -35.5t-37 -14.5t-37 14.5t-15 35.5zM303 354q0 21 15 36.5
t36 15.5q20 0 35 -15.5t15 -36.5q0 -22 -15 -37.5t-35 -15.5q-21 0 -36 15.5t-15 37.5zM297 249q0 21 15.5 36.5t38.5 15.5q22 0 37.5 -15.5t15.5 -36.5q0 -22 -15.5 -37.5t-37.5 -15.5q-23 0 -38.5 15.5t-15.5 37.5zM297 145q0 21 16 36t39 15t39 -15t16 -36t-16 -36
t-39 -15t-39 15t-16 36zM201 46q0 18 15 31.5t36 13.5t36 -13.5t15 -31.5q0 -19 -15 -32.5t-36 -13.5t-36 13.5t-15 32.5zM97 50q0 20 15 34.5t37 14.5t37 -14.5t15 -34.5q0 -21 -15 -35.5t-37 -14.5t-37 14.5t-15 35.5zM0 149q0 21 14 35.5t35 14.5q20 0 34 -14.5t14 -35.5
t-14 -35.5t-34 -14.5q-21 0 -35 14.5t-14 35.5zM100 550q0 20 15 34.5t36 14.5q20 0 35 -14.5t15 -34.5t-15 -34.5t-35 -14.5q-21 0 -36 14.5t-15 34.5zM100 150q0 20 15 34.5t36 14.5q20 0 35 -14.5t15 -34.5t-15 -34.5t-35 -14.5q-21 0 -36 14.5t-15 34.5zM300 450
q0 20 15 34.5t36 14.5q20 0 35 -14.5t15 -34.5t-15 -34.5t-35 -14.5q-21 0 -36 14.5t-15 34.5zM400 350q0 20 15 34.5t36 14.5q20 0 35 -14.5t15 -34.5t-15 -34.5t-35 -14.5q-21 0 -36 14.5t-15 34.5zM400 250q0 20 15 34.5t36 14.5q20 0 35 -14.5t15 -34.5t-15 -34.5
t-35 -14.5q-21 0 -36 14.5t-15 34.5zM400 150q0 20 15 34.5t36 14.5q20 0 35 -14.5t15 -34.5t-15 -34.5t-35 -14.5q-21 0 -36 14.5t-15 34.5zM300 50q0 20 15 34.5t36 14.5q20 0 35 -14.5t15 -34.5t-15 -34.5t-35 -14.5q-21 0 -36 14.5t-15 34.5zM400 650q0 20 15 34.5
t36 14.5q20 0 35 -14.5t15 -34.5t-15 -34.5t-35 -14.5q-21 0 -36 14.5t-15 34.5z" />
    <glyph glyph-name="six" unicode="6" 
d="M199 649q0 20 14.5 34t35.5 14q20 0 34.5 -14t14.5 -34t-14.5 -34t-34.5 -14q-21 0 -35.5 14t-14.5 34zM99 649q0 20 14.5 34t35.5 14t35.5 -14t14.5 -34t-14.5 -34t-35.5 -14t-35.5 14t-14.5 34zM0 548q0 20 15 34t37 14q21 0 36 -14t15 -34t-15 -34t-36 -14
q-22 0 -37 14t-15 34zM0 450q0 21 15 35.5t37 14.5q21 0 36 -14.5t15 -35.5t-15 -35.5t-36 -14.5q-22 0 -37 14.5t-15 35.5zM0 350q0 21 15 35.5t37 14.5q21 0 36 -14.5t15 -35.5t-15 -35.5t-36 -14.5q-22 0 -37 14.5t-15 35.5zM0 249q0 21 15 36t37 15q21 0 36 -15t15 -36
t-15 -36t-36 -15q-22 0 -37 15t-15 36zM0 148q0 20 15 35t37 15q21 0 36 -15t15 -35q0 -21 -15 -36t-36 -15q-22 0 -37 15t-15 36zM103 49q0 20 14.5 34t34.5 14t34.5 -14t14.5 -34q0 -21 -14.5 -35t-34.5 -14t-34.5 14t-14.5 35zM201 49q0 20 15 34t36 14q20 0 35 -14
t15 -34q0 -21 -15 -35t-35 -14q-21 0 -36 14t-15 35zM302 147q0 21 14.5 35.5t35.5 14.5t35.5 -14.5t14.5 -35.5t-14.5 -35.5t-35.5 -14.5t-35.5 14.5t-14.5 35.5zM296 247q0 20 15.5 34.5t37.5 14.5t37.5 -14.5t15.5 -34.5q0 -21 -15.5 -35.5t-37.5 -14.5t-37.5 14.5
t-15.5 35.5zM296 347q0 21 15.5 36t37.5 15t37.5 -15t15.5 -36t-15.5 -36t-37.5 -15t-37.5 15t-15.5 36zM203 450q0 20 14 34.5t33 14.5t33 -14.5t14 -34.5q0 -21 -14 -35.5t-33 -14.5t-33 14.5t-14 35.5zM100 450q0 20 15 34.5t37 14.5q21 0 36 -14.5t15 -34.5
q0 -21 -15 -35.5t-36 -14.5q-22 0 -37 14.5t-15 35.5zM100 550q0 20 15 34.5t36 14.5q20 0 35 -14.5t15 -34.5t-15 -34.5t-35 -14.5q-21 0 -36 14.5t-15 34.5zM300 650q0 20 15 34.5t36 14.5q20 0 35 -14.5t15 -34.5t-15 -34.5t-35 -14.5q-21 0 -36 14.5t-15 34.5zM100 350
q0 20 15 34.5t36 14.5q20 0 35 -14.5t15 -34.5t-15 -34.5t-35 -14.5q-21 0 -36 14.5t-15 34.5zM100 250q0 20 15 34.5t36 14.5q20 0 35 -14.5t15 -34.5t-15 -34.5t-35 -14.5q-21 0 -36 14.5t-15 34.5zM100 150q0 20 15 34.5t36 14.5q20 0 35 -14.5t15 -34.5t-15 -34.5
t-35 -14.5q-21 0 -36 14.5t-15 34.5zM300 450q0 20 15 34.5t36 14.5q20 0 35 -14.5t15 -34.5t-15 -34.5t-35 -14.5q-21 0 -36 14.5t-15 34.5zM400 350q0 20 15 34.5t36 14.5q20 0 35 -14.5t15 -34.5t-15 -34.5t-35 -14.5q-21 0 -36 14.5t-15 34.5zM400 250q0 20 15 34.5
t36 14.5q20 0 35 -14.5t15 -34.5t-15 -34.5t-35 -14.5q-21 0 -36 14.5t-15 34.5zM400 150q0 20 15 34.5t36 14.5q20 0 35 -14.5t15 -34.5t-15 -34.5t-35 -14.5q-21 0 -36 14.5t-15 34.5zM300 50q0 20 15 34.5t36 14.5q20 0 35 -14.5t15 -34.5t-15 -34.5t-35 -14.5
q-21 0 -36 14.5t-15 34.5z" />
    <glyph glyph-name="seven" unicode="7" 
d="M0 649q0 20 15 34t36 14t36 -14t15 -34q0 -21 -15 -35t-36 -14t-36 14t-15 35zM102 649q0 20 14.5 34t35.5 14t35.5 -14t14.5 -34q0 -21 -14.5 -35t-35.5 -14t-35.5 14t-14.5 35zM202 649q0 20 14.5 34t35.5 14q20 0 34.5 -14t14.5 -34q0 -21 -14.5 -35t-34.5 -14
q-21 0 -35.5 14t-14.5 35zM301 649q0 20 15 34t36 14t36 -14t15 -34q0 -21 -15 -35t-36 -14t-36 14t-15 35zM300 548q0 20 15 34t37 14q21 0 36 -14t15 -34q0 -21 -15 -35t-36 -14q-22 0 -37 14t-15 35zM300 449q0 21 15 35.5t36 14.5t36 -14.5t15 -35.5t-15 -35.5
t-36 -14.5t-36 14.5t-15 35.5zM196 350q0 20 15.5 34.5t37.5 14.5t37.5 -14.5t15.5 -34.5q0 -21 -15.5 -35.5t-37.5 -14.5t-37.5 14.5t-15.5 35.5zM98 250q0 20 14.5 35t34.5 15t34.5 -15t14.5 -35q0 -21 -14.5 -36t-34.5 -15t-34.5 15t-14.5 36zM0 149q0 20 14.5 35
t34.5 15t34.5 -15t14.5 -35q0 -21 -14.5 -36t-34.5 -15t-34.5 15t-14.5 36zM0 49q0 20 15 34.5t36 14.5q20 0 35 -14.5t15 -34.5t-15 -34.5t-35 -14.5q-21 0 -36 14.5t-15 34.5zM400 550q0 20 15 34.5t36 14.5q20 0 35 -14.5t15 -34.5t-15 -34.5t-35 -14.5q-21 0 -36 14.5
t-15 34.5zM400 650q0 20 15 34.5t36 14.5q20 0 35 -14.5t15 -34.5t-15 -34.5t-35 -14.5q-21 0 -36 14.5t-15 34.5zM300 350q0 20 15 34.5t36 14.5q20 0 35 -14.5t15 -34.5t-15 -34.5t-35 -14.5q-21 0 -36 14.5t-15 34.5zM400 450q0 20 15 34.5t36 14.5q20 0 35 -14.5
t15 -34.5t-15 -34.5t-35 -14.5q-21 0 -36 14.5t-15 34.5zM200 250q0 20 15 34.5t36 14.5q20 0 35 -14.5t15 -34.5t-15 -34.5t-35 -14.5q-21 0 -36 14.5t-15 34.5zM100 150q0 20 15 34.5t36 14.5q20 0 35 -14.5t15 -34.5t-15 -34.5t-35 -14.5q-21 0 -36 14.5t-15 34.5z
M100 50q0 20 15 34.5t36 14.5q20 0 35 -14.5t15 -34.5t-15 -34.5t-35 -14.5q-21 0 -36 14.5t-15 34.5z" />
    <glyph glyph-name="eight" unicode="8" 
d="M97 648q0 20 15.5 34.5t37.5 14.5t37.5 -14.5t15.5 -34.5t-15.5 -34.5t-37.5 -14.5t-37.5 14.5t-15.5 34.5zM203 648q0 20 14.5 34.5t35.5 14.5t35.5 -14.5t14.5 -34.5t-14.5 -34.5t-35.5 -14.5t-35.5 14.5t-14.5 34.5zM304 549q0 21 14.5 36t35.5 15t35.5 -15t14.5 -36
t-14.5 -36t-35.5 -15t-35.5 15t-14.5 36zM298 450q0 20 15.5 34t37.5 14t37.5 -14t15.5 -34t-15.5 -34t-37.5 -14t-37.5 14t-15.5 34zM198 351q0 21 14.5 36t35.5 15t35.5 -15t14.5 -36t-14.5 -36t-35.5 -15t-35.5 15t-14.5 36zM98 349q0 20 14.5 34.5t35.5 14.5t35.5 -14.5
t14.5 -34.5t-14.5 -34.5t-35.5 -14.5t-35.5 14.5t-14.5 34.5zM0 447q0 20 14.5 34t34.5 14t34.5 -14t14.5 -34q0 -21 -14.5 -35t-34.5 -14t-34.5 14t-14.5 35zM0 547q0 21 15 36t37 15t37 -15t15 -36q0 -22 -15 -37t-37 -15t-37 15t-15 37zM0 250q0 20 14.5 34.5t35.5 14.5
q20 0 34.5 -14.5t14.5 -34.5q0 -21 -14.5 -35.5t-34.5 -14.5q-21 0 -35.5 14.5t-14.5 35.5zM0 149q0 21 15 36t36 15q20 0 35 -15t15 -36q0 -22 -15 -37t-35 -15q-21 0 -36 15t-15 37zM101 49q0 20 15 34t36 14t36 -14t15 -34q0 -21 -15 -35t-36 -14t-36 14t-15 35zM203 49
q0 20 14.5 34.5t35.5 14.5t35.5 -14.5t14.5 -34.5t-14.5 -34.5t-35.5 -14.5t-35.5 14.5t-14.5 34.5zM303 148q0 21 14.5 35.5t35.5 14.5q20 0 34.5 -14.5t14.5 -35.5t-14.5 -35.5t-34.5 -14.5q-21 0 -35.5 14.5t-14.5 35.5zM299 249q0 20 15 35t37 15q21 0 36 -15t15 -35
q0 -21 -15 -36t-36 -15q-22 0 -37 15t-15 36zM100 550q0 20 15 34.5t36 14.5q20 0 35 -14.5t15 -34.5t-15 -34.5t-35 -14.5q-21 0 -36 14.5t-15 34.5zM100 450q0 20 15 34.5t36 14.5q20 0 35 -14.5t15 -34.5t-15 -34.5t-35 -14.5q-21 0 -36 14.5t-15 34.5zM400 550
q0 20 15 34.5t36 14.5q20 0 35 -14.5t15 -34.5t-15 -34.5t-35 -14.5q-21 0 -36 14.5t-15 34.5zM400 450q0 20 15 34.5t36 14.5q20 0 35 -14.5t15 -34.5t-15 -34.5t-35 -14.5q-21 0 -36 14.5t-15 34.5zM300 650q0 20 15 34.5t36 14.5q20 0 35 -14.5t15 -34.5t-15 -34.5
t-35 -14.5q-21 0 -36 14.5t-15 34.5zM100 250q0 20 15 34.5t36 14.5q20 0 35 -14.5t15 -34.5t-15 -34.5t-35 -14.5q-21 0 -36 14.5t-15 34.5zM100 150q0 20 15 34.5t36 14.5q20 0 35 -14.5t15 -34.5t-15 -34.5t-35 -14.5q-21 0 -36 14.5t-15 34.5zM300 350q0 20 15 34.5
t36 14.5q20 0 35 -14.5t15 -34.5t-15 -34.5t-35 -14.5q-21 0 -36 14.5t-15 34.5zM400 250q0 20 15 34.5t36 14.5q20 0 35 -14.5t15 -34.5t-15 -34.5t-35 -14.5q-21 0 -36 14.5t-15 34.5zM400 150q0 20 15 34.5t36 14.5q20 0 35 -14.5t15 -34.5t-15 -34.5t-35 -14.5
q-21 0 -36 14.5t-15 34.5zM300 50q0 20 15 34.5t36 14.5q20 0 35 -14.5t15 -34.5t-15 -34.5t-35 -14.5q-21 0 -36 14.5t-15 34.5z" />
    <glyph glyph-name="nine" unicode="9" 
d="M198 251q0 21 14.5 36t35.5 15q20 0 34.5 -15t14.5 -36t-14.5 -36t-34.5 -15q-21 0 -35.5 15t-14.5 36zM100 250q0 20 14.5 34.5t34.5 14.5t34.5 -14.5t14.5 -34.5q0 -21 -14.5 -35.5t-34.5 -14.5t-34.5 14.5t-14.5 35.5zM0 349q0 21 14.5 35.5t35.5 14.5t35.5 -14.5
t14.5 -35.5t-14.5 -35.5t-35.5 -14.5t-35.5 14.5t-14.5 35.5zM0 448q0 20 15 34.5t37 14.5t37 -14.5t15 -34.5t-15 -34.5t-37 -14.5t-37 14.5t-15 34.5zM0 548q0 20 15 35t37 15t37 -15t15 -35q0 -21 -15 -36t-37 -15t-37 15t-15 36zM100 649q0 20 15 34t37 14q21 0 36 -14
t15 -34t-15 -34t-36 -14q-22 0 -37 14t-15 34zM203 649q0 20 15 34t36 14t36 -14t15 -34t-15 -34t-36 -14t-36 14t-15 34zM305 550q0 21 14.5 36t34.5 15t34.5 -15t14.5 -36q0 -22 -14.5 -37t-34.5 -15t-34.5 15t-14.5 37zM300 449q0 20 15 34.5t37 14.5q21 0 36 -14.5
t15 -34.5q0 -21 -15 -35.5t-36 -14.5q-22 0 -37 14.5t-15 35.5zM300 349q0 21 15.5 35.5t37.5 14.5q21 0 36.5 -14.5t15.5 -35.5t-15.5 -35.5t-36.5 -14.5q-22 0 -37.5 14.5t-15.5 35.5zM297 248q0 21 16 36t38 15t38 -15t16 -36q0 -22 -16 -37t-38 -15t-38 15t-16 37z
M297 147q0 20 15.5 34.5t37.5 14.5q21 0 36.5 -14.5t15.5 -34.5q0 -21 -15.5 -35.5t-36.5 -14.5q-22 0 -37.5 14.5t-15.5 35.5zM202 47q0 19 14 33t35 14q20 0 34 -14t14 -33t-14 -33t-34 -14q-21 0 -35 14t-14 33zM96 48q0 20 15.5 34t37.5 14t37.5 -14t15.5 -34t-15.5 -34
t-37.5 -14t-37.5 14t-15.5 34zM100 550q0 20 15 34.5t36 14.5q20 0 35 -14.5t15 -34.5t-15 -34.5t-35 -14.5q-21 0 -36 14.5t-15 34.5zM100 450q0 20 15 34.5t36 14.5q20 0 35 -14.5t15 -34.5t-15 -34.5t-35 -14.5q-21 0 -36 14.5t-15 34.5zM100 350q0 20 15 34.5t36 14.5
q20 0 35 -14.5t15 -34.5t-15 -34.5t-35 -14.5q-21 0 -36 14.5t-15 34.5zM400 550q0 20 15 34.5t36 14.5q20 0 35 -14.5t15 -34.5t-15 -34.5t-35 -14.5q-21 0 -36 14.5t-15 34.5zM300 650q0 20 15 34.5t36 14.5q20 0 35 -14.5t15 -34.5t-15 -34.5t-35 -14.5q-21 0 -36 14.5
t-15 34.5zM400 350q0 20 15 34.5t36 14.5q20 0 35 -14.5t15 -34.5t-15 -34.5t-35 -14.5q-21 0 -36 14.5t-15 34.5zM400 450q0 20 15 34.5t36 14.5q20 0 35 -14.5t15 -34.5t-15 -34.5t-35 -14.5q-21 0 -36 14.5t-15 34.5zM400 250q0 20 15 34.5t36 14.5q20 0 35 -14.5
t15 -34.5t-15 -34.5t-35 -14.5q-21 0 -36 14.5t-15 34.5zM400 150q0 20 15 34.5t36 14.5q20 0 35 -14.5t15 -34.5t-15 -34.5t-35 -14.5q-21 0 -36 14.5t-15 34.5zM300 50q0 20 15 34.5t36 14.5q20 0 35 -14.5t15 -34.5t-15 -34.5t-35 -14.5q-21 0 -36 14.5t-15 34.5z" />
    <glyph glyph-name="colon" unicode=":" horiz-adv-x="300" 
d="M0 350q0 19 15 33t36 14t36 -14t15 -33q0 -20 -15 -34t-36 -14t-36 14t-15 34zM0 48q0 20 15 34t37 14q21 0 36 -14t15 -34t-15 -34t-36 -14q-22 0 -37 14t-15 34zM100 350q0 19 15 33t36 14t36 -14t15 -33q0 -20 -15 -34t-36 -14t-36 14t-15 34zM100 48q0 20 15 34
t37 14q21 0 36 -14t15 -34t-15 -34t-36 -14q-22 0 -37 14t-15 34z" />
    <glyph glyph-name="semicolon" unicode=";" horiz-adv-x="400" 
d="M0 -51q0 21 15.5 36t38.5 15q22 0 37.5 -15t15.5 -36q0 -20 -15.5 -35t-37.5 -15q-23 0 -38.5 15t-15.5 35zM98 49q0 20 16 34t39 14q22 0 38 -14t16 -34q0 -21 -16 -35t-38 -14q-23 0 -39 14t-16 35zM98 348q0 20 15 35t37 15q21 0 36 -15t15 -35q0 -21 -15 -36t-36 -15
q-22 0 -37 15t-15 36zM100 -51q0 21 15.5 36t38.5 15q22 0 37.5 -15t15.5 -36q0 -20 -15.5 -35t-37.5 -15q-23 0 -38.5 15t-15.5 35zM198 49q0 20 16 34t39 14q22 0 38 -14t16 -34q0 -21 -16 -35t-38 -14q-23 0 -39 14t-16 35zM198 348q0 20 15 35t37 15q21 0 36 -15t15 -35
q0 -21 -15 -36t-36 -15q-22 0 -37 15t-15 36z" />
    <glyph glyph-name="less" unicode="&#x3c;" horiz-adv-x="500" 
d="M201 47q0 19 14.5 33t34.5 14t34.5 -14t14.5 -33t-14.5 -33t-34.5 -14t-34.5 14t-14.5 33zM98 147q0 22 15 37.5t37 15.5q21 0 36 -15.5t15 -37.5t-15 -37.5t-36 -15.5q-22 0 -37 15.5t-15 37.5zM0 249q0 20 14.5 34.5t34.5 14.5t34.5 -14.5t14.5 -34.5t-14.5 -34.5
t-34.5 -14.5t-34.5 14.5t-14.5 34.5zM101 351q0 20 15 35t37 15q21 0 36 -15t15 -35q0 -21 -15 -36t-36 -15q-22 0 -37 15t-15 36zM204 450q0 20 14.5 34.5t34.5 14.5t34.5 -14.5t14.5 -34.5t-14.5 -34.5t-34.5 -14.5t-34.5 14.5t-14.5 34.5zM301 47q0 19 14.5 33t34.5 14
t34.5 -14t14.5 -33t-14.5 -33t-34.5 -14t-34.5 14t-14.5 33zM198 147q0 22 15 37.5t37 15.5q21 0 36 -15.5t15 -37.5t-15 -37.5t-36 -15.5q-22 0 -37 15.5t-15 37.5zM100 249q0 20 14.5 34.5t34.5 14.5t34.5 -14.5t14.5 -34.5t-14.5 -34.5t-34.5 -14.5t-34.5 14.5
t-14.5 34.5zM201 351q0 20 15 35t37 15q21 0 36 -15t15 -35q0 -21 -15 -36t-36 -15q-22 0 -37 15t-15 36zM304 450q0 20 14.5 34.5t34.5 14.5t34.5 -14.5t14.5 -34.5t-14.5 -34.5t-34.5 -14.5t-34.5 14.5t-14.5 34.5z" />
    <glyph glyph-name="equal" unicode="=" horiz-adv-x="500" 
d="M0 450q0 20 15.5 34.5t37.5 14.5t37.5 -14.5t15.5 -34.5t-15.5 -34.5t-37.5 -14.5t-37.5 14.5t-15.5 34.5zM106 449q0 19 14.5 33t34.5 14t34.5 -14t14.5 -33q0 -20 -14.5 -34t-34.5 -14t-34.5 14t-14.5 34zM201 445q0 21 14.5 35t35.5 14t35.5 -14t14.5 -35
q0 -20 -14.5 -34.5t-35.5 -14.5t-35.5 14.5t-14.5 34.5zM0 248q0 20 15 35t37 15q21 0 36 -15t15 -35q0 -21 -15 -36t-36 -15q-22 0 -37 15t-15 36zM103 249q0 21 14.5 36t34.5 15t34.5 -15t14.5 -36q0 -22 -14.5 -37t-34.5 -15t-34.5 15t-14.5 37zM201 248q0 21 15.5 36.5
t37.5 15.5t37.5 -15.5t15.5 -36.5q0 -22 -15.5 -37.5t-37.5 -15.5t-37.5 15.5t-15.5 37.5zM301 445q0 21 14.5 35t35.5 14t35.5 -14t14.5 -35q0 -20 -14.5 -34.5t-35.5 -14.5t-35.5 14.5t-14.5 34.5zM311 245q0 21 14.5 35.5t35.5 13.5q21 0 35.5 -14t14.5 -35
q0 -20 -14.5 -34.5t-35.5 -14.5t-35.5 14.5t-14.5 34.5z" />
    <glyph glyph-name="greater" unicode="&#x3e;" horiz-adv-x="500" 
d="M0 49q0 20 15.5 34t37.5 14t37.5 -14t15.5 -34q0 -21 -15.5 -35t-37.5 -14t-37.5 14t-15.5 35zM106 149q0 21 14 36t34 15q19 0 33 -15t14 -36q0 -22 -14 -37t-33 -15q-20 0 -34 15t-14 37zM201 249q0 20 15 34.5t37 14.5q21 0 36 -14.5t15 -34.5t-15 -34.5t-36 -14.5
q-22 0 -37 14.5t-15 34.5zM98 351q0 20 14.5 35t34.5 15t34.5 -15t14.5 -35q0 -21 -14.5 -36t-34.5 -15t-34.5 15t-14.5 36zM0 450q0 20 14.5 34.5t34.5 14.5t34.5 -14.5t14.5 -34.5t-14.5 -34.5t-34.5 -14.5t-34.5 14.5t-14.5 34.5zM100 49q0 20 15.5 34t37.5 14t37.5 -14
t15.5 -34q0 -21 -15.5 -35t-37.5 -14t-37.5 14t-15.5 35zM206 149q0 21 14 36t34 15q19 0 33 -15t14 -36q0 -22 -14 -37t-33 -15q-20 0 -34 15t-14 37zM301 249q0 20 15 34.5t37 14.5q21 0 36 -14.5t15 -34.5t-15 -34.5t-36 -14.5q-22 0 -37 14.5t-15 34.5zM198 351
q0 20 14.5 35t34.5 15t34.5 -15t14.5 -35q0 -21 -14.5 -36t-34.5 -15t-34.5 15t-14.5 36zM100 450q0 20 14.5 34.5t34.5 14.5t34.5 -14.5t14.5 -34.5t-14.5 -34.5t-34.5 -14.5t-34.5 14.5t-14.5 34.5z" />
    <glyph glyph-name="question" unicode="?" 
d="M0 548q0 21 15.5 36t37.5 15t37.5 -15t15.5 -36q0 -22 -15.5 -37t-37.5 -15t-37.5 15t-15.5 37zM96 646q0 21 15.5 36t37.5 15t37.5 -15t15.5 -36q0 -22 -15.5 -37t-37.5 -15t-37.5 15t-15.5 37zM202 646q0 21 15 36t36 15t36 -15t15 -36q0 -22 -15 -37t-36 -15t-36 15
t-15 37zM299 549q0 21 15 35.5t36 14.5q20 0 35 -14.5t15 -35.5t-15 -35.5t-35 -14.5q-21 0 -36 14.5t-15 35.5zM299 448q0 21 15 36t36 15q20 0 35 -15t15 -36q0 -22 -15 -37t-35 -15q-21 0 -36 15t-15 37zM202 346q0 20 14 35t35 15q20 0 34 -15t14 -35q0 -21 -14 -36
t-34 -15q-21 0 -35 15t-14 36zM99 346q0 20 15 35t37 15q21 0 36 -15t15 -35q0 -21 -15 -36t-36 -15q-22 0 -37 15t-15 36zM94 245q0 20 16.5 34t40.5 14q23 0 39.5 -14t16.5 -34t-16.5 -34t-39.5 -14q-24 0 -40.5 14t-16.5 34zM101 49q0 20 15 34t36 14q20 0 35 -14t15 -34
q0 -21 -15 -35t-35 -14q-21 0 -36 14t-15 35zM100 548q0 21 15.5 36t37.5 15t37.5 -15t15.5 -36q0 -22 -15.5 -37t-37.5 -15t-37.5 15t-15.5 37zM300 648q0 21 15.5 36t37.5 15t37.5 -15t15.5 -36q0 -22 -15.5 -37t-37.5 -15t-37.5 15t-15.5 37zM400 548q0 21 15.5 36
t37.5 15t37.5 -15t15.5 -36q0 -22 -15.5 -37t-37.5 -15t-37.5 15t-15.5 37zM400 448q0 21 15.5 36t37.5 15t37.5 -15t15.5 -36q0 -22 -15.5 -37t-37.5 -15t-37.5 15t-15.5 37zM300 348q0 21 15.5 36t37.5 15t37.5 -15t15.5 -36q0 -22 -15.5 -37t-37.5 -15t-37.5 15t-15.5 37
zM200 248q0 21 15.5 36t37.5 15t37.5 -15t15.5 -36q0 -22 -15.5 -37t-37.5 -15t-37.5 15t-15.5 37zM200 48q0 21 15.5 36t37.5 15t37.5 -15t15.5 -36q0 -22 -15.5 -37t-37.5 -15t-37.5 15t-15.5 37z" />
    <glyph glyph-name="at" unicode="@" horiz-adv-x="1000" 
d="M101 144q0 20 15 33.5t35 13.5q21 0 35.5 -13.5t14.5 -33.5q0 -19 -14.5 -32.5t-35.5 -13.5q-20 0 -35 13.5t-15 32.5zM101 243q0 19 15 32.5t35 13.5q21 0 35.5 -13.5t14.5 -32.5t-14.5 -33t-35.5 -14q-20 0 -35 14t-15 33zM103 342q0 19 14.5 32.5t35.5 13.5
t35.5 -13.5t14.5 -32.5q0 -20 -14.5 -33.5t-35.5 -13.5t-35.5 13.5t-14.5 33.5zM209 45q0 19 14.5 32t35.5 13q20 0 34.5 -13t14.5 -32t-14.5 -32t-34.5 -13q-21 0 -35.5 13t-14.5 32zM308 47q0 19 14.5 32.5t35.5 13.5q20 0 34.5 -13.5t14.5 -32.5q0 -20 -14.5 -33.5
t-34.5 -13.5q-21 0 -35.5 13.5t-14.5 33.5zM305 243q0 19 14.5 32.5t35.5 13.5q20 0 34.5 -13.5t14.5 -32.5t-14.5 -32.5t-34.5 -13.5q-21 0 -35.5 13.5t-14.5 32.5zM305 340q0 18 14.5 31.5t35.5 13.5q20 0 34.5 -13.5t14.5 -31.5q0 -19 -14.5 -32.5t-34.5 -13.5
q-21 0 -35.5 13.5t-14.5 32.5zM100 444q0 18 15 31.5t36 13.5q20 0 35 -13.5t15 -31.5q0 -19 -15 -32.5t-35 -13.5q-21 0 -36 13.5t-15 32.5zM407 241q0 19 14.5 32.5t35.5 13.5q20 0 34.5 -13.5t14.5 -32.5q0 -20 -14.5 -33.5t-34.5 -13.5q-21 0 -35.5 13.5t-14.5 33.5z
M506 244q0 19 14.5 33t35.5 14t35.5 -14t14.5 -33q0 -20 -14.5 -34t-35.5 -14t-35.5 14t-14.5 34zM611 348zM507 348q0 19 14.5 32.5t34.5 13.5t34.5 -13.5t14.5 -32.5t-14.5 -32.5t-34.5 -13.5t-34.5 13.5t-14.5 32.5zM505 451q0 19 14 33t35 14q20 0 34 -14t14 -33
t-14 -33t-34 -14q-21 0 -35 14t-14 33zM406 451q0 19 14.5 33t35.5 14q20 0 34.5 -14t14.5 -33q0 -20 -14.5 -34t-34.5 -14q-21 0 -35.5 14t-14.5 34zM310 451q0 19 14 33t34 14t34 -14t14 -33q0 -20 -14 -34t-34 -14t-34 14t-14 34zM100 541q0 20 14.5 34t34.5 14t34.5 -14
t14.5 -34t-14.5 -34t-34.5 -14t-34.5 14t-14.5 34zM198 639q0 21 14.5 35.5t35.5 14.5t35.5 -14.5t14.5 -35.5t-14.5 -35.5t-35.5 -14.5t-35.5 14.5t-14.5 35.5zM298 641q0 20 14 34t34 14t34 -14t14 -34t-14 -34t-34 -14t-34 14t-14 34zM394 641q0 19 14.5 33t35.5 14
t35.5 -14t14.5 -33q0 -20 -14.5 -34t-35.5 -14t-35.5 14t-14.5 34zM493 642q0 19 15 32.5t36 13.5q20 0 35 -13.5t15 -32.5q0 -20 -15 -33.5t-35 -13.5q-21 0 -36 13.5t-15 33.5zM614 239q0 20 14 34t33 14t33 -14t14 -34t-14 -34t-33 -14t-33 14t-14 34zM708 350
q0 20 14.5 34.5t34.5 14.5t34.5 -14.5t14.5 -34.5q0 -21 -14.5 -35.5t-34.5 -14.5t-34.5 14.5t-14.5 35.5zM703 449q0 21 15 35.5t37 14.5q21 0 36 -14.5t15 -35.5t-15 -35.5t-36 -14.5q-22 0 -37 14.5t-15 35.5zM705 548q0 18 14.5 31.5t34.5 13.5t34.5 -13.5t14.5 -31.5
q0 -19 -14.5 -32.5t-34.5 -13.5t-34.5 13.5t-14.5 32.5zM595 647q0 19 14.5 32.5t34.5 13.5t34.5 -13.5t14.5 -32.5t-14.5 -32.5t-34.5 -13.5t-34.5 13.5t-14.5 32.5zM417 45q0 18 13.5 31t32.5 13q18 0 31.5 -13t13.5 -31q0 -19 -13.5 -32t-31.5 -13q-19 0 -32.5 13
t-13.5 32zM508 46q0 19 14.5 32.5t34.5 13.5t34.5 -13.5t14.5 -32.5t-14.5 -32.5t-34.5 -13.5t-34.5 13.5t-14.5 32.5zM607 46q0 19 15 32.5t37 13.5t37 -13.5t15 -32.5t-15 -32.5t-37 -13.5t-37 13.5t-15 32.5zM1 144q0 20 15 33.5t35 13.5q21 0 35.5 -13.5t14.5 -33.5
q0 -19 -14.5 -32.5t-35.5 -13.5q-20 0 -35 13.5t-15 32.5zM1 243q0 19 15 32.5t35 13.5q21 0 35.5 -13.5t14.5 -32.5t-14.5 -33t-35.5 -14q-20 0 -35 14t-15 33zM3 342q0 19 14.5 32.5t35.5 13.5t35.5 -13.5t14.5 -32.5q0 -20 -14.5 -33.5t-35.5 -13.5t-35.5 13.5
t-14.5 33.5zM0 444q0 18 15 31.5t36 13.5q20 0 35 -13.5t15 -31.5q0 -19 -15 -32.5t-35 -13.5q-21 0 -36 13.5t-15 32.5zM0 541q0 20 14.5 34t34.5 14t34.5 -14t14.5 -34t-14.5 -34t-34.5 -14t-34.5 14t-14.5 34zM808 350q0 20 14.5 34.5t34.5 14.5t34.5 -14.5t14.5 -34.5
q0 -21 -14.5 -35.5t-34.5 -14.5t-34.5 14.5t-14.5 35.5zM803 449q0 21 15 35.5t37 14.5q21 0 36 -14.5t15 -35.5t-15 -35.5t-36 -14.5q-22 0 -37 14.5t-15 35.5zM803 546q0 19 14.5 32t34.5 13q21 0 35 -13t14 -32t-14 -32.5t-35 -13.5q-20 0 -34.5 13.5t-14.5 32.5z
M703 646q0 19 14.5 32t34.5 13q21 0 35 -13t14 -32t-14 -32.5t-35 -13.5q-20 0 -34.5 13.5t-14.5 32.5zM703 246q0 19 14.5 32t34.5 13q21 0 35 -13t14 -32t-14 -32.5t-35 -13.5q-20 0 -34.5 13.5t-14.5 32.5zM703 46q0 19 14.5 32t34.5 13q21 0 35 -13t14 -32t-14 -32.5
t-35 -13.5q-20 0 -34.5 13.5t-14.5 32.5zM103 646q0 19 14.5 32t34.5 13q21 0 35 -13t14 -32t-14 -32.5t-35 -13.5q-20 0 -34.5 13.5t-14.5 32.5zM103 46q0 19 14.5 32t34.5 13q21 0 35 -13t14 -32t-14 -32.5t-35 -13.5q-20 0 -34.5 13.5t-14.5 32.5z" />
    <glyph glyph-name="A" unicode="A" 
d="M0 49q0 20 15 34.5t36 14.5t36 -14.5t15 -34.5t-15 -34.5t-36 -14.5t-36 14.5t-15 34.5zM0 149q0 20 15 34.5t36 14.5t36 -14.5t15 -34.5q0 -21 -15 -35.5t-36 -14.5t-36 14.5t-15 35.5zM0 247q0 20 15 34t37 14t37 -14t15 -34q0 -21 -15 -35t-37 -14t-37 14t-15 35z
M0 346q0 21 15 36t37 15t37 -15t15 -36t-15 -36t-37 -15t-37 15t-15 36zM0 448q0 21 14.5 36t35.5 15t35.5 -15t14.5 -36t-14.5 -36t-35.5 -15t-35.5 15t-14.5 36zM0 548q0 20 14.5 34.5t35.5 14.5t35.5 -14.5t14.5 -34.5t-14.5 -34.5t-35.5 -14.5t-35.5 14.5t-14.5 34.5z
M108 347q0 20 14 34t33 14t33 -14t14 -34t-14 -34t-33 -14t-33 14t-14 34zM202 350q0 21 14.5 36t35.5 15t35.5 -15t14.5 -36t-14.5 -36t-35.5 -15t-35.5 15t-14.5 36zM302 351q0 20 14.5 35t35.5 15t35.5 -15t14.5 -35q0 -21 -14.5 -36t-35.5 -15t-35.5 15t-14.5 36z
M299 248q0 22 15 37t37 15q21 0 36 -15t15 -37t-15 -37t-36 -15q-22 0 -37 15t-15 37zM299 148q0 20 15 34t37 14t37 -14t15 -34q0 -21 -15 -35t-37 -14t-37 14t-15 35zM299 50q0 20 15 34.5t37 14.5t37 -14.5t15 -34.5q0 -21 -15 -35.5t-37 -14.5t-37 14.5t-15 35.5z
M300 450q0 20 15 34t36 14t36 -14t15 -34q0 -21 -15 -35t-36 -14t-36 14t-15 35zM304 544q0 21 15.5 35.5t36.5 14.5q22 0 37.5 -14.5t15.5 -35.5q0 -20 -15.5 -35t-37.5 -15q-21 0 -36.5 15t-15.5 35zM200 648q0 20 14 34.5t35 14.5q20 0 34 -14.5t14 -34.5
q0 -21 -14 -35.5t-34 -14.5q-21 0 -35 14.5t-14 35.5zM98 648q0 20 15 34.5t36 14.5t36 -14.5t15 -34.5t-15 -34.5t-36 -14.5t-36 14.5t-15 34.5zM304 644q0 21 15.5 35.5t36.5 14.5q22 0 37.5 -14.5t15.5 -35.5q0 -20 -15.5 -35t-37.5 -15q-21 0 -36.5 15t-15.5 35z
M104 544q0 21 15.5 35.5t36.5 14.5q22 0 37.5 -14.5t15.5 -35.5q0 -20 -15.5 -35t-37.5 -15q-21 0 -36.5 15t-15.5 35zM104 444q0 21 15.5 35.5t36.5 14.5q22 0 37.5 -14.5t15.5 -35.5q0 -20 -15.5 -35t-37.5 -15q-21 0 -36.5 15t-15.5 35zM104 244q0 21 15.5 35.5
t36.5 14.5q22 0 37.5 -14.5t15.5 -35.5q0 -20 -15.5 -35t-37.5 -15q-21 0 -36.5 15t-15.5 35zM104 144q0 21 15.5 35.5t36.5 14.5q22 0 37.5 -14.5t15.5 -35.5q0 -20 -15.5 -35t-37.5 -15q-21 0 -36.5 15t-15.5 35zM104 44q0 21 15.5 35.5t36.5 14.5q22 0 37.5 -14.5
t15.5 -35.5q0 -20 -15.5 -35t-37.5 -15q-21 0 -36.5 15t-15.5 35zM404 544q0 21 15.5 35.5t36.5 14.5q22 0 37.5 -14.5t15.5 -35.5q0 -20 -15.5 -35t-37.5 -15q-21 0 -36.5 15t-15.5 35zM404 444q0 21 15.5 35.5t36.5 14.5q22 0 37.5 -14.5t15.5 -35.5q0 -20 -15.5 -35
t-37.5 -15q-21 0 -36.5 15t-15.5 35zM404 344q0 21 15.5 35.5t36.5 14.5q22 0 37.5 -14.5t15.5 -35.5q0 -20 -15.5 -35t-37.5 -15q-21 0 -36.5 15t-15.5 35zM404 244q0 21 15.5 35.5t36.5 14.5q22 0 37.5 -14.5t15.5 -35.5q0 -20 -15.5 -35t-37.5 -15q-21 0 -36.5 15
t-15.5 35zM404 144q0 21 15.5 35.5t36.5 14.5q22 0 37.5 -14.5t15.5 -35.5q0 -20 -15.5 -35t-37.5 -15q-21 0 -36.5 15t-15.5 35zM404 44q0 21 15.5 35.5t36.5 14.5q22 0 37.5 -14.5t15.5 -35.5q0 -20 -15.5 -35t-37.5 -15q-21 0 -36.5 15t-15.5 35z" />
    <glyph glyph-name="B" unicode="B" 
d="M0 49q0 20 15 34t36 14t36 -14t15 -34q0 -21 -15 -35t-36 -14t-36 14t-15 35zM102 49q0 20 14.5 34t35.5 14q20 0 34.5 -14t14.5 -34q0 -21 -14.5 -35t-34.5 -14q-21 0 -35.5 14t-14.5 35zM201 49q0 20 14.5 34.5t35.5 14.5t35.5 -14.5t14.5 -34.5t-14.5 -34.5
t-35.5 -14.5t-35.5 14.5t-14.5 34.5zM302 148q0 20 15 34.5t36 14.5t36 -14.5t15 -34.5q0 -21 -15 -35.5t-36 -14.5t-36 14.5t-15 35.5zM297 248q0 21 15.5 36t38.5 15q22 0 37.5 -15t15.5 -36t-15.5 -36t-37.5 -15q-23 0 -38.5 15t-15.5 36zM200 348q0 20 14 34.5t35 14.5
q20 0 34 -14.5t14 -34.5t-14 -34.5t-34 -14.5q-21 0 -35 14.5t-14 34.5zM101 348q0 20 14.5 34.5t35.5 14.5q20 0 34.5 -14.5t14.5 -34.5q0 -21 -14.5 -35.5t-34.5 -14.5q-21 0 -35.5 14.5t-14.5 35.5zM0 348q0 20 15 34.5t36 14.5q20 0 35 -14.5t15 -34.5q0 -21 -15 -35.5
t-35 -14.5q-21 0 -36 14.5t-15 35.5zM0 447q0 21 15 35.5t37 14.5t37 -14.5t15 -35.5t-15 -35.5t-37 -14.5t-37 14.5t-15 35.5zM0 547q0 21 15 35.5t37 14.5t37 -14.5t15 -35.5t-15 -35.5t-37 -14.5t-37 14.5t-15 35.5zM0 647q0 21 15 35.5t36 14.5q20 0 35 -14.5t15 -35.5
t-15 -35.5t-35 -14.5q-21 0 -36 14.5t-15 35.5zM101 650q0 19 15 33t36 14q20 0 35 -14t15 -33t-15 -33t-35 -14q-21 0 -36 14t-15 33zM202 650q0 19 14.5 33t35.5 14t35.5 -14t14.5 -33t-14.5 -33t-35.5 -14t-35.5 14t-14.5 33zM299 549q0 20 14 34t34 14t34 -14t14 -34
t-14 -34t-34 -14t-34 14t-14 34zM303 448q0 21 14.5 36t35.5 15q20 0 34.5 -15t14.5 -36q0 -22 -14.5 -37t-34.5 -15q-21 0 -35.5 15t-14.5 37zM0 247q0 20 15 34t37 14q21 0 36 -14t15 -34t-15 -34t-36 -14q-22 0 -37 14t-15 34zM0 149q0 21 15 35.5t37 14.5q21 0 36 -14.5
t15 -35.5t-15 -35.5t-36 -14.5q-22 0 -37 14.5t-15 35.5zM109 549q0 20 14 34t34 14t34 -14t14 -34t-14 -34t-34 -14t-34 14t-14 34zM103 448q0 21 14.5 36t35.5 15q20 0 34.5 -15t14.5 -36q0 -22 -14.5 -37t-34.5 -15q-21 0 -35.5 15t-14.5 37zM109 249q0 20 14 34t34 14
t34 -14t14 -34t-14 -34t-34 -14t-34 14t-14 34zM103 148q0 21 14.5 36t35.5 15q20 0 34.5 -15t14.5 -36q0 -22 -14.5 -37t-34.5 -15q-21 0 -35.5 15t-14.5 37zM399 549q0 20 14 34t34 14t34 -14t14 -34t-14 -34t-34 -14t-34 14t-14 34zM403 448q0 21 14.5 36t35.5 15
q20 0 34.5 -15t14.5 -36q0 -22 -14.5 -37t-34.5 -15q-21 0 -35.5 15t-14.5 37zM399 249q0 20 14 34t34 14t34 -14t14 -34t-14 -34t-34 -14t-34 14t-14 34zM403 148q0 21 14.5 36t35.5 15q20 0 34.5 -15t14.5 -36q0 -22 -14.5 -37t-34.5 -15q-21 0 -35.5 15t-14.5 37zM301 49
q0 20 14.5 34.5t35.5 14.5t35.5 -14.5t14.5 -34.5t-14.5 -34.5t-35.5 -14.5t-35.5 14.5t-14.5 34.5zM301 349q0 20 14.5 34.5t35.5 14.5t35.5 -14.5t14.5 -34.5t-14.5 -34.5t-35.5 -14.5t-35.5 14.5t-14.5 34.5zM301 649q0 20 14.5 34.5t35.5 14.5t35.5 -14.5t14.5 -34.5
t-14.5 -34.5t-35.5 -14.5t-35.5 14.5t-14.5 34.5z" />
    <glyph glyph-name="C" unicode="C" 
d="M299 549q0 20 15 34t36 14q20 0 35 -14t15 -34t-15 -34t-35 -14q-21 0 -36 14t-15 34zM200 647q0 21 14.5 35.5t35.5 14.5q20 0 34.5 -14.5t14.5 -35.5t-14.5 -35.5t-34.5 -14.5q-21 0 -35.5 14.5t-14.5 35.5zM100 650q0 19 14.5 33t35.5 14t35.5 -14t14.5 -33
q0 -20 -14.5 -34t-35.5 -14t-35.5 14t-14.5 34zM0 551q0 21 14.5 36t35.5 15t35.5 -15t14.5 -36q0 -22 -14.5 -37t-35.5 -15t-35.5 15t-14.5 37zM0 450q0 20 15 34.5t37 14.5t37 -14.5t15 -34.5t-15 -34.5t-37 -14.5t-37 14.5t-15 34.5zM0 350q0 21 15 36t37 15t37 -15
t15 -36t-15 -36t-37 -15t-37 15t-15 36zM0 250q0 20 15 34.5t37 14.5t37 -14.5t15 -34.5q0 -21 -15 -35.5t-37 -14.5t-37 14.5t-15 35.5zM0 151q0 20 15 34.5t37 14.5t37 -14.5t15 -34.5q0 -21 -15 -35.5t-37 -14.5t-37 14.5t-15 35.5zM96 49q0 20 15.5 34t37.5 14
q21 0 36.5 -14t15.5 -34q0 -21 -15.5 -35t-36.5 -14q-22 0 -37.5 14t-15.5 35zM201 49q0 20 15 34t37 14q21 0 36 -14t15 -34q0 -21 -15 -35t-36 -14q-22 0 -37 14t-15 35zM300 148q0 21 15 36.5t37 15.5q21 0 36 -15.5t15 -36.5q0 -22 -15 -37.5t-36 -15.5q-22 0 -37 15.5
t-15 37.5zM100 551q0 21 14.5 36t35.5 15t35.5 -15t14.5 -36q0 -22 -14.5 -37t-35.5 -15t-35.5 15t-14.5 37zM100 450q0 20 15 34.5t37 14.5t37 -14.5t15 -34.5t-15 -34.5t-37 -14.5t-37 14.5t-15 34.5zM100 350q0 21 15 36t37 15t37 -15t15 -36t-15 -36t-37 -15t-37 15
t-15 36zM100 250q0 20 15 34.5t37 14.5t37 -14.5t15 -34.5q0 -21 -15 -35.5t-37 -14.5t-37 14.5t-15 35.5zM100 151q0 20 15 34.5t37 14.5t37 -14.5t15 -34.5q0 -21 -15 -35.5t-37 -14.5t-37 14.5t-15 35.5zM402 552q0 20 14.5 34t35.5 14t36 -14t15 -34t-15 -34t-36 -14
t-35.5 14t-14.5 34zM399 149q0 20 15 34t36 14q20 0 35 -14t15 -34t-15 -34t-35 -14q-21 0 -36 14t-15 34zM302 652q0 20 14.5 34t35.5 14t36 -14t15 -34t-15 -34t-36 -14t-35.5 14t-14.5 34zM302 52q0 20 14.5 34t35.5 14t36 -14t15 -34t-15 -34t-36 -14t-35.5 14t-14.5 34
z" />
    <glyph glyph-name="D" unicode="D" 
d="M0 649q0 20 15 34t36 14t36 -14t15 -34q0 -21 -15 -35t-36 -14t-36 14t-15 35zM102 649q0 20 14.5 34t35.5 14q20 0 34.5 -14t14.5 -34q0 -21 -14.5 -35t-34.5 -14q-21 0 -35.5 14t-14.5 35zM203 650q0 20 15 34.5t36 14.5t36.5 -14.5t15.5 -34.5q0 -21 -15.5 -35
t-36.5 -14t-36 14t-15 35zM304 550q0 20 14.5 34.5t35.5 14.5q20 0 34.5 -14.5t14.5 -34.5q0 -21 -14.5 -35.5t-34.5 -14.5q-21 0 -35.5 14.5t-14.5 35.5zM300 450q0 21 15 35.5t37 14.5q21 0 36 -14.5t15 -35.5t-15 -35.5t-36 -14.5q-22 0 -37 14.5t-15 35.5zM300 351
q0 20 15 34.5t36 14.5q20 0 35 -14.5t15 -34.5q0 -21 -15 -35.5t-35 -14.5q-21 0 -36 14.5t-15 35.5zM298 251q0 21 15 35.5t37 14.5q21 0 36 -14.5t15 -35.5t-15 -35.5t-36 -14.5q-22 0 -37 14.5t-15 35.5zM298 150q0 21 15 36t37 15q21 0 36 -15t15 -36t-15 -36t-36 -15
q-22 0 -37 15t-15 36zM0 49q0 20 15 34t36 14t36 -14t15 -34q0 -21 -15 -35t-36 -14t-36 14t-15 35zM102 49q0 20 14.5 34t34.5 14t34.5 -14t14.5 -34q0 -21 -14.5 -35t-34.5 -14t-34.5 14t-14.5 35zM198 47q0 20 15 34t36 14t35.5 -14t14.5 -34q0 -21 -14.5 -35t-35.5 -14
t-36 14.5t-15 34.5zM0 151q0 20 15 34t36 14t36 -14t15 -34q0 -21 -15 -35t-36 -14t-36 14t-15 35zM0 249q0 20 15 34.5t36 14.5t36 -14.5t15 -34.5q0 -21 -15 -35.5t-36 -14.5t-36 14.5t-15 35.5zM0 348q0 21 15 35.5t37 14.5q21 0 36 -14.5t15 -35.5t-15 -35.5t-36 -14.5
q-22 0 -37 14.5t-15 35.5zM0 448q0 20 15 34.5t37 14.5q21 0 36 -14.5t15 -34.5q0 -21 -15 -35.5t-36 -14.5q-22 0 -37 14.5t-15 35.5zM0 547q0 20 15 34.5t36 14.5q20 0 35 -14.5t15 -34.5q0 -21 -15 -35.5t-35 -14.5q-21 0 -36 14.5t-15 35.5zM104 550q0 20 14.5 34.5
t35.5 14.5q20 0 34.5 -14.5t14.5 -34.5q0 -21 -14.5 -35.5t-34.5 -14.5q-21 0 -35.5 14.5t-14.5 35.5zM100 450q0 21 15 35.5t37 14.5q21 0 36 -14.5t15 -35.5t-15 -35.5t-36 -14.5q-22 0 -37 14.5t-15 35.5zM100 351q0 20 15 34.5t36 14.5q20 0 35 -14.5t15 -34.5
q0 -21 -15 -35.5t-35 -14.5q-21 0 -36 14.5t-15 35.5zM98 251q0 21 15 35.5t37 14.5q21 0 36 -14.5t15 -35.5t-15 -35.5t-36 -14.5q-22 0 -37 14.5t-15 35.5zM98 150q0 21 15 36t37 15q21 0 36 -15t15 -36t-15 -36t-36 -15q-22 0 -37 15t-15 36zM404 550q0 20 14.5 34.5
t35.5 14.5q20 0 34.5 -14.5t14.5 -34.5q0 -21 -14.5 -35.5t-34.5 -14.5q-21 0 -35.5 14.5t-14.5 35.5zM400 450q0 21 15 35.5t37 14.5q21 0 36 -14.5t15 -35.5t-15 -35.5t-36 -14.5q-22 0 -37 14.5t-15 35.5zM400 351q0 20 15 34.5t36 14.5q20 0 35 -14.5t15 -34.5
q0 -21 -15 -35.5t-35 -14.5q-21 0 -36 14.5t-15 35.5zM398 251q0 21 15 35.5t37 14.5q21 0 36 -14.5t15 -35.5t-15 -35.5t-36 -14.5q-22 0 -37 14.5t-15 35.5zM398 150q0 21 15 36t37 15q21 0 36 -15t15 -36t-15 -36t-36 -15q-22 0 -37 15t-15 36zM298 47q0 20 15 34t36 14
t35.5 -14t14.5 -34q0 -21 -14.5 -35t-35.5 -14t-36 14.5t-15 34.5zM303 650q0 20 15 34.5t36 14.5t36.5 -14.5t15.5 -34.5q0 -21 -15.5 -35t-36.5 -14t-36 14t-15 35z" />
    <glyph glyph-name="E" unicode="E" 
d="M0 648q0 20 15 34.5t36 14.5q20 0 35 -14.5t15 -34.5t-15 -34.5t-35 -14.5q-21 0 -36 14.5t-15 34.5zM101 648q0 20 15 34.5t36 14.5q20 0 35 -14.5t15 -34.5t-15 -34.5t-35 -14.5q-21 0 -36 14.5t-15 34.5zM202 648q0 20 14.5 34.5t35.5 14.5q20 0 34.5 -14.5
t14.5 -34.5t-14.5 -34.5t-34.5 -14.5q-21 0 -35.5 14.5t-14.5 34.5zM301 648q0 20 15 34.5t36 14.5t36 -14.5t15 -34.5t-15 -34.5t-36 -14.5t-36 14.5t-15 34.5zM0 550q0 20 15 34.5t36 14.5t36 -14.5t15 -34.5t-15 -34.5t-36 -14.5t-36 14.5t-15 34.5zM-1 453q0 20 15 34.5
t36 14.5t36 -14.5t15 -34.5q0 -21 -15 -35.5t-36 -14.5t-36 14.5t-15 35.5zM0 353q0 20 14.5 34.5t35.5 14.5t35.5 -14.5t14.5 -34.5q0 -21 -14.5 -35.5t-35.5 -14.5t-35.5 14.5t-14.5 35.5zM0 252q0 21 14.5 36t35.5 15t35.5 -15t14.5 -36q0 -22 -14.5 -37t-35.5 -15
t-35.5 15t-14.5 37zM0 151q0 20 14.5 34.5t35.5 14.5t35.5 -14.5t14.5 -34.5q0 -21 -14.5 -35.5t-35.5 -14.5t-35.5 14.5t-14.5 35.5zM0 51q0 20 14.5 35t35.5 15t35.5 -15t14.5 -35q0 -21 -14.5 -36t-35.5 -15t-35.5 15t-14.5 36zM100 49q0 20 15 34.5t37 14.5
q21 0 36 -14.5t15 -34.5t-15 -34.5t-36 -14.5q-22 0 -37 14.5t-15 34.5zM203 49q0 20 14 34.5t35 14.5q20 0 34 -14.5t14 -34.5t-14 -34.5t-34 -14.5q-21 0 -35 14.5t-14 34.5zM300 50q0 20 15 34.5t37 14.5q21 0 36 -14.5t15 -34.5q0 -21 -15 -35.5t-36 -14.5
q-22 0 -37 14.5t-15 35.5zM99 350q0 22 15 37t37 15t37 -15t15 -37t-15 -37t-37 -15t-37 15t-15 37zM203 349q0 20 14.5 35t35.5 15q20 0 34.5 -15t14.5 -35q0 -21 -14.5 -36t-34.5 -15q-21 0 -35.5 15t-14.5 36zM99 453q0 20 15 34.5t36 14.5t36 -14.5t15 -34.5
q0 -21 -15 -35.5t-36 -14.5t-36 14.5t-15 35.5zM99 553q0 20 15 34.5t36 14.5t36 -14.5t15 -34.5q0 -21 -15 -35.5t-36 -14.5t-36 14.5t-15 35.5zM99 253q0 20 15 34.5t36 14.5t36 -14.5t15 -34.5q0 -21 -15 -35.5t-36 -14.5t-36 14.5t-15 35.5zM99 153q0 20 15 34.5
t36 14.5t36 -14.5t15 -34.5q0 -21 -15 -35.5t-36 -14.5t-36 14.5t-15 35.5zM299 353q0 20 15 34.5t36 14.5t36 -14.5t15 -34.5q0 -21 -15 -35.5t-36 -14.5t-36 14.5t-15 35.5zM399 653q0 20 15 34.5t36 14.5t36 -14.5t15 -34.5q0 -21 -15 -35.5t-36 -14.5t-36 14.5t-15 35.5
zM399 53q0 20 15 34.5t36 14.5t36 -14.5t15 -34.5q0 -21 -15 -35.5t-36 -14.5t-36 14.5t-15 35.5z" />
    <glyph glyph-name="F" unicode="F" 
d="M0 648q0 20 15 34.5t36 14.5t36 -14.5t15 -34.5t-15 -34.5t-36 -14.5t-36 14.5t-15 34.5zM102 648q0 20 14.5 34.5t35.5 14.5t35.5 -14.5t14.5 -34.5t-14.5 -34.5t-35.5 -14.5t-35.5 14.5t-14.5 34.5zM202 648q0 20 14.5 34.5t34.5 14.5t34.5 -14.5t14.5 -34.5
q0 -21 -14.5 -35.5t-34.5 -14.5t-34.5 14.5t-14.5 35.5zM300 648q0 20 15 34.5t36 14.5q20 0 35 -14.5t15 -34.5q0 -21 -15 -35.5t-35 -14.5q-21 0 -36 14.5t-15 35.5zM0 550q0 20 15 34t36 14q20 0 35 -14t15 -34t-15 -34t-35 -14q-21 0 -36 14t-15 34zM0 452q0 20 15 35
t36 15q20 0 35 -15t15 -35q0 -21 -15 -36t-35 -15q-21 0 -36 15t-15 36zM0 352q0 20 15 34.5t36 14.5q20 0 35 -14.5t15 -34.5q0 -21 -15 -35.5t-35 -14.5q-21 0 -36 14.5t-15 35.5zM101 350q0 19 14.5 33t35.5 14t35.5 -14t14.5 -33q0 -20 -14.5 -34t-35.5 -14t-35.5 14
t-14.5 34zM201 349q0 20 15 34t37 14q21 0 36 -14t15 -34q0 -21 -15 -35t-36 -14q-22 0 -37 14t-15 35zM0 248q0 20 15 34.5t36 14.5q20 0 35 -14.5t15 -34.5t-15 -34.5t-35 -14.5q-21 0 -36 14.5t-15 34.5zM0 149q0 21 15 35.5t36 14.5q20 0 35 -14.5t15 -35.5t-15 -35.5
t-35 -14.5q-21 0 -36 14.5t-15 35.5zM0 50q0 20 15 34.5t37 14.5q21 0 36 -14.5t15 -34.5q0 -21 -15 -35.5t-36 -14.5q-22 0 -37 14.5t-15 35.5zM151 199zM97 149q0 21 15 35.5t36 14.5t35.5 -14.5t14.5 -35.5t-14.5 -35.5t-35.5 -14.5t-36 14.5t-15 35.5zM100 50
q0 20 15 34.5t37 14.5q21 0 36 -14.5t15 -34.5q0 -21 -15 -35.5t-36 -14.5q-22 0 -37 14.5t-15 35.5zM151 599zM100 549q0 21 15 35.5t36 14.5q20 0 35 -14.5t15 -35.5t-15 -35.5t-35 -14.5q-21 0 -36 14.5t-15 35.5zM100 450q0 20 15 34.5t37 14.5q21 0 36 -14.5t15 -34.5
q0 -21 -15 -35.5t-36 -14.5q-22 0 -37 14.5t-15 35.5zM97 249q0 21 15 35.5t36 14.5t35.5 -14.5t14.5 -35.5t-14.5 -35.5t-35.5 -14.5t-36 14.5t-15 35.5zM307 349q0 21 15 35.5t36 14.5t35.5 -14.5t14.5 -35.5t-14.5 -35.5t-35.5 -14.5t-36 14.5t-15 35.5zM397 649
q0 21 15 35.5t36 14.5t35.5 -14.5t14.5 -35.5t-14.5 -35.5t-35.5 -14.5t-36 14.5t-15 35.5z" />
    <glyph glyph-name="G" unicode="G" 
d="M100 550q0 20 15 34.5t37 14.5t37 -14.5t15 -34.5t-15 -34.5t-37 -14.5t-37 14.5t-15 34.5zM100 450q0 21 15 36t37 15t37 -15t15 -36t-15 -36t-37 -15t-37 15t-15 36zM100 350q0 20 15 34.5t36 14.5t36 -14.5t15 -34.5q0 -21 -15 -35.5t-36 -14.5t-36 14.5t-15 35.5z
M100 249q0 21 15 36t36 15t36 -15t15 -36t-15 -36t-36 -15t-36 15t-15 36zM100 148q0 21 14.5 35.5t35.5 14.5t35.5 -14.5t14.5 -35.5t-14.5 -35.5t-35.5 -14.5t-35.5 14.5t-14.5 35.5zM200 49q0 20 15 34.5t37 14.5q21 0 36 -14.5t15 -34.5t-15 -34.5t-36 -14.5
q-22 0 -37 14.5t-15 34.5zM303 49q0 20 14 34.5t35 14.5q20 0 34 -14.5t14 -34.5t-14 -34.5t-34 -14.5q-21 0 -35 14.5t-14 34.5zM400 49q0 20 15 34.5t36 14.5q20 0 35 -14.5t15 -34.5t-15 -34.5t-35 -14.5q-21 0 -36 14.5t-15 34.5zM398 148q0 20 15 34.5t36 14.5
q20 0 35 -14.5t15 -34.5t-15 -34.5t-35 -14.5q-21 0 -36 14.5t-15 34.5zM398 247q0 21 15 35.5t37 14.5q21 0 36 -14.5t15 -35.5t-15 -35.5t-36 -14.5q-22 0 -37 14.5t-15 35.5zM398 347q0 21 15 35.5t37 14.5q21 0 36 -14.5t15 -35.5t-15 -35.5t-36 -14.5q-22 0 -37 14.5
t-15 35.5zM298 348q0 20 14.5 34.5t35.5 14.5t35.5 -14.5t14.5 -34.5t-14.5 -34.5t-35.5 -14.5t-35.5 14.5t-14.5 34.5zM196 648q0 20 15 34.5t37 14.5q21 0 36 -14.5t15 -34.5q0 -21 -15 -35.5t-36 -14.5q-22 0 -37 14.5t-15 35.5zM302 649q0 20 14.5 34t35.5 14
q20 0 34.5 -14t14.5 -34t-14.5 -34t-34.5 -14q-21 0 -35.5 14t-14.5 34zM398 552q0 21 15 36t37 15t37 -15t15 -36q0 -22 -15 -37t-37 -15t-37 15t-15 37zM0 550q0 20 15 34.5t37 14.5t37 -14.5t15 -34.5t-15 -34.5t-37 -14.5t-37 14.5t-15 34.5zM0 450q0 21 15 36t37 15
t37 -15t15 -36t-15 -36t-37 -15t-37 15t-15 36zM0 350q0 20 15 34.5t36 14.5t36 -14.5t15 -34.5q0 -21 -15 -35.5t-36 -14.5t-36 14.5t-15 35.5zM0 249q0 21 15 36t36 15t36 -15t15 -36t-15 -36t-36 -15t-36 15t-15 36zM0 148q0 21 14.5 35.5t35.5 14.5t35.5 -14.5
t14.5 -35.5t-14.5 -35.5t-35.5 -14.5t-35.5 14.5t-14.5 35.5zM298 552q0 21 15 36t37 15t37 -15t15 -36q0 -22 -15 -37t-37 -15t-37 15t-15 37zM298 252q0 21 15 36t37 15t37 -15t15 -36q0 -22 -15 -37t-37 -15t-37 15t-15 37zM298 152q0 21 15 36t37 15t37 -15t15 -36
q0 -22 -15 -37t-37 -15t-37 15t-15 37zM98 652q0 21 15 36t37 15t37 -15t15 -36q0 -22 -15 -37t-37 -15t-37 15t-15 37zM98 52q0 21 15 36t37 15t37 -15t15 -36q0 -22 -15 -37t-37 -15t-37 15t-15 37z" />
    <glyph glyph-name="H" unicode="H" 
d="M0 649q0 20 15 34t37 14q21 0 36 -14t15 -34q0 -21 -15 -35t-36 -14q-22 0 -37 14t-15 35zM0 551q0 20 15 34.5t37 14.5q21 0 36 -14.5t15 -34.5q0 -21 -15 -35.5t-36 -14.5q-22 0 -37 14.5t-15 35.5zM0 450q0 21 15 36t36 15q20 0 35 -15t15 -36t-15 -36t-35 -15
q-21 0 -36 15t-15 36zM0 349q0 21 15 35.5t36 14.5q20 0 35 -14.5t15 -35.5t-15 -35.5t-35 -14.5q-21 0 -36 14.5t-15 35.5zM0 250q0 20 15 34.5t36 14.5q20 0 35 -14.5t15 -34.5t-15 -34.5t-35 -14.5q-21 0 -36 14.5t-15 34.5zM0 151q0 21 15 36t36 15q20 0 35 -15t15 -36
t-15 -36t-35 -15q-21 0 -36 15t-15 36zM0 50q0 21 15 35.5t36 14.5t36 -14.5t15 -35.5t-15 -35.5t-36 -14.5t-36 14.5t-15 35.5zM102 349q0 19 14 33t34 14t34.5 -14t14.5 -33q0 -20 -14.5 -34t-34.5 -14t-34 14t-14 34zM201 349q0 19 15 33t37 14q21 0 36 -14t15 -33
q0 -20 -15 -34t-36 -14q-22 0 -37 14t-15 34zM304 348q0 20 14 34t35 14q20 0 34 -14t14 -34q0 -21 -14 -35t-34 -14q-21 0 -35 14t-14 35zM300 250q0 20 15 34.5t36 14.5q20 0 35 -14.5t15 -34.5q0 -21 -15 -35.5t-35 -14.5q-21 0 -36 14.5t-15 35.5zM300 151
q0 20 14.5 34.5t35.5 14.5t35.5 -14.5t14.5 -34.5q0 -21 -14.5 -35.5t-35.5 -14.5t-35.5 14.5t-14.5 35.5zM300 51q0 20 14.5 35t34.5 15q21 0 35.5 -15t14.5 -35q0 -21 -14.5 -36t-35.5 -15q-20 0 -34.5 15t-14.5 36zM299 649q0 20 14.5 34t35.5 14q20 0 34.5 -14t14.5 -34
q0 -21 -14.5 -35t-34.5 -14q-21 0 -35.5 14t-14.5 35zM300 550q0 20 15 35t37 15q21 0 36 -15t15 -35q0 -21 -15 -36t-36 -15q-22 0 -37 15t-15 36zM302 449q0 21 15 35.5t36 14.5q20 0 35 -14.5t15 -35.5t-15 -35.5t-35 -14.5q-21 0 -36 14.5t-15 35.5zM100 649q0 20 15 34
t37 14q21 0 36 -14t15 -34q0 -21 -15 -35t-36 -14q-22 0 -37 14t-15 35zM100 551q0 20 15 34.5t37 14.5q21 0 36 -14.5t15 -34.5q0 -21 -15 -35.5t-36 -14.5q-22 0 -37 14.5t-15 35.5zM100 451q0 21 15 36t36 15q20 0 35 -15t15 -36q0 -22 -15 -36.5t-35 -14.5
q-21 0 -36 14.5t-15 36.5zM102 249q0 19 14 33t34 14t34.5 -14t14.5 -33q0 -20 -14.5 -34t-34.5 -14t-34 14t-14 34zM102 149q0 19 14 33t34 14t34.5 -14t14.5 -33q0 -20 -14.5 -34t-34.5 -14t-34 14t-14 34zM102 49q0 19 14 33t34 14t34.5 -14t14.5 -33q0 -20 -14.5 -34
t-34.5 -14t-34 14t-14 34zM404 349zM404 348q0 20 14 34t35 14q20 0 34 -14t14 -34q0 -21 -14 -35t-34 -14q-21 0 -35 14t-14 35zM400 250q0 20 15 34.5t36 14.5q20 0 35 -14.5t15 -34.5q0 -21 -15 -35.5t-35 -14.5q-21 0 -36 14.5t-15 35.5zM400 151q0 20 14.5 34.5
t35.5 14.5t35.5 -14.5t14.5 -34.5q0 -21 -14.5 -35.5t-35.5 -14.5t-35.5 14.5t-14.5 35.5zM399 649q0 20 14.5 34t35.5 14q20 0 34.5 -14t14.5 -34q0 -21 -14.5 -35t-34.5 -14q-21 0 -35.5 14t-14.5 35zM400 550q0 20 15 35t37 15q21 0 36 -15t15 -35q0 -21 -15 -36t-36 -15
q-22 0 -37 15t-15 36zM402 449q0 21 15 35.5t36 14.5q20 0 35 -14.5t15 -35.5t-15 -35.5t-35 -14.5q-21 0 -36 14.5t-15 35.5zM400 51q0 20 14.5 35t34.5 15q21 0 35.5 -15t14.5 -35q0 -21 -14.5 -36t-35.5 -15q-20 0 -34.5 15t-14.5 36z" />
    <glyph glyph-name="I" unicode="I" horiz-adv-x="500" 
d="M0 649q0 20 15 34t37 14q21 0 36 -14t15 -34t-15 -34t-36 -14q-22 0 -37 14t-15 34zM103 649q0 20 14.5 34t35.5 14t35.5 -14t14.5 -34t-14.5 -34t-35.5 -14t-35.5 14t-14.5 34zM304 649q0 20 14.5 34t35.5 14q20 0 35 -14t15 -34t-15 -34t-35 -14q-21 0 -35.5 14
t-14.5 34zM99 548q0 22 15 37t36 15q20 0 35 -15t15 -37t-15 -37t-35 -15q-21 0 -36 15t-15 37zM99 448q0 20 15.5 34t37.5 14q21 0 36.5 -14t15.5 -34q0 -21 -15.5 -35t-36.5 -14q-22 0 -37.5 14t-15.5 35zM99 350q0 20 15.5 34.5t37.5 14.5q21 0 36.5 -14.5t15.5 -34.5
t-15.5 -34.5t-36.5 -14.5q-22 0 -37.5 14.5t-15.5 34.5zM99 251q0 20 15 35t36 15t36 -15t15 -35q0 -21 -15 -36t-36 -15t-36 15t-15 36zM98 150q0 20 15 35t37 15q21 0 36 -15t15 -35q0 -21 -15 -36t-36 -15q-22 0 -37 15t-15 36zM0 49q0 20 15 34t36 14t36 -14t15 -34
q0 -21 -15 -35t-36 -14t-36 14t-15 35zM102 49q0 20 14.5 34t34.5 14t34.5 -14t14.5 -34q0 -21 -14.5 -35t-34.5 -14t-34.5 14t-14.5 35zM200 48q0 20 15 34t36 14q20 0 35 -14t15 -34t-15 -34t-35 -14q-21 0 -36 14t-15 34zM200 548q0 22 14.5 37t35.5 15t36 -15t15 -37
t-15 -37t-36 -15t-35.5 15t-14.5 37zM199 448q0 20 15.5 34t37.5 14q21 0 36.5 -14t15.5 -34q0 -21 -15.5 -35t-36.5 -14q-22 0 -37.5 14t-15.5 35zM199 350q0 20 15.5 34.5t37.5 14.5q21 0 36.5 -14.5t15.5 -34.5t-15.5 -34.5t-36.5 -14.5q-22 0 -37.5 14.5t-15.5 34.5z
M199 251q0 20 15 35t36 15t36 -15t15 -35q0 -21 -15 -36t-36 -15t-36 15t-15 36zM198 150q0 20 15 35t37 15q21 0 36 -15t15 -35q0 -21 -15 -36t-36 -15q-22 0 -37 15t-15 36zM204 649q0 20 14.5 34t35.5 14q20 0 35 -14t15 -34t-15 -34t-35 -14q-21 0 -35.5 14t-14.5 34z
M304 49q0 20 14.5 34t35.5 14q20 0 35 -14t15 -34t-15 -34t-35 -14q-21 0 -35.5 14t-14.5 34z" />
    <glyph glyph-name="J" unicode="J" 
d="M-97 -50q0 21 14 35.5t34 14.5q21 0 35 -14.5t14 -35.5t-14 -35.5t-35 -14.5q-20 0 -34 14.5t-14 35.5zM0 -150q0 21 15 35t36 14t36 -14t15 -35q0 -20 -15 -34t-36 -14t-36 14t-15 34zM102 -150q0 21 14.5 35t35.5 14q20 0 34.5 -14t14.5 -35q0 -20 -14.5 -34t-34.5 -14
q-21 0 -35.5 14t-14.5 34zM203 -51q0 21 14.5 36t35.5 15t35.5 -15t14.5 -36q0 -20 -14.5 -35t-35.5 -15t-35.5 15t-14.5 35zM196 50q0 20 15.5 34.5t38.5 14.5q22 0 37.5 -14.5t15.5 -34.5q0 -21 -15.5 -35.5t-37.5 -14.5q-23 0 -38.5 14.5t-15.5 35.5zM196 150q0 20 16 35
t38 15t38 -15t16 -35q0 -21 -16 -36t-38 -15t-38 15t-16 36zM196 249q0 20 16 34t38 14t38 -14t16 -34q0 -21 -16 -35t-38 -14t-38 14t-16 35zM196 349q0 21 16 36t39 15t39 -15t16 -36q0 -22 -16 -37t-39 -15t-39 15t-16 37zM196 450q0 20 16 34.5t39 14.5t39 -14.5
t16 -34.5q0 -21 -16 -35.5t-39 -14.5t-39 14.5t-16 35.5zM197 549q0 21 16 35.5t39 14.5q22 0 38 -14.5t16 -35.5t-16 -35.5t-38 -14.5q-23 0 -39 14.5t-16 35.5zM301 648q0 21 14.5 35t35.5 14q20 0 34.5 -14t14.5 -35q0 -20 -14.5 -34.5t-34.5 -14.5q-21 0 -35.5 14.5
t-14.5 34.5zM201 649q0 20 14 34t35 14q20 0 34 -14t14 -34t-14 -34t-34 -14q-21 0 -35 14t-14 34zM98 649q0 20 15 34t37 14q21 0 36 -14t15 -34t-15 -34t-36 -14q-22 0 -37 14t-15 34zM303 -52q0 21 14.5 35.5t35.5 14.5t35.5 -14.5t14.5 -35.5t-14.5 -36t-35.5 -15
t-35.5 15t-14.5 36zM306 50q0 20 15.5 34.5t38.5 14.5q22 0 37.5 -14.5t15.5 -34.5q0 -21 -15.5 -35.5t-37.5 -14.5q-23 0 -38.5 14.5t-15.5 35.5zM306 150q0 20 16 35t38 15t38 -15t16 -35q0 -21 -16 -36t-38 -15t-38 15t-16 36zM306 249q0 20 16 34t38 14t38 -14t16 -34
q0 -21 -16 -35t-38 -14t-38 14t-16 35zM306 349q0 21 16 36t39 15t39 -15t16 -36q0 -22 -16 -37t-39 -15t-39 15t-16 37zM306 450q0 20 16 34.5t39 14.5t39 -14.5t16 -34.5q0 -21 -16 -35.5t-39 -14.5t-39 14.5t-16 35.5zM307 549q0 21 16 35.5t39 14.5q22 0 38 -14.5
t16 -35.5t-16 -35.5t-38 -14.5q-23 0 -39 14.5t-16 35.5zM3 -52q0 21 14.5 35.5t35.5 14.5t35.5 -14.5t14.5 -35.5t-14.5 -36t-35.5 -15t-35.5 15t-14.5 36zM203 -152q0 21 14.5 35.5t35.5 14.5t35.5 -14.5t14.5 -35.5t-14.5 -36t-35.5 -15t-35.5 15t-14.5 36zM403 648
q0 21 14.5 35.5t35.5 14.5t35.5 -14.5t14.5 -35.5t-14.5 -36t-35.5 -15t-35.5 15t-14.5 36z" />
    <glyph glyph-name="K" unicode="K" 
d="M0 649q0 20 15 34t36 14t36 -14t15 -34t-15 -34t-36 -14t-36 14t-15 34zM0 550q0 21 15 36t36 15t36 -15t15 -36t-15 -36t-36 -15t-36 15t-15 36zM0 450q0 20 15 34.5t36 14.5t36 -14.5t15 -34.5t-15 -34.5t-36 -14.5t-36 14.5t-15 34.5zM0 350q0 21 15 36t36 15t36 -15
t15 -36q0 -22 -15 -37t-36 -15t-36 15t-15 37zM0 248q0 21 15 35.5t36 14.5t36 -14.5t15 -35.5t-15 -35.5t-36 -14.5t-36 14.5t-15 35.5zM0 149q0 20 15 34.5t36 14.5t36 -14.5t15 -34.5t-15 -34.5t-36 -14.5t-36 14.5t-15 34.5zM0 50q0 21 15 35.5t37 14.5q21 0 36 -14.5
t15 -35.5t-15 -35.5t-36 -14.5q-22 0 -37 14.5t-15 35.5zM103 350q0 22 14.5 37t35.5 15q20 0 34.5 -15t14.5 -37t-14.5 -37t-34.5 -15q-21 0 -35.5 15t-14.5 37zM202 248q0 20 15 35t36 15q20 0 35 -15t15 -35q0 -21 -15 -36t-35 -15q-21 0 -36 15t-15 36zM303 149
q0 20 15 34t36 14q20 0 35 -14t15 -34q0 -21 -15 -35t-35 -14q-21 0 -36 14t-15 35zM299 50q0 21 15.5 35.5t37.5 14.5q21 0 36.5 -14.5t15.5 -35.5t-15.5 -35.5t-36.5 -14.5q-22 0 -37.5 14.5t-15.5 35.5zM197 450q0 20 15 34.5t37 14.5q21 0 36 -14.5t15 -34.5
q0 -21 -15 -35.5t-36 -14.5q-22 0 -37 14.5t-15 35.5zM300 550q0 20 15 35t36 15t36 -15t15 -35q0 -21 -15 -36t-36 -15t-36 15t-15 36zM300 649q0 20 15 34t36 14t36 -14t15 -34q0 -21 -15 -35t-36 -14t-36 14t-15 35zM300 649q0 20 15 34t36 14t36 -14t15 -34
q0 -21 -15 -35t-36 -14t-36 14t-15 35zM400 550q0 20 15 35t36 15t36 -15t15 -35q0 -21 -15 -36t-36 -15t-36 15t-15 36zM400 649q0 20 15 34t36 14t36 -14t15 -34q0 -21 -15 -35t-36 -14t-36 14t-15 35zM400 649q0 20 15 34t36 14t36 -14t15 -34q0 -21 -15 -35t-36 -14
t-36 14t-15 35zM400 50q0 20 15 35t36 15t36 -15t15 -35q0 -21 -15 -36t-36 -15t-36 15t-15 36zM400 149q0 20 15 34t36 14t36 -14t15 -34q0 -21 -15 -35t-36 -14t-36 14t-15 35zM400 50q0 20 15 35t36 15t36 -15t15 -35h-102zM400 149q0 20 15 34t36 14t36 -14t15 -34
q0 -21 -15 -35t-36 -14t-36 14t-15 35zM100 550q0 20 15 35t36 15t36 -15t15 -35q0 -21 -15 -36t-36 -15t-36 15t-15 36zM100 649q0 20 15 34t36 14t36 -14t15 -34q0 -21 -15 -35t-36 -14t-36 14t-15 35zM100 649q0 20 15 34t36 14t36 -14t15 -34q0 -21 -15 -35t-36 -14
t-36 14t-15 35zM100 150q0 20 15 35t36 15t36 -15t15 -35q0 -21 -15 -36t-36 -15t-36 15t-15 36zM100 249q0 20 15 34t36 14t36 -14t15 -34q0 -21 -15 -35t-36 -14t-36 14t-15 35zM100 150q0 20 15 35t36 15t36 -15t15 -35h-102zM100 249q0 20 15 34t36 14t36 -14t15 -34
q0 -21 -15 -35t-36 -14t-36 14t-15 35zM97 450q0 20 15 34.5t37 14.5q21 0 36 -14.5t15 -34.5q0 -21 -15 -35.5t-36 -14.5q-22 0 -37 14.5t-15 35.5zM97 50q0 20 15 34.5t37 14.5q21 0 36 -14.5t15 -34.5q0 -21 -15 -35.5t-36 -14.5q-22 0 -37 14.5t-15 35.5zM297 450
q0 20 15 34.5t37 14.5q21 0 36 -14.5t15 -34.5q0 -21 -15 -35.5t-36 -14.5q-22 0 -37 14.5t-15 35.5zM307 250q0 20 15 34.5t37 14.5q21 0 36.5 -14.5t14.5 -34.5t-16 -35t-35 -15q-22 0 -37 14.5t-15 35.5zM197 350q0 20 15 34.5t37 14.5q21 0 36 -14.5t15 -34.5
q0 -21 -15 -35.5t-36 -14.5q-22 0 -37 14.5t-15 35.5z" />
    <glyph glyph-name="L" unicode="L" 
d="M0 648q0 20 15 34.5t37 14.5q21 0 36 -14.5t15 -34.5q0 -21 -15 -35.5t-36 -14.5q-22 0 -37 14.5t-15 35.5zM0 548q0 20 15 35t37 15q21 0 36 -15t15 -35q0 -21 -15 -36t-36 -15q-22 0 -37 15t-15 36zM0 449q0 20 15 34t37 14t37 -14t15 -34t-15 -34t-37 -14t-37 14
t-15 34zM0 351q0 20 15 35t37 15t37 -15t15 -35q0 -21 -15 -36t-37 -15t-37 15t-15 36zM0 250q0 21 15 35.5t37 14.5q21 0 36 -14.5t15 -35.5t-15 -35.5t-36 -14.5q-22 0 -37 14.5t-15 35.5zM0 150q0 20 15 35t37 15q21 0 36 -15t15 -35q0 -21 -15 -36t-36 -15q-22 0 -37 15
t-15 36zM0 50q0 20 15 34.5t36 14.5q20 0 35 -14.5t15 -34.5q0 -21 -15 -35.5t-35 -14.5q-21 0 -36 14.5t-15 35.5zM101 49q0 20 15 34t36 14q20 0 35 -14t15 -34q0 -21 -15 -35t-35 -14q-21 0 -36 14t-15 35zM202 49q0 20 14.5 34t35.5 14q20 0 34.5 -14t14.5 -34
q0 -21 -14.5 -35t-34.5 -14q-21 0 -35.5 14t-14.5 35zM301 49q0 20 15 34.5t36 14.5t36 -14.5t15 -34.5t-15 -34.5t-36 -14.5t-36 14.5t-15 34.5zM100 648q0 20 15 34.5t37 14.5q21 0 36 -14.5t15 -34.5q0 -21 -15 -35.5t-36 -14.5q-22 0 -37 14.5t-15 35.5zM100 548
q0 20 15 35t37 15q21 0 36 -15t15 -35q0 -21 -15 -36t-36 -15q-22 0 -37 15t-15 36zM100 449q0 20 15 34t37 14t37 -14t15 -34t-15 -34t-37 -14t-37 14t-15 34zM100 351q0 20 15 35t37 15t37 -15t15 -35q0 -21 -15 -36t-37 -15t-37 15t-15 36zM100 250q0 21 15 35.5t37 14.5
q21 0 36 -14.5t15 -35.5t-15 -35.5t-36 -14.5q-22 0 -37 14.5t-15 35.5zM104 149q0 20 15 35t36 15t36.5 -15t15.5 -35q0 -21 -15.5 -36t-36.5 -15t-36 15t-15 36zM404 49q0 20 15 35t36 15t36.5 -15t15.5 -35q0 -21 -15.5 -36t-36.5 -15t-36 15t-15 36z" />
    <glyph glyph-name="M" unicode="M" horiz-adv-x="700" 
d="M0 649q0 20 15 34t37 14q21 0 36 -14t15 -34q0 -21 -15 -35t-36 -14q-22 0 -37 14t-15 35zM0 550q0 20 15 35t37 15q21 0 36 -15t15 -35q0 -21 -15 -36t-36 -15q-22 0 -37 15t-15 36zM0 449q0 21 15 35.5t36 14.5t36 -14.5t15 -35.5t-15 -35.5t-36 -14.5t-36 14.5
t-15 35.5zM0 349q0 21 15 35.5t36 14.5t36 -14.5t15 -35.5t-15 -35.5t-36 -14.5t-36 14.5t-15 35.5zM0 249q0 20 15 35t36 15t36 -15t15 -35q0 -21 -15 -36t-36 -15t-36 15t-15 36zM0 148q0 21 15 35.5t36 14.5t36 -14.5t15 -35.5t-15 -35.5t-36 -14.5t-36 14.5t-15 35.5z
M0 49q0 20 15 34.5t36 14.5q20 0 35 -14.5t15 -34.5t-15 -34.5t-35 -14.5q-21 0 -36 14.5t-15 34.5zM101 549q0 20 14.5 35t35.5 15t35.5 -15t14.5 -35q0 -21 -14.5 -36t-35.5 -15t-35.5 15t-14.5 36zM201 448q0 21 15 35.5t36 14.5q20 0 35 -14.5t15 -35.5t-15 -35.5
t-35 -14.5q-21 0 -36 14.5t-15 35.5zM302 547q0 21 14.5 35.5t35.5 14.5q20 0 34.5 -14.5t14.5 -35.5t-14.5 -35.5t-34.5 -14.5q-21 0 -35.5 14.5t-14.5 35.5zM401 647q0 21 15 35.5t37 14.5q21 0 36 -14.5t15 -35.5t-15 -35.5t-36 -14.5q-22 0 -37 14.5t-15 35.5zM402 545
q0 19 15 32.5t36 13.5t36 -13.5t15 -32.5t-15 -32.5t-36 -13.5t-36 13.5t-15 32.5zM398 449q0 21 15.5 35.5t37.5 14.5t37.5 -14.5t15.5 -35.5t-15.5 -35.5t-37.5 -14.5t-37.5 14.5t-15.5 35.5zM398 349q0 21 15 35.5t36 14.5t36 -14.5t15 -35.5t-15 -35.5t-36 -14.5
t-36 14.5t-15 35.5zM399 250q0 20 15 34.5t36 14.5q20 0 35 -14.5t15 -34.5q0 -21 -15 -35.5t-35 -14.5q-21 0 -36 14.5t-15 35.5zM399 149q0 21 15 36t37 15q21 0 36 -15t15 -36q0 -22 -15 -37t-36 -15q-22 0 -37 15t-15 37zM401 49q0 20 15 34t36 14q20 0 35 -14t15 -34
q0 -21 -15 -35t-35 -14q-21 0 -36 14t-15 35zM201 548q0 21 15 35.5t36 14.5q20 0 35 -14.5t15 -35.5t-15 -35.5t-35 -14.5q-21 0 -36 14.5t-15 35.5zM101 648q0 21 15 35.5t36 14.5q20 0 35 -14.5t15 -35.5t-15 -35.5t-35 -14.5q-21 0 -36 14.5t-15 35.5zM101 448
q0 21 15 35.5t36 14.5q20 0 35 -14.5t15 -35.5t-15 -35.5t-35 -14.5q-21 0 -36 14.5t-15 35.5zM101 348q0 21 15 35.5t36 14.5q20 0 35 -14.5t15 -35.5t-15 -35.5t-35 -14.5q-21 0 -36 14.5t-15 35.5zM101 248q0 21 15 35.5t36 14.5q20 0 35 -14.5t15 -35.5t-15 -35.5
t-35 -14.5q-21 0 -36 14.5t-15 35.5zM101 148q0 21 15 35.5t36 14.5q20 0 35 -14.5t15 -35.5t-15 -35.5t-35 -14.5q-21 0 -36 14.5t-15 35.5zM101 48q0 21 15 35.5t36 14.5q20 0 35 -14.5t15 -35.5t-15 -35.5t-35 -14.5q-21 0 -36 14.5t-15 35.5zM501 648q0 21 15 35.5
t36 14.5q20 0 35 -14.5t15 -35.5t-15 -35.5t-35 -14.5q-21 0 -36 14.5t-15 35.5zM501 548q0 21 15 35.5t36 14.5q20 0 35 -14.5t15 -35.5t-15 -35.5t-35 -14.5q-21 0 -36 14.5t-15 35.5zM501 448q0 21 15 35.5t36 14.5q20 0 35 -14.5t15 -35.5t-15 -35.5t-35 -14.5
q-21 0 -36 14.5t-15 35.5zM501 348q0 21 15 35.5t36 14.5q20 0 35 -14.5t15 -35.5t-15 -35.5t-35 -14.5q-21 0 -36 14.5t-15 35.5zM501 248q0 21 15 35.5t36 14.5q20 0 35 -14.5t15 -35.5t-15 -35.5t-35 -14.5q-21 0 -36 14.5t-15 35.5zM501 148q0 21 15 35.5t36 14.5
q20 0 35 -14.5t15 -35.5t-15 -35.5t-35 -14.5q-21 0 -36 14.5t-15 35.5zM501 48q0 21 15 35.5t36 14.5q20 0 35 -14.5t15 -35.5t-15 -35.5t-35 -14.5q-21 0 -36 14.5t-15 35.5zM301 448q0 21 15 35.5t36 14.5q20 0 35 -14.5t15 -35.5t-15 -35.5t-35 -14.5q-21 0 -36 14.5
t-15 35.5z" />
    <glyph glyph-name="N" unicode="N" horiz-adv-x="700" 
d="M0 649q0 20 15 34t37 14t37 -14t15 -34q0 -21 -15 -35t-37 -14t-37 14t-15 35zM0 550q0 20 15 35t37 15t37 -15t15 -35q0 -21 -15 -36t-37 -15t-37 15t-15 36zM0 450q0 20 15 34.5t37 14.5q21 0 36 -14.5t15 -34.5q0 -21 -15 -35.5t-36 -14.5q-22 0 -37 14.5t-15 35.5z
M0 349q0 21 15 36t37 15q21 0 36 -15t15 -36t-15 -36t-36 -15q-22 0 -37 15t-15 36zM0 249q0 21 15 35.5t36 14.5t36 -14.5t15 -35.5t-15 -35.5t-36 -14.5t-36 14.5t-15 35.5zM0 149q0 21 15 35.5t36 14.5t36 -14.5t15 -35.5t-15 -35.5t-36 -14.5t-36 14.5t-15 35.5zM0 50
q0 20 15 34.5t36 14.5q20 0 35 -14.5t15 -34.5q0 -21 -15 -35.5t-35 -14.5q-21 0 -36 14.5t-15 35.5zM107 548q0 19 14 33t33 14t33 -14t14 -33q0 -20 -14 -34t-33 -14t-33 14t-14 34zM104 449q0 21 14 36t35 15q20 0 34 -15t14 -36t-14 -36t-34 -15q-21 0 -35 15t-14 36z
M200 351q0 21 15 36t36 15q20 0 35 -15t15 -36t-15 -36t-35 -15q-21 0 -36 15t-15 36zM300 250q0 21 14.5 35.5t35.5 14.5t35.5 -14.5t14.5 -35.5t-14.5 -35.5t-35.5 -14.5t-35.5 14.5t-14.5 35.5zM301 150q0 21 14.5 35.5t35.5 14.5q20 0 34.5 -14.5t14.5 -35.5
t-14.5 -35.5t-34.5 -14.5q-21 0 -35.5 14.5t-14.5 35.5zM401 49q0 20 15 34.5t36 14.5t36 -14.5t15 -34.5t-15 -34.5t-36 -14.5t-36 14.5t-15 34.5zM401 149q0 20 15 35t36 15t36 -15t15 -35q0 -21 -15 -36t-36 -15t-36 15t-15 36zM401 249q0 21 15 35.5t37 14.5
q21 0 36 -14.5t15 -35.5t-15 -35.5t-36 -14.5q-22 0 -37 14.5t-15 35.5zM400 350q0 21 15 36t37 15t37 -15t15 -36t-15 -36t-37 -15t-37 15t-15 36zM400 450q0 20 15 34.5t37 14.5q21 0 36 -14.5t15 -34.5t-15 -34.5t-36 -14.5q-22 0 -37 14.5t-15 34.5zM401 549
q0 21 15 35.5t36 14.5t36 -14.5t15 -35.5t-15 -35.5t-36 -14.5t-36 14.5t-15 35.5zM401 648q0 20 15 34.5t37 14.5q21 0 36 -14.5t15 -34.5t-15 -34.5t-36 -14.5q-22 0 -37 14.5t-15 34.5zM100 351q0 21 15 36t36 15q20 0 35 -15t15 -36t-15 -36t-35 -15q-21 0 -36 15
t-15 36zM100 251q0 21 15 36t36 15q20 0 35 -15t15 -36t-15 -36t-35 -15q-21 0 -36 15t-15 36zM100 151q0 21 15 36t36 15q20 0 35 -15t15 -36t-15 -36t-35 -15q-21 0 -36 15t-15 36zM100 51q0 21 15 36t36 15q20 0 35 -15t15 -36t-15 -36t-35 -15q-21 0 -36 15t-15 36z
M100 651q0 21 15 36t36 15q20 0 35 -15t15 -36t-15 -36t-35 -15q-21 0 -36 15t-15 36zM200 451q0 21 15 36t36 15q20 0 35 -15t15 -36t-15 -36t-35 -15q-21 0 -36 15t-15 36zM500 351q0 21 15 36t36 15q20 0 35 -15t15 -36t-15 -36t-35 -15q-21 0 -36 15t-15 36zM500 451
q0 21 15 36t36 15q20 0 35 -15t15 -36t-15 -36t-35 -15q-21 0 -36 15t-15 36zM500 551q0 21 15 36t36 15q20 0 35 -15t15 -36t-15 -36t-35 -15q-21 0 -36 15t-15 36zM500 651q0 21 15 36t36 15q20 0 35 -15t15 -36t-15 -36t-35 -15q-21 0 -36 15t-15 36zM500 251q0 21 15 36
t36 15q20 0 35 -15t15 -36t-15 -36t-35 -15q-21 0 -36 15t-15 36zM500 151q0 21 15 36t36 15q20 0 35 -15t15 -36t-15 -36t-35 -15q-21 0 -36 15t-15 36zM500 51q0 21 15 36t36 15q20 0 35 -15t15 -36t-15 -36t-35 -15q-21 0 -36 15t-15 36z" />
    <glyph glyph-name="O" unicode="O" 
d="M0 548q0 19 15 33t36 14q20 0 35 -14t15 -33q0 -20 -15 -34t-35 -14q-21 0 -36 14t-15 34zM0 450q0 20 15 35t36 15q20 0 35 -15t15 -35q0 -21 -15 -36t-35 -15q-21 0 -36 15t-15 36zM0 349q0 21 15 35.5t36 14.5t36 -14.5t15 -35.5t-15 -35.5t-36 -14.5t-36 14.5
t-15 35.5zM0 249q0 21 15 35.5t36 14.5t36 -14.5t15 -35.5t-15 -35.5t-36 -14.5t-36 14.5t-15 35.5zM0 149q0 20 15 35t36 15q20 0 35 -15t15 -35q0 -21 -15 -36t-35 -15q-21 0 -36 15t-15 36zM101 49q0 20 15 34.5t36 14.5q20 0 35 -14.5t15 -34.5t-15 -34.5t-35 -14.5
q-21 0 -36 14.5t-15 34.5zM202 49q0 20 14.5 34t35.5 14q20 0 34.5 -14t14.5 -34q0 -21 -14.5 -35t-34.5 -14q-21 0 -35.5 14t-14.5 35zM301 147q0 21 15 35.5t36 14.5q20 0 35 -14.5t15 -35.5t-15 -35.5t-35 -14.5q-21 0 -36 14.5t-15 35.5zM297 248q0 21 15.5 36t37.5 15
q21 0 36.5 -15t15.5 -36t-15.5 -36t-36.5 -15q-22 0 -37.5 15t-15.5 36zM297 348q0 20 15.5 34.5t37.5 14.5t37.5 -14.5t15.5 -34.5t-15.5 -34.5t-37.5 -14.5t-37.5 14.5t-15.5 34.5zM299 448q0 20 15 35t37 15t37 -15t15 -35q0 -21 -15 -36t-37 -15t-37 15t-15 36zM299 547
q0 20 15 34.5t37 14.5t37 -14.5t15 -34.5t-15 -34.5t-37 -14.5t-37 14.5t-15 34.5zM199 648q0 20 14.5 34.5t35.5 14.5t36 -14.5t15 -34.5q0 -21 -15 -35.5t-36 -14.5t-35.5 14.5t-14.5 35.5zM98 648q0 20 15 34.5t36 14.5t36 -14.5t15 -34.5q0 -21 -15 -35.5t-36 -14.5
t-36 14.5t-15 35.5zM100 548q0 19 15 33t36 14q20 0 35 -14t15 -33q0 -20 -15 -34t-35 -14q-21 0 -36 14t-15 34zM100 450q0 20 15 35t36 15q20 0 35 -15t15 -35q0 -21 -15 -36t-35 -15q-21 0 -36 15t-15 36zM100 349q0 21 15 35.5t36 14.5t36 -14.5t15 -35.5t-15 -35.5
t-36 -14.5t-36 14.5t-15 35.5zM100 249q0 21 15 35.5t36 14.5t36 -14.5t15 -35.5t-15 -35.5t-36 -14.5t-36 14.5t-15 35.5zM100 149q0 20 15 35t36 15q20 0 35 -15t15 -35q0 -21 -15 -36t-35 -15q-21 0 -36 15t-15 36zM400 548q0 19 15 33t36 14q20 0 35 -14t15 -33
q0 -20 -15 -34t-35 -14q-21 0 -36 14t-15 34zM400 450q0 20 15 35t36 15q20 0 35 -15t15 -35q0 -21 -15 -36t-35 -15q-21 0 -36 15t-15 36zM400 349q0 21 15 35.5t36 14.5t36 -14.5t15 -35.5t-15 -35.5t-36 -14.5t-36 14.5t-15 35.5zM400 249q0 21 15 35.5t36 14.5t36 -14.5
t15 -35.5t-15 -35.5t-36 -14.5t-36 14.5t-15 35.5zM400 149q0 20 15 35t36 15q20 0 35 -15t15 -35q0 -21 -15 -36t-35 -15q-21 0 -36 15t-15 36zM299 648q0 20 14.5 34.5t35.5 14.5t36 -14.5t15 -34.5q0 -21 -15 -35.5t-36 -14.5t-35.5 14.5t-14.5 35.5zM299 48
q0 20 14.5 34.5t35.5 14.5t36 -14.5t15 -34.5q0 -21 -15 -35.5t-36 -14.5t-35.5 14.5t-14.5 35.5z" />
    <glyph glyph-name="P" unicode="P" 
d="M0 49q0 20 15 34t37 14t37 -14t15 -34q0 -21 -15 -35t-37 -14t-37 14t-15 35zM0 147q0 20 15 34.5t37 14.5t37 -14.5t15 -34.5q0 -21 -15 -35.5t-37 -14.5t-37 14.5t-15 35.5zM0 247q0 21 15 36t37 15q21 0 36 -15t15 -36t-15 -36t-36 -15q-22 0 -37 15t-15 36zM0 348
q0 21 15 35.5t37 14.5q21 0 36 -14.5t15 -35.5t-15 -35.5t-36 -14.5q-22 0 -37 14.5t-15 35.5zM0 447q0 20 15 34.5t37 14.5t37 -14.5t15 -34.5t-15 -34.5t-37 -14.5t-37 14.5t-15 34.5zM0 548q0 21 15 36t37 15t37 -15t15 -36q0 -22 -15 -37t-37 -15t-37 15t-15 37zM0 648
q0 20 15 34.5t36 14.5q20 0 35 -14.5t15 -34.5t-15 -34.5t-35 -14.5q-21 0 -36 14.5t-15 34.5zM101 649q0 20 14.5 34t35.5 14t35.5 -14t14.5 -34q0 -21 -14.5 -35t-35.5 -14t-35.5 14t-14.5 35zM201 649q0 20 14.5 34t35.5 14t35.5 -14t14.5 -34q0 -21 -14.5 -35t-35.5 -14
t-35.5 14t-14.5 35zM300 551q0 21 14.5 36.5t35.5 15.5t35.5 -15.5t14.5 -36.5q0 -22 -14.5 -37.5t-35.5 -15.5t-35.5 15.5t-14.5 37.5zM299 448q0 21 15 35.5t36 14.5q20 0 35 -14.5t15 -35.5t-15 -35.5t-35 -14.5q-21 0 -36 14.5t-15 35.5zM202 349q0 20 14 34.5t35 14.5
q20 0 34 -14.5t14 -34.5q0 -21 -14 -35.5t-34 -14.5q-21 0 -35 14.5t-14 35.5zM102 347q0 20 14.5 34t35.5 14t35.5 -14t14.5 -34t-14.5 -34t-35.5 -14t-35.5 14t-14.5 34zM100 551q0 21 14.5 36.5t35.5 15.5t35.5 -15.5t14.5 -36.5q0 -22 -14.5 -37.5t-35.5 -15.5
t-35.5 15.5t-14.5 37.5zM99 448q0 21 15 35.5t36 14.5q20 0 35 -14.5t15 -35.5t-15 -35.5t-35 -14.5q-21 0 -36 14.5t-15 35.5zM100 251q0 21 14.5 36.5t35.5 15.5t35.5 -15.5t14.5 -36.5q0 -22 -14.5 -37.5t-35.5 -15.5t-35.5 15.5t-14.5 37.5zM108 149q0 21 14.5 35.5
t35.5 14.5t36 -14.5t15 -35.5q0 -20 -15 -35t-36 -15t-35.5 15t-14.5 35zM108 49q0 21 14.5 35.5t35.5 14.5t36 -14.5t15 -35.5q0 -20 -15 -35t-36 -15t-35.5 15t-14.5 35zM298 349q0 21 14.5 35.5t35.5 14.5t36 -14.5t15 -35.5q0 -20 -15 -35t-36 -15t-35.5 15t-14.5 35z
M298 649q0 21 14.5 35.5t35.5 14.5t36 -14.5t15 -35.5q0 -20 -15 -35t-36 -15t-35.5 15t-14.5 35zM398 449q0 21 14.5 35.5t35.5 14.5t36 -14.5t15 -35.5q0 -20 -15 -35t-36 -15t-35.5 15t-14.5 35zM398 549q0 21 14.5 35.5t35.5 14.5t36 -14.5t15 -35.5q0 -20 -15 -35
t-36 -15t-35.5 15t-14.5 35z" />
    <glyph glyph-name="Q" unicode="Q" 
d="M0 547q0 20 15 34t37 14t37 -14t15 -34t-15 -34t-37 -14t-37 14t-15 34zM0 449q0 20 15 35t37 15t37 -15t15 -35q0 -21 -15 -36t-37 -15t-37 15t-15 36zM0 349q0 20 15 34.5t37 14.5q21 0 36 -14.5t15 -34.5q0 -21 -15 -35.5t-36 -14.5q-22 0 -37 14.5t-15 35.5zM0 248
q0 21 15 36t37 15q21 0 36 -15t15 -36t-15 -36t-36 -15q-22 0 -37 15t-15 36zM0 148q0 20 15 34.5t36 14.5t36 -14.5t15 -34.5q0 -21 -15 -35.5t-36 -14.5t-36 14.5t-15 35.5zM102 49q0 20 14.5 34.5t35.5 14.5q20 0 34.5 -14.5t14.5 -34.5t-14.5 -34.5t-34.5 -14.5
q-21 0 -35.5 14.5t-14.5 34.5zM201 49q0 20 15 34.5t37 14.5q21 0 36 -14.5t15 -34.5t-15 -34.5t-36 -14.5q-22 0 -37 14.5t-15 34.5zM304 147q0 20 14.5 34t35.5 14q20 0 34.5 -14t14.5 -34q0 -21 -14.5 -35t-34.5 -14q-21 0 -35.5 14t-14.5 35zM298 246q0 21 15.5 36
t37.5 15q21 0 36.5 -15t15.5 -36t-15.5 -36t-36.5 -15q-22 0 -37.5 15t-15.5 36zM298 347q0 20 15.5 34.5t37.5 14.5t37.5 -14.5t15.5 -34.5q0 -21 -15.5 -35.5t-37.5 -14.5t-37.5 14.5t-15.5 35.5zM297 446q0 21 15.5 35.5t38.5 14.5q22 0 37.5 -14.5t15.5 -35.5
t-15.5 -35.5t-37.5 -14.5q-23 0 -38.5 14.5t-15.5 35.5zM297 547q0 21 15.5 36t37.5 15q21 0 36.5 -15t15.5 -36t-15.5 -36t-36.5 -15q-22 0 -37.5 15t-15.5 36zM202 648q0 20 14 34.5t33 14.5t33 -14.5t14 -34.5q0 -21 -14 -35.5t-33 -14.5t-33 14.5t-14 35.5zM99 649
q0 20 15 34t37 14q21 0 36 -14t15 -34t-15 -34t-36 -14q-22 0 -37 14t-15 34zM299 -50q0 21 15 35.5t37 14.5q21 0 36 -14.5t15 -35.5t-15 -35.5t-36 -14.5q-22 0 -37 14.5t-15 35.5zM100 547q0 20 15 34t37 14t37 -14t15 -34t-15 -34t-37 -14t-37 14t-15 34zM100 449
q0 20 15 35t37 15t37 -15t15 -35q0 -21 -15 -36t-37 -15t-37 15t-15 36zM100 349q0 20 15 34.5t37 14.5q21 0 36 -14.5t15 -34.5q0 -21 -15 -35.5t-36 -14.5q-22 0 -37 14.5t-15 35.5zM100 248q0 21 15 36t37 15q21 0 36 -15t15 -36t-15 -36t-36 -15q-22 0 -37 15t-15 36z
M100 148q0 20 15 34.5t36 14.5t36 -14.5t15 -34.5q0 -21 -15 -35.5t-36 -14.5t-36 14.5t-15 35.5zM400 547q0 20 15 34t37 14t37 -14t15 -34t-15 -34t-37 -14t-37 14t-15 34zM400 449q0 20 15 35t37 15t37 -15t15 -35q0 -21 -15 -36t-37 -15t-37 15t-15 36zM400 349
q0 20 15 34.5t37 14.5q21 0 36 -14.5t15 -34.5q0 -21 -15 -35.5t-36 -14.5q-22 0 -37 14.5t-15 35.5zM400 248q0 21 15 36t37 15q21 0 36 -15t15 -36t-15 -36t-36 -15q-22 0 -37 15t-15 36zM400 148q0 20 15 34.5t36 14.5t36 -14.5t15 -34.5q0 -21 -15 -35.5t-36 -14.5
t-36 14.5t-15 35.5zM399 -50q0 21 15 35.5t37 14.5q21 0 36 -14.5t15 -35.5t-15 -35.5t-36 -14.5q-22 0 -37 14.5t-15 35.5zM299 50q0 21 15 35.5t37 14.5q21 0 36 -14.5t15 -35.5t-15 -35.5t-36 -14.5q-22 0 -37 14.5t-15 35.5zM299 650q0 21 15 35.5t37 14.5
q21 0 36 -14.5t15 -35.5t-15 -35.5t-36 -14.5q-22 0 -37 14.5t-15 35.5z" />
    <glyph glyph-name="R" unicode="R" 
d="M0 648q0 20 15 34.5t37 14.5q21 0 36 -14.5t15 -34.5t-15 -34.5t-36 -14.5q-22 0 -37 14.5t-15 34.5zM103 648q0 20 14.5 34.5t34.5 14.5t34.5 -14.5t14.5 -34.5t-14.5 -34.5t-34.5 -14.5t-34.5 14.5t-14.5 34.5zM201 649q0 20 15 34t36 14q20 0 35 -14t15 -34
q0 -21 -15 -35t-35 -14q-21 0 -36 14t-15 35zM302 550q0 20 15 35t36 15q20 0 35 -15t15 -35q0 -21 -15 -36t-35 -15q-21 0 -36 15t-15 36zM299 449q0 21 15 35.5t37 14.5t37 -14.5t15 -35.5t-15 -35.5t-37 -14.5t-37 14.5t-15 35.5zM200 349q0 20 14.5 35t35.5 15
q20 0 34.5 -15t14.5 -35q0 -21 -14.5 -36t-34.5 -15q-21 0 -35.5 15t-14.5 36zM101 348q0 21 14.5 35.5t35.5 14.5q20 0 34.5 -14.5t14.5 -35.5t-14.5 -35.5t-34.5 -14.5q-21 0 -35.5 14.5t-14.5 35.5zM0 49q0 20 15 34.5t37 14.5t37 -14.5t15 -34.5t-15 -34.5t-37 -14.5
t-37 14.5t-15 34.5zM0 148q0 20 15 34.5t37 14.5t37 -14.5t15 -34.5q0 -21 -15 -35.5t-37 -14.5t-37 14.5t-15 35.5zM0 247q0 21 15.5 35.5t37.5 14.5t37.5 -14.5t15.5 -35.5t-15.5 -35.5t-37.5 -14.5t-37.5 14.5t-15.5 35.5zM0 347q0 20 15.5 34.5t37.5 14.5t37.5 -14.5
t15.5 -34.5q0 -21 -15.5 -35.5t-37.5 -14.5t-37.5 14.5t-15.5 35.5zM0 447q0 21 15 36t37 15t37 -15t15 -36t-15 -36t-37 -15t-37 15t-15 36zM0 547q0 20 15 34.5t37 14.5t37 -14.5t15 -34.5t-15 -34.5t-37 -14.5t-37 14.5t-15 34.5zM302 250q0 20 14.5 35t35.5 15
q20 0 34.5 -15t14.5 -35q0 -21 -14.5 -36t-34.5 -15q-21 0 -35.5 15t-14.5 36zM300 150q0 20 15 34.5t36 14.5q20 0 35 -14.5t15 -34.5q0 -21 -15 -35.5t-35 -14.5q-21 0 -36 14.5t-15 35.5zM300 50q0 21 15 35.5t36 14.5q20 0 35 -14.5t15 -35.5t-15 -35.5t-35 -14.5
q-21 0 -36 14.5t-15 35.5zM102 550q0 20 15 35t36 15q20 0 35 -15t15 -35q0 -21 -15 -36t-35 -15q-21 0 -36 15t-15 36zM99 449q0 21 15 35.5t37 14.5t37 -14.5t15 -35.5t-15 -35.5t-37 -14.5t-37 14.5t-15 35.5zM402 550q0 20 15 35t36 15q20 0 35 -15t15 -35
q0 -21 -15 -36t-35 -15q-21 0 -36 15t-15 36zM399 449q0 21 15 35.5t37 14.5t37 -14.5t15 -35.5t-15 -35.5t-37 -14.5t-37 14.5t-15 35.5zM102 250q0 20 15 35t36 15q20 0 35 -15t15 -35q0 -21 -15 -36t-35 -15q-21 0 -36 15t-15 36zM99 149q0 21 15 35.5t37 14.5t37 -14.5
t15 -35.5t-15 -35.5t-37 -14.5t-37 14.5t-15 35.5zM402 250q0 20 15 35t36 15q20 0 35 -15t15 -35q0 -21 -15 -36t-35 -15q-21 0 -36 15t-15 36zM399 149q0 21 15 35.5t37 14.5t37 -14.5t15 -35.5t-15 -35.5t-37 -14.5t-37 14.5t-15 35.5zM100 50q0 21 15 35.5t36 14.5
q20 0 35 -14.5t15 -35.5t-15 -35.5t-35 -14.5q-21 0 -36 14.5t-15 35.5zM400 50q0 21 15 35.5t36 14.5q20 0 35 -14.5t15 -35.5t-15 -35.5t-35 -14.5q-21 0 -36 14.5t-15 35.5zM300 350q0 21 15 35.5t36 14.5q20 0 35 -14.5t15 -35.5t-15 -35.5t-35 -14.5q-21 0 -36 14.5
t-15 35.5zM300 650q0 21 15 35.5t36 14.5q20 0 35 -14.5t15 -35.5t-15 -35.5t-35 -14.5q-21 0 -36 14.5t-15 35.5z" />
    <glyph glyph-name="S" unicode="S" 
d="M0 48q0 20 15 34t36 14q20 0 35 -14t15 -34t-15 -34t-35 -14q-21 0 -36 14t-15 34zM101 48q0 20 14.5 34t34.5 14t34.5 -14t14.5 -34t-14.5 -34t-34.5 -14t-34.5 14t-14.5 34zM199 49q0 20 15 34t37 14q21 0 36 -14t15 -34q0 -21 -15 -35t-36 -14q-22 0 -37 14t-15 35z
M302 148q0 21 14.5 36t35.5 15q20 0 34.5 -15t14.5 -36t-14.5 -36t-34.5 -15q-21 0 -35.5 15t-14.5 36zM299 249q0 20 15 34.5t36 14.5t36 -14.5t15 -34.5q0 -21 -15 -35.5t-36 -14.5t-36 14.5t-15 35.5zM200 347q0 20 14 35t35 15q20 0 34.5 -15t14.5 -35
q0 -21 -14.5 -35.5t-34.5 -14.5q-21 0 -35 14.5t-14 35.5zM100 349q0 20 15 34.5t36 14.5q20 0 35 -14.5t15 -34.5q0 -21 -15 -35.5t-35 -14.5q-21 0 -36 14.5t-15 35.5zM0 448q0 21 15 36t36 15q20 0 35 -15t15 -36t-15 -36t-35 -15q-21 0 -36 15t-15 36zM0 548q0 20 15 34
t36 14q20 0 35 -14t15 -34q0 -21 -15 -35t-35 -14q-21 0 -36 14t-15 35zM101 647q0 20 15 35t36 15q20 0 35 -15t15 -35q0 -21 -15 -36t-35 -15q-21 0 -36 15t-15 36zM202 648q0 20 14.5 34.5t34.5 14.5t34.5 -14.5t14.5 -34.5t-14.5 -34.5t-34.5 -14.5t-34.5 14.5
t-14.5 34.5zM300 648q0 20 15.5 34.5t37.5 14.5q21 0 36.5 -14.5t15.5 -34.5t-15.5 -34.5t-36.5 -14.5q-22 0 -37.5 14.5t-15.5 34.5zM100 448q0 21 15 36t36 15q20 0 35 -15t15 -36t-15 -36t-35 -15q-21 0 -36 15t-15 36zM100 548q0 20 15 34t36 14q20 0 35 -14t15 -34
q0 -21 -15 -35t-35 -14q-21 0 -36 14t-15 35zM400 148q0 21 15 36t36 15q20 0 35 -15t15 -36t-15 -36t-35 -15q-21 0 -36 15t-15 36zM400 248q0 20 15 34t36 14q20 0 35 -14t15 -34q0 -21 -15 -35t-35 -14q-21 0 -36 14t-15 35zM300 347q0 20 14 35t35 15q20 0 34.5 -15
t14.5 -35q0 -21 -14.5 -35.5t-34.5 -14.5q-21 0 -35 14.5t-14 35.5zM410 647q0 20 14 35t35 15q20 0 34.5 -15t14.5 -35q0 -21 -14.5 -35.5t-34.5 -14.5q-21 0 -35 14.5t-14 35.5zM300 47q0 20 14 35t35 15q20 0 34.5 -15t14.5 -35q0 -21 -14.5 -35.5t-34.5 -14.5
q-21 0 -35 14.5t-14 35.5z" />
    <glyph glyph-name="T" unicode="T" horiz-adv-x="700" 
d="M0 649q0 20 15 34t36 14t36 -14t15 -34t-15 -34t-36 -14t-36 14t-15 34zM102 649q0 20 14.5 34t35.5 14t35.5 -14t14.5 -34t-14.5 -34t-35.5 -14t-35.5 14t-14.5 34zM202 649q0 20 14.5 34t34.5 14t34.5 -14t14.5 -34q0 -21 -14.5 -35t-34.5 -14t-34.5 14t-14.5 35z
M300 649q0 20 15 34t36 14q20 0 35 -14t15 -34q0 -21 -15 -35t-35 -14q-21 0 -36 14t-15 35zM398 649q0 21 15 35t36 14t35.5 -14t14.5 -35q0 -20 -14.5 -34.5t-35.5 -14.5t-36 14.5t-15 34.5zM201 49q0 20 14.5 34.5t35.5 14.5t35.5 -14.5t14.5 -34.5t-14.5 -34.5
t-35.5 -14.5t-35.5 14.5t-14.5 34.5zM200 148q0 20 15 34.5t36 14.5q20 0 35 -14.5t15 -34.5q0 -21 -15 -35.5t-35 -14.5q-21 0 -36 14.5t-15 35.5zM200 248q0 20 15 35t36 15t36 -15t15 -35q0 -21 -15 -36t-36 -15t-36 15t-15 36zM199 348q0 20 15 34.5t37 14.5
q21 0 36 -14.5t15 -34.5q0 -21 -15 -35.5t-36 -14.5q-22 0 -37 14.5t-15 35.5zM199 448q0 20 15 35t37 15t37 -15t15 -35q0 -21 -15 -36t-37 -15t-37 15t-15 36zM198 547q0 20 15.5 34.5t37.5 14.5q21 0 36.5 -14.5t15.5 -34.5t-15.5 -34.5t-36.5 -14.5q-22 0 -37.5 14.5
t-15.5 34.5zM301 49q0 20 14.5 34.5t35.5 14.5t35.5 -14.5t14.5 -34.5t-14.5 -34.5t-35.5 -14.5t-35.5 14.5t-14.5 34.5zM300 148q0 20 15 34.5t36 14.5q20 0 35 -14.5t15 -34.5q0 -21 -15 -35.5t-35 -14.5q-21 0 -36 14.5t-15 35.5zM300 248q0 20 15 35t36 15t36 -15
t15 -35q0 -21 -15 -36t-36 -15t-36 15t-15 36zM299 348q0 20 15 34.5t37 14.5q21 0 36 -14.5t15 -34.5q0 -21 -15 -35.5t-36 -14.5q-22 0 -37 14.5t-15 35.5zM299 448q0 20 15 35t37 15t37 -15t15 -35q0 -21 -15 -36t-37 -15t-37 15t-15 36zM298 547q0 20 15.5 34.5
t37.5 14.5q21 0 36.5 -14.5t15.5 -34.5t-15.5 -34.5t-36.5 -14.5q-22 0 -37.5 14.5t-15.5 34.5zM498 649q0 21 15 35t36 14t35.5 -14t14.5 -35q0 -20 -14.5 -34.5t-35.5 -14.5t-36 14.5t-15 34.5z" />
    <glyph glyph-name="U" unicode="U" 
d="M0 649q0 20 15 34t37 14q21 0 36 -14t15 -34q0 -21 -15 -35t-36 -14q-22 0 -37 14t-15 35zM0 549q0 21 15 36t37 15q21 0 36 -15t15 -36t-15 -36t-36 -15q-22 0 -37 15t-15 36zM0 449q0 20 15 34.5t37 14.5q21 0 36 -14.5t15 -34.5t-15 -34.5t-36 -14.5q-22 0 -37 14.5
t-15 34.5zM0 350q0 20 15 35t37 15q21 0 36 -15t15 -35q0 -21 -15 -36t-36 -15q-22 0 -37 15t-15 36zM0 250q0 20 15 34.5t37 14.5q21 0 36 -14.5t15 -34.5q0 -21 -15 -35.5t-36 -14.5q-22 0 -37 14.5t-15 35.5zM0 149q0 21 15 36t37 15q21 0 36 -15t15 -36t-15 -36t-36 -15
q-22 0 -37 15t-15 36zM97 48q0 19 15 33t37 14t37 -14t15 -33q0 -20 -15 -34t-37 -14t-37 14t-15 34zM201 49q0 20 15 34t37 14q21 0 36 -14t15 -34t-15 -34t-36 -14q-22 0 -37 14t-15 34zM304 147q0 20 14.5 35t35.5 15q20 0 34.5 -15t14.5 -35q0 -21 -14.5 -36t-34.5 -15
q-21 0 -35.5 15t-14.5 36zM299 247q0 21 15 35.5t37 14.5t37 -14.5t15 -35.5t-15 -35.5t-37 -14.5t-37 14.5t-15 35.5zM299 348q0 21 15 36t37 15t37 -15t15 -36t-15 -36t-37 -15t-37 15t-15 36zM297 448q0 20 15.5 34t37.5 14t37.5 -14t15.5 -34q0 -21 -15.5 -35t-37.5 -14
t-37.5 14t-15.5 35zM297 547q0 20 15.5 35t37.5 15t37.5 -15t15.5 -35q0 -21 -15.5 -36t-37.5 -15t-37.5 15t-15.5 36zM298 647q0 21 15.5 35.5t37.5 14.5q21 0 36.5 -14.5t15.5 -35.5t-15.5 -35.5t-36.5 -14.5q-22 0 -37.5 14.5t-15.5 35.5zM100 649q0 20 15 34t37 14
q21 0 36 -14t15 -34q0 -21 -15 -35t-36 -14q-22 0 -37 14t-15 35zM100 549q0 21 15 36t37 15q21 0 36 -15t15 -36t-15 -36t-36 -15q-22 0 -37 15t-15 36zM100 449q0 20 15 34.5t37 14.5q21 0 36 -14.5t15 -34.5t-15 -34.5t-36 -14.5q-22 0 -37 14.5t-15 34.5zM100 350
q0 20 15 35t37 15q21 0 36 -15t15 -35q0 -21 -15 -36t-36 -15q-22 0 -37 15t-15 36zM100 250q0 20 15 34.5t37 14.5q21 0 36 -14.5t15 -34.5q0 -21 -15 -35.5t-36 -14.5q-22 0 -37 14.5t-15 35.5zM100 149q0 21 15 36t37 15q21 0 36 -15t15 -36t-15 -36t-36 -15
q-22 0 -37 15t-15 36zM400 649q0 20 15 34t37 14q21 0 36 -14t15 -34q0 -21 -15 -35t-36 -14q-22 0 -37 14t-15 35zM400 549q0 21 15 36t37 15q21 0 36 -15t15 -36t-15 -36t-36 -15q-22 0 -37 15t-15 36zM400 449q0 20 15 34.5t37 14.5q21 0 36 -14.5t15 -34.5t-15 -34.5
t-36 -14.5q-22 0 -37 14.5t-15 34.5zM400 350q0 20 15 35t37 15q21 0 36 -15t15 -35q0 -21 -15 -36t-36 -15q-22 0 -37 15t-15 36zM400 250q0 20 15 34.5t37 14.5q21 0 36 -14.5t15 -34.5q0 -21 -15 -35.5t-36 -14.5q-22 0 -37 14.5t-15 35.5zM400 149q0 21 15 36t37 15
q21 0 36 -15t15 -36t-15 -36t-36 -15q-22 0 -37 15t-15 36zM301 49q0 20 15 34t37 14q21 0 36 -14t15 -34t-15 -34t-36 -14q-22 0 -37 14t-15 34z" />
    <glyph glyph-name="V" unicode="V" horiz-adv-x="700" 
d="M0 649q0 20 15 34t36 14t36 -14t15 -34q0 -21 -15 -35t-36 -14t-36 14t-15 35zM0 550q0 21 15 35.5t36 14.5t36 -14.5t15 -35.5t-15 -35.5t-36 -14.5t-36 14.5t-15 35.5zM0 449q0 21 15 36t37 15q21 0 36 -15t15 -36t-15 -36t-36 -15q-22 0 -37 15t-15 36zM0 350
q0 20 15 34t37 14q21 0 36 -14t15 -34q0 -21 -15 -35t-36 -14q-22 0 -37 14t-15 35zM102 250q0 20 14.5 34.5t35.5 14.5t35.5 -14.5t14.5 -34.5q0 -21 -14.5 -35.5t-35.5 -14.5t-35.5 14.5t-14.5 35.5zM99 150q0 20 15 35t37 15q21 0 36 -15t15 -35q0 -21 -15 -36t-36 -15
q-22 0 -37 15t-15 36zM199 52q0 21 15 35.5t37 14.5t37 -14.5t15 -35.5q0 -20 -15 -35t-37 -15t-37 15t-15 35zM302 147q0 20 14.5 35t35.5 15q20 0 34.5 -15t14.5 -35q0 -21 -14.5 -36t-34.5 -15q-21 0 -35.5 15t-14.5 36zM297 247q0 21 15 35.5t37 14.5t37 -14.5t15 -35.5
t-15 -35.5t-37 -14.5t-37 14.5t-15 35.5zM400 347q0 21 15 36t37 15q21 0 36 -15t15 -36q0 -22 -15 -37t-36 -15q-22 0 -37 15t-15 37zM399 448q0 20 15 34.5t37 14.5t37 -14.5t15 -34.5q0 -21 -15 -35.5t-37 -14.5t-37 14.5t-15 35.5zM399 547q0 21 15 35.5t37 14.5
q21 0 36 -14.5t15 -35.5t-15 -35.5t-36 -14.5q-22 0 -37 14.5t-15 35.5zM399 647q0 21 15 35.5t37 14.5q21 0 36 -14.5t15 -35.5t-15 -35.5t-36 -14.5q-22 0 -37 14.5t-15 35.5zM100 649q0 20 15 34t36 14t36 -14t15 -34q0 -21 -15 -35t-36 -14t-36 14t-15 35zM100 550
q0 21 15 35.5t36 14.5t36 -14.5t15 -35.5t-15 -35.5t-36 -14.5t-36 14.5t-15 35.5zM100 449q0 21 15 36t37 15q21 0 36 -15t15 -36t-15 -36t-36 -15q-22 0 -37 15t-15 36zM100 350q0 20 15 34t37 14q21 0 36 -14t15 -34q0 -21 -15 -35t-36 -14q-22 0 -37 14t-15 35zM500 649
q0 20 15 34t36 14t36 -14t15 -34q0 -21 -15 -35t-36 -14t-36 14t-15 35zM500 550q0 21 15 35.5t36 14.5t36 -14.5t15 -35.5t-15 -35.5t-36 -14.5t-36 14.5t-15 35.5zM500 449q0 21 15 36t37 15q21 0 36 -15t15 -36t-15 -36t-36 -15q-22 0 -37 15t-15 36zM500 350q0 20 15 34
t37 14q21 0 36 -14t15 -34q0 -21 -15 -35t-36 -14q-22 0 -37 14t-15 35zM202 147q0 20 14.5 35t35.5 15q20 0 34.5 -15t14.5 -35q0 -21 -14.5 -36t-34.5 -15q-21 0 -35.5 15t-14.5 36zM197 247q0 21 15 35.5t37 14.5t37 -14.5t15 -35.5t-15 -35.5t-37 -14.5t-37 14.5
t-15 35.5zM402 147q0 20 14.5 35t35.5 15q20 0 34.5 -15t14.5 -35q0 -21 -14.5 -36t-34.5 -15q-21 0 -35.5 15t-14.5 36zM397 247q0 21 15 35.5t37 14.5t37 -14.5t15 -35.5t-15 -35.5t-37 -14.5t-37 14.5t-15 35.5zM299 52q0 21 15 35.5t37 14.5t37 -14.5t15 -35.5
q0 -20 -15 -35t-37 -15t-37 15t-15 35z" />
    <glyph glyph-name="W" unicode="W" horiz-adv-x="700" 
d="M0 649q0 20 15.5 34t37.5 14q21 0 36.5 -14t15.5 -34t-15.5 -34t-36.5 -14q-22 0 -37.5 14t-15.5 34zM0 551q0 20 15.5 35t37.5 15q21 0 36.5 -15t15.5 -35q0 -21 -15.5 -36t-36.5 -15q-22 0 -37.5 15t-15.5 36zM0 449q0 21 15 36t37 15t37 -15t15 -36t-15 -36t-37 -15
t-37 15t-15 36zM0 348q0 21 15 35.5t37 14.5t37 -14.5t15 -35.5t-15 -35.5t-37 -14.5t-37 14.5t-15 35.5zM0 251q0 19 15 33t37 14q21 0 36 -14t15 -33q0 -20 -15 -34t-36 -14q-22 0 -37 14t-15 34zM0 152q0 21 15 36t37 15q21 0 36 -15t15 -36q0 -22 -15 -37t-36 -15
q-22 0 -37 15t-15 37zM0 50q0 21 15 35.5t37 14.5q21 0 36 -14.5t15 -35.5t-15 -35.5t-36 -14.5q-22 0 -37 14.5t-15 35.5zM104 152q0 22 14 37t35 15q20 0 34 -15t14 -37t-14 -37t-34 -15q-21 0 -35 15t-14 37zM197 250q0 20 15 34t37 14q21 0 36 -14t15 -34t-15 -34
t-36 -14q-22 0 -37 14t-15 34zM300 151q0 21 15 36t36 15q20 0 35 -15t15 -36t-15 -36t-35 -15q-21 0 -36 15t-15 36zM401 50q0 21 15 35.5t36 14.5q20 0 35 -14.5t15 -35.5t-15 -35.5t-35 -14.5q-21 0 -36 14.5t-15 35.5zM401 148q0 20 15 34t36 14q20 0 35 -14t15 -34
q0 -21 -15 -35t-35 -14q-21 0 -36 14t-15 35zM399 248q0 20 15 34t36 14t36 -14t15 -34t-15 -34t-36 -14t-36 14t-15 34zM399 348q0 21 15.5 36t37.5 15q21 0 36.5 -15t15.5 -36q0 -22 -15.5 -37t-36.5 -15q-22 0 -37.5 15t-15.5 37zM398 449q0 20 15.5 34.5t37.5 14.5
t37.5 -14.5t15.5 -34.5q0 -21 -15.5 -35.5t-37.5 -14.5t-37.5 14.5t-15.5 35.5zM398 548q0 20 15.5 34.5t37.5 14.5q21 0 36.5 -14.5t15.5 -34.5q0 -21 -15.5 -35.5t-36.5 -14.5q-22 0 -37.5 14.5t-15.5 35.5zM399 647q0 21 15 35.5t37 14.5t37 -14.5t15 -35.5t-15 -35.5
t-37 -14.5t-37 14.5t-15 35.5zM100 649q0 20 15.5 34t37.5 14q21 0 36.5 -14t15.5 -34t-15.5 -34t-36.5 -14q-22 0 -37.5 14t-15.5 34zM100 551q0 20 15.5 35t37.5 15q21 0 36.5 -15t15.5 -35q0 -21 -15.5 -36t-36.5 -15q-22 0 -37.5 15t-15.5 36zM100 449q0 21 15 36t37 15
t37 -15t15 -36t-15 -36t-37 -15t-37 15t-15 36zM100 348q0 21 15 35.5t37 14.5t37 -14.5t15 -35.5t-15 -35.5t-37 -14.5t-37 14.5t-15 35.5zM100 251q0 19 15 33t37 14q21 0 36 -14t15 -33q0 -20 -15 -34t-36 -14q-22 0 -37 14t-15 34zM500 649q0 20 15.5 34t37.5 14
q21 0 36.5 -14t15.5 -34t-15.5 -34t-36.5 -14q-22 0 -37.5 14t-15.5 34zM500 551q0 20 15.5 35t37.5 15q21 0 36.5 -15t15.5 -35q0 -21 -15.5 -36t-36.5 -15q-22 0 -37.5 15t-15.5 36zM500 449q0 21 15 36t37 15t37 -15t15 -36t-15 -36t-37 -15t-37 15t-15 36zM500 348
q0 21 15 35.5t37 14.5t37 -14.5t15 -35.5t-15 -35.5t-37 -14.5t-37 14.5t-15 35.5zM500 251q0 19 15 33t37 14q21 0 36 -14t15 -33q0 -20 -15 -34t-36 -14q-22 0 -37 14t-15 34zM297 250q0 20 15 34t37 14q21 0 36 -14t15 -34t-15 -34t-36 -14q-22 0 -37 14t-15 34zM197 150
q0 20 15 34t37 14q21 0 36 -14t15 -34t-15 -34t-36 -14q-22 0 -37 14t-15 34zM97 50q0 20 15 34t37 14q21 0 36 -14t15 -34t-15 -34t-36 -14q-22 0 -37 14t-15 34zM497 150q0 20 15 34t37 14q21 0 36 -14t15 -34t-15 -34t-36 -14q-22 0 -37 14t-15 34zM497 50q0 20 15 34
t37 14q21 0 36 -14t15 -34t-15 -34t-36 -14q-22 0 -37 14t-15 34z" />
    <glyph glyph-name="X" unicode="X" horiz-adv-x="700" 
d="M0 649q0 20 15 34t36 14t36 -14t15 -34t-15 -34t-36 -14t-36 14t-15 34zM0 551q0 20 15 35t36 15t36 -15t15 -35q0 -21 -15 -36t-36 -15t-36 15t-15 36zM0 49q0 20 15 34t36 14t36 -14t15 -34q0 -21 -15 -35t-36 -14t-36 14t-15 35zM0 147q0 21 15 35.5t36 14.5t36 -14.5
t15 -35.5t-15 -35.5t-36 -14.5t-36 14.5t-15 35.5zM99 246q0 22 15 37t36 15t36 -15t15 -37t-15 -37t-36 -15t-36 15t-15 37zM201 348q0 21 14.5 35.5t35.5 14.5t35.5 -14.5t14.5 -35.5t-14.5 -35.5t-35.5 -14.5t-35.5 14.5t-14.5 35.5zM301 448q0 21 14.5 35.5t35.5 14.5
t35.5 -14.5t14.5 -35.5t-14.5 -35.5t-35.5 -14.5t-35.5 14.5t-14.5 35.5zM401 548q0 21 15 35.5t37 14.5q21 0 36 -14.5t15 -35.5t-15 -35.5t-36 -14.5q-22 0 -37 14.5t-15 35.5zM401 648q0 20 15 34.5t37 14.5q21 0 36 -14.5t15 -34.5q0 -21 -15 -35.5t-36 -14.5
q-22 0 -37 14.5t-15 35.5zM98 447q0 19 15.5 33t37.5 14q21 0 36.5 -14t15.5 -33t-15.5 -33t-36.5 -14q-22 0 -37.5 14t-15.5 33zM300 250q0 21 15 35.5t36 14.5t36 -14.5t15 -35.5t-15 -35.5t-36 -14.5t-36 14.5t-15 35.5zM402 151q0 20 15 34.5t36 14.5t36 -14.5t15 -34.5
q0 -21 -15 -35.5t-36 -14.5t-36 14.5t-15 35.5zM398 51q0 20 15.5 35t37.5 15t37.5 -15t15.5 -35q0 -21 -15.5 -36t-37.5 -15t-37.5 15t-15.5 36zM100 649q0 20 15 34t36 14t36 -14t15 -34t-15 -34t-36 -14t-36 14t-15 34zM100 551q0 20 15 35t36 15t36 -15t15 -35
q0 -21 -15 -36t-36 -15t-36 15t-15 36zM100 149q0 20 15 34t36 14t36 -14t15 -34t-15 -34t-36 -14t-36 14t-15 34zM100 51q0 20 15 35t36 15t36 -15t15 -35q0 -21 -15 -36t-36 -15t-36 15t-15 36zM500 649q0 20 15 34t36 14t36 -14t15 -34t-15 -34t-36 -14t-36 14t-15 34z
M500 551q0 20 15 35t36 15t36 -15t15 -35q0 -21 -15 -36t-36 -15t-36 15t-15 36zM500 149q0 20 15 34t36 14t36 -14t15 -34t-15 -34t-36 -14t-36 14t-15 34zM500 51q0 20 15 35t36 15t36 -15t15 -35q0 -21 -15 -36t-36 -15t-36 15t-15 36zM401 448q0 21 14.5 35.5t35.5 14.5
t35.5 -14.5t14.5 -35.5t-14.5 -35.5t-35.5 -14.5t-35.5 14.5t-14.5 35.5zM301 348q0 21 14.5 35.5t35.5 14.5t35.5 -14.5t14.5 -35.5t-14.5 -35.5t-35.5 -14.5t-35.5 14.5t-14.5 35.5zM401 248q0 21 14.5 35.5t35.5 14.5t35.5 -14.5t14.5 -35.5t-14.5 -35.5t-35.5 -14.5
t-35.5 14.5t-14.5 35.5zM201 448q0 21 14.5 35.5t35.5 14.5t35.5 -14.5t14.5 -35.5t-14.5 -35.5t-35.5 -14.5t-35.5 14.5t-14.5 35.5zM201 248q0 21 14.5 35.5t35.5 14.5t35.5 -14.5t14.5 -35.5t-14.5 -35.5t-35.5 -14.5t-35.5 14.5t-14.5 35.5z" />
    <glyph glyph-name="Y" unicode="Y" horiz-adv-x="700" 
d="M0 649q0 20 15 34t36 14t36 -14t15 -34t-15 -34t-36 -14t-36 14t-15 34zM0 551q0 20 15 35t36 15t36 -15t15 -35q0 -21 -15 -36t-36 -15t-36 15t-15 36zM0 49q0 20 15 34t36 14t36 -14t15 -34q0 -21 -15 -35t-36 -14t-36 14t-15 35zM0 147q0 21 15 35.5t36 14.5t36 -14.5
t15 -35.5t-15 -35.5t-36 -14.5t-36 14.5t-15 35.5zM99 246q0 22 15 37t36 15t36 -15t15 -37t-15 -37t-36 -15t-36 15t-15 37zM201 348q0 21 14.5 35.5t35.5 14.5t35.5 -14.5t14.5 -35.5t-14.5 -35.5t-35.5 -14.5t-35.5 14.5t-14.5 35.5zM301 448q0 21 14.5 35.5t35.5 14.5
t35.5 -14.5t14.5 -35.5t-14.5 -35.5t-35.5 -14.5t-35.5 14.5t-14.5 35.5zM401 548q0 21 15 35.5t37 14.5q21 0 36 -14.5t15 -35.5t-15 -35.5t-36 -14.5q-22 0 -37 14.5t-15 35.5zM401 648q0 20 15 34.5t37 14.5q21 0 36 -14.5t15 -34.5q0 -21 -15 -35.5t-36 -14.5
q-22 0 -37 14.5t-15 35.5zM98 447q0 19 15.5 33t37.5 14q21 0 36.5 -14t15.5 -33t-15.5 -33t-36.5 -14q-22 0 -37.5 14t-15.5 33zM401 448q0 21 14.5 35.5t35.5 14.5t35.5 -14.5t14.5 -35.5t-14.5 -35.5t-35.5 -14.5t-35.5 14.5t-14.5 35.5zM301 348q0 21 14.5 35.5
t35.5 14.5t35.5 -14.5t14.5 -35.5t-14.5 -35.5t-35.5 -14.5t-35.5 14.5t-14.5 35.5zM201 248q0 21 14.5 35.5t35.5 14.5t35.5 -14.5t14.5 -35.5t-14.5 -35.5t-35.5 -14.5t-35.5 14.5t-14.5 35.5zM101 148q0 21 14.5 35.5t35.5 14.5t35.5 -14.5t14.5 -35.5t-14.5 -35.5
t-35.5 -14.5t-35.5 14.5t-14.5 35.5zM101 48q0 21 14.5 35.5t35.5 14.5t35.5 -14.5t14.5 -35.5t-14.5 -35.5t-35.5 -14.5t-35.5 14.5t-14.5 35.5zM101 548q0 21 14.5 35.5t35.5 14.5t35.5 -14.5t14.5 -35.5t-14.5 -35.5t-35.5 -14.5t-35.5 14.5t-14.5 35.5zM101 648
q0 21 14.5 35.5t35.5 14.5t35.5 -14.5t14.5 -35.5t-14.5 -35.5t-35.5 -14.5t-35.5 14.5t-14.5 35.5zM201 448q0 21 14.5 35.5t35.5 14.5t35.5 -14.5t14.5 -35.5t-14.5 -35.5t-35.5 -14.5t-35.5 14.5t-14.5 35.5zM501 548q0 21 14.5 35.5t35.5 14.5t35.5 -14.5t14.5 -35.5
t-14.5 -35.5t-35.5 -14.5t-35.5 14.5t-14.5 35.5zM501 648q0 21 14.5 35.5t35.5 14.5t35.5 -14.5t14.5 -35.5t-14.5 -35.5t-35.5 -14.5t-35.5 14.5t-14.5 35.5z" />
    <glyph glyph-name="Z" unicode="Z" 
d="M0 648q0 20 15 34.5t36 14.5q20 0 35 -14.5t15 -34.5t-15 -34.5t-35 -14.5q-21 0 -36 14.5t-15 34.5zM101 648q0 20 15 34.5t36 14.5t36 -14.5t15 -34.5t-15 -34.5t-36 -14.5t-36 14.5t-15 34.5zM203 649q0 20 14.5 34t35.5 14q20 0 34.5 -14t14.5 -34t-14.5 -34
t-34.5 -14q-21 0 -35.5 14t-14.5 34zM302 649q0 20 14.5 34t35.5 14t35.5 -14t14.5 -34t-14.5 -34t-35.5 -14t-35.5 14t-14.5 34zM300 549q0 22 14.5 37t35.5 15q20 0 34.5 -15t14.5 -37t-14.5 -37t-34.5 -15q-21 0 -35.5 15t-14.5 37zM300 448q0 20 15 34.5t37 14.5
t37 -14.5t15 -34.5q0 -21 -15 -35.5t-37 -14.5t-37 14.5t-15 35.5zM199 348q0 22 15 37t37 15q21 0 36 -15t15 -37t-15 -37t-36 -15q-22 0 -37 15t-15 37zM97 246q0 21 15 35.5t36 14.5t36 -14.5t15 -35.5t-15 -35.5t-36 -14.5t-36 14.5t-15 35.5zM0 147q0 20 14 34.5
t35 14.5q20 0 34 -14.5t14 -34.5q0 -21 -14 -35.5t-34 -14.5q-21 0 -35 14.5t-14 35.5zM0 49q0 20 14.5 34t35.5 14t35.5 -14t14.5 -34q0 -21 -14.5 -35t-35.5 -14t-35.5 14t-14.5 35zM100 49q0 20 15 34.5t36 14.5t36 -14.5t15 -34.5t-15 -34.5t-36 -14.5t-36 14.5
t-15 34.5zM202 49q0 20 14.5 34.5t35.5 14.5q20 0 34.5 -14.5t14.5 -34.5t-14.5 -34.5t-34.5 -14.5q-21 0 -35.5 14.5t-14.5 34.5zM301 49q0 20 15 34.5t36 14.5t36 -14.5t15 -34.5t-15 -34.5t-36 -14.5t-36 14.5t-15 34.5zM299 348q0 22 15 37t37 15q21 0 36 -15t15 -37
t-15 -37t-36 -15q-22 0 -37 15t-15 37zM199 248q0 22 15 37t37 15q21 0 36 -15t15 -37t-15 -37t-36 -15q-22 0 -37 15t-15 37zM99 148q0 22 15 37t37 15q21 0 36 -15t15 -37t-15 -37t-36 -15q-22 0 -37 15t-15 37zM399 448q0 22 15 37t37 15q21 0 36 -15t15 -37t-15 -37
t-36 -15q-22 0 -37 15t-15 37zM399 548q0 22 15 37t37 15q21 0 36 -15t15 -37t-15 -37t-36 -15q-22 0 -37 15t-15 37zM399 648q0 22 15 37t37 15q21 0 36 -15t15 -37t-15 -37t-36 -15q-22 0 -37 15t-15 37zM399 48q0 22 15 37t37 15q21 0 36 -15t15 -37t-15 -37t-36 -15
q-22 0 -37 15t-15 37z" />
    <glyph glyph-name="bracketleft" unicode="[" horiz-adv-x="400" 
d="M0 649q0 20 14.5 34t35.5 14t35.5 -14t14.5 -34q0 -21 -14.5 -35t-35.5 -14t-35.5 14t-14.5 35zM0 549q0 20 15 34.5t36 14.5t36 -14.5t15 -34.5t-15 -34.5t-36 -14.5t-36 14.5t-15 34.5zM0 449q0 21 15 36t36 15t36 -15t15 -36q0 -22 -15 -37t-36 -15t-36 15t-15 37z
M0 350q0 19 15 33t36 14t36 -14t15 -33t-15 -33t-36 -14t-36 14t-15 33zM0 250q0 22 15 37.5t36 15.5t36 -15.5t15 -37.5q0 -23 -15 -38.5t-36 -15.5t-36 15.5t-15 38.5zM0 149q0 19 15 33t37 14q21 0 36 -14t15 -33t-15 -33t-36 -14q-22 0 -37 14t-15 33zM0 49q0 20 15 34
t37 14q21 0 36 -14t15 -34q0 -21 -15 -35t-36 -14q-22 0 -37 14t-15 35zM200 649q0 20 14.5 34t35.5 14t35.5 -14t14.5 -34q0 -21 -14.5 -35t-35.5 -14t-35.5 14t-14.5 35zM100 649q0 20 14.5 34t35.5 14t35.5 -14t14.5 -34q0 -21 -14.5 -35t-35.5 -14t-35.5 14t-14.5 35z
M100 549q0 20 15 34.5t36 14.5t36 -14.5t15 -34.5t-15 -34.5t-36 -14.5t-36 14.5t-15 34.5zM100 449q0 21 15 36t36 15t36 -15t15 -36q0 -22 -15 -37t-36 -15t-36 15t-15 37zM100 350q0 19 15 33t36 14t36 -14t15 -33t-15 -33t-36 -14t-36 14t-15 33zM100 250q0 22 15 37.5
t36 15.5t36 -15.5t15 -37.5q0 -23 -15 -38.5t-36 -15.5t-36 15.5t-15 38.5zM100 149q0 19 15 33t37 14q21 0 36 -14t15 -33t-15 -33t-36 -14q-22 0 -37 14t-15 33zM203 51q0 21 14.5 36t35.5 15t35.5 -15t14.5 -36t-14.5 -36t-35.5 -15t-35.5 15t-14.5 36zM100 49
q0 20 15 34t37 14q21 0 36 -14t15 -34q0 -21 -15 -35t-36 -14q-22 0 -37 14t-15 35z" />
    <glyph glyph-name="backslash" unicode="\" horiz-adv-x="700" 
d="M506 56q0 20 -15 34t-36 14q-22 0 -37 -14t-15 -34t15 -34t37 -14q21 0 36 14t15 34zM506 155q0 21 -15 36t-36 15q-22 0 -37 -15t-15 -36t15 -36t37 -15q21 0 36 15t15 36zM408 255q0 21 -15 36t-37 15q-21 0 -36.5 -15t-15.5 -36t15.5 -35.5t36.5 -14.5q22 0 37 14.5
t15 35.5zM304 356q0 21 -14.5 36t-35.5 15t-36 -15t-15 -36t15 -35.5t36 -14.5t35.5 14.5t14.5 35.5zM203 456q0 21 -14.5 35.5t-35.5 14.5t-35.5 -14.5t-14.5 -35.5q0 -20 14.5 -34.5t35.5 -14.5t35.5 14.5t14.5 34.5zM103 556q0 21 -14.5 36t-35.5 15t-35.5 -15t-14.5 -36
t14.5 -35.5t35.5 -14.5t35.5 14.5t14.5 35.5zM107 656q0 20 -15 34.5t-37 14.5q-21 0 -36.5 -14.5t-15.5 -34.5q0 -21 15.5 -35t36.5 -14q22 0 37 14t15 35zM606 56q0 20 -15 34t-36 14q-22 0 -37 -14t-15 -34t15 -34t37 -14q21 0 36 14t15 34zM606 155q0 21 -15 36t-36 15
q-22 0 -37 -15t-15 -36t15 -36t37 -15q21 0 36 15t15 36zM508 255q0 21 -15 36t-37 15q-21 0 -36.5 -15t-15.5 -36t15.5 -35.5t36.5 -14.5q22 0 37 14.5t15 35.5zM404 356q0 21 -14.5 36t-35.5 15t-36 -15t-15 -36t15 -35.5t36 -14.5t35.5 14.5t14.5 35.5zM303 456
q0 21 -14.5 35.5t-35.5 14.5t-35.5 -14.5t-14.5 -35.5q0 -20 14.5 -34.5t35.5 -14.5t35.5 14.5t14.5 34.5zM203 556q0 21 -14.5 36t-35.5 15t-35.5 -15t-14.5 -36t14.5 -35.5t35.5 -14.5t35.5 14.5t14.5 35.5zM207 656q0 20 -15 34.5t-37 14.5q-21 0 -36.5 -14.5
t-15.5 -34.5q0 -21 15.5 -35t36.5 -14q22 0 37 14t15 35z" />
    <glyph glyph-name="bracketright" unicode="]" horiz-adv-x="400" 
d="M108 654q0 20 -14.5 34t-35.5 14q-20 0 -35 -14t-15 -34t15 -34.5t35 -14.5q21 0 35.5 14.5t14.5 34.5zM208 554q0 21 -14.5 35t-36.5 14q-21 0 -36 -14t-15 -35q0 -20 15 -34.5t36 -14.5q22 0 36.5 14.5t14.5 34.5zM208 454q0 21 -14.5 36t-36.5 15q-21 0 -36 -15
t-15 -36t15 -36.5t36 -15.5q22 0 36.5 15.5t14.5 36.5zM208 355q0 20 -14.5 33.5t-36.5 13.5q-21 0 -36 -13.5t-15 -33.5q0 -19 15 -33t36 -14q22 0 36.5 14t14.5 33zM208 255q0 22 -14.5 37.5t-36.5 15.5q-21 0 -36 -15.5t-15 -37.5t15 -38t36 -16q22 0 36.5 16t14.5 38z
M208 154q0 20 -15 33.5t-36 13.5t-36.5 -13.5t-15.5 -33.5q0 -19 15.5 -33t36.5 -14t36 14t15 33zM105 56q0 22 -14.5 36.5t-35.5 14.5q-20 0 -35 -14.5t-15 -36.5q0 -21 15 -36t35 -15q21 0 35.5 15t14.5 36zM208 654q0 20 -14.5 34t-35.5 14q-20 0 -35 -14t-15 -34
t15 -34.5t35 -14.5q21 0 35.5 14.5t14.5 34.5zM308 654q0 20 -14.5 34t-35.5 14q-20 0 -35 -14t-15 -34t15 -34.5t35 -14.5q21 0 35.5 14.5t14.5 34.5zM308 554q0 21 -14.5 35t-36.5 14q-21 0 -36 -14t-15 -35q0 -20 15 -34.5t36 -14.5q22 0 36.5 14.5t14.5 34.5zM308 454
q0 21 -14.5 36t-36.5 15q-21 0 -36 -15t-15 -36t15 -36.5t36 -15.5q22 0 36.5 15.5t14.5 36.5zM308 355q0 20 -14.5 33.5t-36.5 13.5q-21 0 -36 -13.5t-15 -33.5q0 -19 15 -33t36 -14q22 0 36.5 14t14.5 33zM308 255q0 22 -14.5 37.5t-36.5 15.5q-21 0 -36 -15.5t-15 -37.5
t15 -38t36 -16q22 0 36.5 16t14.5 38zM308 154q0 20 -15 33.5t-36 13.5t-36.5 -13.5t-15.5 -33.5q0 -19 15.5 -33t36.5 -14t36 14t15 33zM205 56q0 22 -14.5 36.5t-35.5 14.5q-20 0 -35 -14.5t-15 -36.5q0 -21 15 -36t35 -15q21 0 35.5 15t14.5 36zM308 54q0 20 -15 34
t-36 14t-36.5 -14t-15.5 -34t15.5 -34.5t36.5 -14.5t36 14.5t15 34.5z" />
    <glyph glyph-name="asciicircum" unicode="^" horiz-adv-x="500" 
d="M0 550q0 19 15 33t37 14t37 -14t15 -33q0 -20 -15 -34t-37 -14t-37 14t-15 34zM100 647q0 20 15.5 35t37.5 15q21 0 36.5 -15t15.5 -35q0 -21 -15.5 -36t-36.5 -15q-22 0 -37.5 15t-15.5 36zM203 550q0 21 14.5 36t35.5 15t35.5 -15t14.5 -36t-14.5 -36t-35.5 -15
t-35.5 15t-14.5 36zM100 550q0 19 15 33t37 14t37 -14t15 -33q0 -20 -15 -34t-37 -14t-37 14t-15 34zM200 647q0 20 15.5 35t37.5 15q21 0 36.5 -15t15.5 -35q0 -21 -15.5 -36t-36.5 -15q-22 0 -37.5 15t-15.5 36zM303 550q0 21 14.5 36t35.5 15t35.5 -15t14.5 -36
t-14.5 -36t-35.5 -15t-35.5 15t-14.5 36z" />
    <glyph glyph-name="underscore" unicode="_" 
d="M0 -52q0 22 15 37t37 15q21 0 36 -15t15 -37t-15 -37t-36 -15q-22 0 -37 15t-15 37zM103 -52q0 22 14.5 37t35.5 15t35.5 -15t14.5 -37t-14.5 -37t-35.5 -15t-35.5 15t-14.5 37zM203 -52q0 22 14.5 37t35.5 15t35.5 -15t14.5 -37t-14.5 -37t-35.5 -15t-35.5 15t-14.5 37z
M303 -53q0 21 14.5 36.5t35.5 15.5t35.5 -15.5t14.5 -36.5q0 -22 -14.5 -37t-35.5 -15t-35.5 15t-14.5 37zM403 -53q0 21 14.5 36.5t35.5 15.5t35.5 -15.5t14.5 -36.5q0 -22 -14.5 -37t-35.5 -15t-35.5 15t-14.5 37z" />
    <glyph glyph-name="a" unicode="a" 
d="M99 449q0 20 15 34.5t36 14.5t36 -14.5t15 -34.5t-15 -34.5t-36 -14.5t-36 14.5t-15 34.5zM201 449q0 20 15 34.5t37 14.5t37 -14.5t15 -34.5t-15 -34.5t-37 -14.5t-37 14.5t-15 34.5zM303 350q0 21 14.5 35.5t35.5 14.5t35.5 -14.5t14.5 -35.5t-14.5 -35.5t-35.5 -14.5
t-35.5 14.5t-14.5 35.5zM300 249q0 21 15 36t37 15q21 0 36 -15t15 -36q0 -22 -15 -37t-36 -15q-22 0 -37 15t-15 37zM300 147q0 21 15 35.5t36 14.5t36 -14.5t15 -35.5t-15 -35.5t-36 -14.5t-36 14.5t-15 35.5zM300 49q0 20 15 34t36 14q20 0 35 -14t15 -34q0 -21 -15 -35
t-35 -14q-21 0 -36 14t-15 35zM199 49q0 20 15 34.5t36 14.5q20 0 35 -14.5t15 -34.5t-15 -34.5t-35 -14.5q-21 0 -36 14.5t-15 34.5zM100 49q0 20 14.5 34.5t35.5 14.5q20 0 34.5 -14.5t14.5 -34.5t-14.5 -34.5t-34.5 -14.5q-21 0 -35.5 14.5t-14.5 34.5zM0 150q0 19 15 33
t37 14t37 -14t15 -33t-15 -33t-37 -14t-37 14t-15 33zM99 247q0 20 15 34t36 14t36 -14t15 -34t-15 -34t-36 -14t-36 14t-15 34zM201 249q0 19 14.5 32.5t34.5 13.5t34.5 -13.5t14.5 -32.5q0 -20 -14.5 -33.5t-34.5 -13.5t-34.5 13.5t-14.5 33.5zM100 150q0 19 15 33t37 14
t37 -14t15 -33t-15 -33t-37 -14t-37 14t-15 33zM400 150q0 19 15 33t37 14t37 -14t15 -33t-15 -33t-37 -14t-37 14t-15 33zM400 50q0 19 15 33t37 14t37 -14t15 -33t-15 -33t-37 -14t-37 14t-15 33zM400 250q0 19 15 33t37 14t37 -14t15 -33t-15 -33t-37 -14t-37 14t-15 33z
M400 350q0 19 15 33t37 14q21 0 36.5 -13.5t15.5 -33.5q1 -53 -52 -53q-21 0 -36.5 16.5t-15.5 36.5zM300 450q0 19 15 33t37 14t37 -14t15 -33t-15 -33t-37 -14t-37 14t-15 33z" />
    <glyph glyph-name="b" unicode="b" 
d="M0 648q0 20 15 34.5t37 14.5q21 0 36 -14.5t15 -34.5t-15 -34.5t-36 -14.5q-22 0 -37 14.5t-15 34.5zM0 548q0 21 15 36t37 15q21 0 36 -15t15 -36t-15 -36t-36 -15q-22 0 -37 15t-15 36zM0 448q0 20 15 34.5t37 14.5q21 0 36 -14.5t15 -34.5q0 -21 -15 -35.5t-36 -14.5
q-22 0 -37 14.5t-15 35.5zM0 349q0 20 15 34.5t37 14.5q21 0 36 -14.5t15 -34.5t-15 -34.5t-36 -14.5q-22 0 -37 14.5t-15 34.5zM0 250q0 20 15 35t37 15q21 0 36 -15t15 -35q0 -21 -15 -36t-36 -15q-22 0 -37 15t-15 36zM0 149q0 20 15 35t37 15q21 0 36 -15t15 -35
q0 -21 -15 -36t-36 -15q-22 0 -37 15t-15 36zM0 49q0 20 15 34.5t37 14.5q21 0 36 -14.5t15 -34.5t-15 -34.5t-36 -14.5q-22 0 -37 14.5t-15 34.5zM301 148q0 21 15 36t37 15t37 -15t15 -36q0 -22 -15 -37t-37 -15t-37 15t-15 37zM298 247q0 19 15.5 33t38.5 14
q22 0 37.5 -14t15.5 -33q0 -20 -15.5 -34t-37.5 -14q-23 0 -38.5 14t-15.5 34zM298 346q0 22 15 37t37 15t37 -15t15 -37t-15 -37t-37 -15t-37 15t-15 37zM100 648q0 20 15 34.5t37 14.5q21 0 36 -14.5t15 -34.5t-15 -34.5t-36 -14.5q-22 0 -37 14.5t-15 34.5zM100 548
q0 21 15 36t37 15q21 0 36 -15t15 -36t-15 -36t-36 -15q-22 0 -37 15t-15 36zM100 448q0 20 15 34.5t37 14.5q21 0 36 -14.5t15 -34.5q0 -21 -15 -35.5t-36 -14.5q-22 0 -37 14.5t-15 35.5zM100 349q0 20 15 34.5t37 14.5q21 0 36 -14.5t15 -34.5t-15 -34.5t-36 -14.5
q-22 0 -37 14.5t-15 34.5zM100 250q0 20 15 35t37 15q21 0 36 -15t15 -35q0 -21 -15 -36t-36 -15q-22 0 -37 15t-15 36zM100 149q0 20 15 35t37 15q21 0 36 -15t15 -35q0 -21 -15 -36t-36 -15q-22 0 -37 15t-15 36zM101 48q0 20 15.5 34.5t36.5 14.5t36 -14.5t15 -34.5
q0 -21 -15 -35t-36 -14t-36.5 14t-15.5 35zM203 50q0 21 14.5 35.5t35.5 14.5q20 0 34.5 -14.5t14.5 -35.5t-14.5 -35.5t-34.5 -14.5q-21 0 -35.5 14.5t-14.5 35.5zM302 50q0 21 15 35.5t36 14.5t36 -14.5t15 -35.5t-15 -35.5t-36 -14.5t-36 14.5t-15 35.5zM401 148
q0 21 15 36t37 15t37 -15t15 -36q0 -22 -15 -37t-37 -15t-37 15t-15 37zM405 247q0 47 47 47q22 0 37.5 -14t15.5 -33q0 -20 -15.5 -34t-37.5 -14q-47 0 -47 48zM398 346q0 22 15 37t37 15t37 -15t15 -37t-15 -37t-37 -15t-37 15t-15 37zM301 447q0 21 14.5 36t34.5 15
t34.5 -15t14.5 -36t-14.5 -36t-34.5 -15t-34.5 15t-14.5 36zM201 449q0 20 14.5 34.5t35.5 14.5t35.5 -14.5t14.5 -34.5t-14.5 -34.5t-35.5 -14.5t-35.5 14.5t-14.5 34.5z" />
    <glyph glyph-name="c" unicode="c" 
d="M300 349q0 20 15 34.5t36 14.5q20 0 35 -14.5t15 -34.5t-15 -34.5t-35 -14.5q-21 0 -36 14.5t-15 34.5zM200 448q0 20 15 35t36 15q20 0 35 -15t15 -35q0 -21 -15 -36t-35 -15q-21 0 -36 15t-15 36zM99 450q0 20 15 34t36 14q20 0 35 -14t15 -34q0 -21 -15 -35t-35 -14
q-21 0 -36 14t-15 35zM0 350q0 21 14.5 36t35.5 15q20 0 34.5 -15t14.5 -36q0 -22 -14.5 -37t-34.5 -15q-21 0 -35.5 15t-14.5 37zM0 248q0 21 15 35.5t37 14.5t37 -14.5t15 -35.5t-15 -35.5t-37 -14.5t-37 14.5t-15 35.5zM0 148q0 20 15 35t37 15t37 -15t15 -35
q0 -21 -15 -36t-37 -15t-37 15t-15 36zM99 47q0 19 15 33t37 14q21 0 36 -14t15 -33t-15 -33t-36 -14q-22 0 -37 14t-15 33zM202 49q0 20 14.5 34t35.5 14q20 0 34.5 -14t14.5 -34q0 -21 -14.5 -35t-34.5 -14q-21 0 -35.5 14t-14.5 35zM301 148q0 21 14.5 36t35.5 15
q20 0 34.5 -15t14.5 -36t-14.5 -36t-34.5 -15q-21 0 -35.5 15t-14.5 36zM100 350q0 21 14.5 36t35.5 15q20 0 34.5 -15t14.5 -36q0 -22 -14.5 -37t-34.5 -15q-21 0 -35.5 15t-14.5 37zM100 248q0 21 15 35.5t37 14.5t37 -14.5t15 -35.5t-15 -35.5t-37 -14.5t-37 14.5
t-15 35.5zM100 148q0 20 15 35t37 15t37 -15t15 -35q0 -21 -15 -36t-37 -15t-37 15t-15 36zM400 349q0 20 15 34.5t36 14.5q20 0 35 -14.5t15 -34.5t-15 -34.5t-35 -14.5q-21 0 -36 14.5t-15 34.5zM401 148q0 21 14.5 36t35.5 15q20 0 34.5 -15t14.5 -36t-14.5 -36
t-34.5 -15q-21 0 -35.5 15t-14.5 36zM300 449q0 20 15 34.5t36 14.5q20 0 35 -14.5t15 -34.5t-15 -34.5t-35 -14.5q-21 0 -36 14.5t-15 34.5zM301 48q0 21 14.5 36t35.5 15q20 0 34.5 -15t14.5 -36t-14.5 -36t-34.5 -15q-21 0 -35.5 15t-14.5 36z" />
    <glyph glyph-name="d" unicode="d" 
d="M398 648q0 20 -15 34.5t-36 14.5q-22 0 -37 -14.5t-15 -34.5t15 -34.5t37 -14.5q21 0 36 14.5t15 34.5zM398 548q0 21 -15 36t-36 15q-22 0 -37 -15t-15 -36t15 -36t37 -15q21 0 36 15t15 36zM398 349q0 20 -15 34.5t-36 14.5q-22 0 -37 -14.5t-15 -34.5t15 -34.5
t37 -14.5q21 0 36 14.5t15 34.5zM398 250q0 20 -15 35t-36 15q-22 0 -37 -15t-15 -35q0 -21 15 -36t37 -15q21 0 36 15t15 36zM398 149q0 20 -15 35t-36 15q-22 0 -37 -15t-15 -35q0 -21 15 -36t37 -15q21 0 36 15t15 36zM196 50q0 21 -15 35.5t-36 14.5t-36 -14.5
t-15 -35.5t15 -35.5t36 -14.5t36 14.5t15 35.5zM97 148q0 21 -15 36t-37 15t-37 -15t-15 -36q0 -22 15 -37t37 -15t37 15t15 37zM100 247q0 19 -15.5 33t-37.5 14q-23 0 -38.5 -14t-15.5 -33q0 -20 15.5 -34t38.5 -14q22 0 37.5 14t15.5 34zM100 346q0 22 -15 37t-37 15
t-37 -15t-15 -37t15 -37t37 -15t37 15t15 37zM197 447q0 21 -14.5 36t-34.5 15t-34.5 -15t-14.5 -36t14.5 -36t34.5 -15t34.5 15t14.5 36zM297 449q0 20 -14.5 34.5t-35.5 14.5t-35.5 -14.5t-14.5 -34.5t14.5 -34.5t35.5 -14.5t35.5 14.5t14.5 34.5zM498 648q0 20 -15 34.5
t-36 14.5q-22 0 -37 -14.5t-15 -34.5t15 -34.5t37 -14.5q21 0 36 14.5t15 34.5zM498 548q0 21 -15 36t-36 15q-22 0 -37 -15t-15 -36t15 -36t37 -15q21 0 36 15t15 36zM498 448q0 20 -15 34.5t-36 14.5q-22 0 -37 -14.5t-15 -34.5q0 -21 15 -35.5t37 -14.5q21 0 36 14.5
t15 35.5zM498 349q0 20 -15 34.5t-36 14.5q-22 0 -37 -14.5t-15 -34.5t15 -34.5t37 -14.5q21 0 36 14.5t15 34.5zM498 250q0 20 -15 35t-36 15q-22 0 -37 -15t-15 -35q0 -21 15 -36t37 -15q21 0 36 15t15 36zM498 149q0 20 -15 35t-36 15q-22 0 -37 -15t-15 -35
q0 -21 15 -36t37 -15q21 0 36 15t15 36zM498 49q0 20 -15 34.5t-36 14.5q-22 0 -37 -14.5t-15 -34.5t15 -34.5t37 -14.5q21 0 36 14.5t15 34.5zM395 50q0 21 -14.5 35.5t-34.5 14.5q-21 0 -35.5 -14.5t-14.5 -35.5t14.5 -35.5t35.5 -14.5q20 0 34.5 14.5t14.5 35.5zM299 50
q0 21 -15 35.5t-36 14.5t-36 -14.5t-15 -35.5t15 -35.5t36 -14.5t36 14.5t15 35.5zM197 148q0 21 -15 36t-37 15t-37 -15t-15 -36q0 -22 15 -37t37 -15t37 15t15 37zM200 247q0 19 -15.5 33t-37.5 14q-47 0 -47 -47q0 -48 47 -48q22 0 37.5 14t15.5 34zM200 346q0 22 -15 37
t-37 15t-37 -15t-15 -37t15 -37t37 -15t37 15t15 37zM397 449q0 20 -14.5 34.5t-35.5 14.5t-35.5 -14.5t-14.5 -34.5t14.5 -34.5t35.5 -14.5t35.5 14.5t14.5 34.5z" />
    <glyph glyph-name="e" unicode="e" 
d="M99 447q0 20 15 34.5t36 14.5t36 -14.5t15 -34.5t-15 -34.5t-36 -14.5t-36 14.5t-15 34.5zM201 449q0 21 14.5 36t35.5 15q20 0 34.5 -15t14.5 -36t-14.5 -36t-34.5 -15q-21 0 -35.5 15t-14.5 36zM302 348q0 21 15 36.5t36 15.5t36 -15.5t15 -36.5q0 -22 -15 -37t-36 -15
t-36 15t-15 37zM301 248q0 20 15 34.5t36 14.5t36 -14.5t15 -34.5t-15 -34.5t-36 -14.5t-36 14.5t-15 34.5zM200 248q0 20 15 34.5t36 14.5q20 0 35 -14.5t15 -34.5t-15 -34.5t-35 -14.5q-21 0 -36 14.5t-15 34.5zM101 248q0 20 14.5 34.5t35.5 14.5q20 0 34.5 -14.5
t14.5 -34.5q0 -21 -14.5 -35.5t-34.5 -14.5q-21 0 -35.5 14.5t-14.5 35.5zM0 247q0 20 15 34.5t36 14.5q20 0 35 -14.5t15 -34.5t-15 -34.5t-35 -14.5q-21 0 -36 14.5t-15 34.5zM0 348q0 21 15 36t36 15q20 0 35 -15t15 -36q0 -22 -15 -37t-35 -15q-21 0 -36 15t-15 37z
M0 148q0 20 15 34t36 14t36 -14t15 -34q0 -21 -15 -35t-36 -14t-36 14t-15 35zM101 47q0 19 15 33t36 14t36 -14t15 -33t-15 -33t-36 -14t-36 14t-15 33zM203 49q0 20 14.5 34t35.5 14t35.5 -14t14.5 -34q0 -21 -14.5 -35t-35.5 -14t-35.5 14t-14.5 35zM402 348
q0 21 15 36.5t36 15.5t36 -15.5t15 -36.5q0 -22 -15 -37t-36 -15t-36 15t-15 37zM302 448q0 21 15 36.5t36 15.5t36 -15.5t15 -36.5q0 -22 -15 -37t-36 -15t-36 15t-15 37zM402 248q0 21 15 36.5t36 15.5t36 -15.5t15 -36.5q0 -22 -15 -37t-36 -15t-36 15t-15 37zM102 348
q0 21 15 36.5t36 15.5t36 -15.5t15 -36.5q0 -22 -15 -37t-36 -15t-36 15t-15 37zM102 148q0 21 15 36.5t36 15.5t36 -15.5t15 -36.5q0 -22 -15 -37t-36 -15t-36 15t-15 37zM302 48q0 21 15 36.5t36 15.5t36 -15.5t15 -36.5q0 -22 -15 -37t-36 -15t-36 15t-15 37z" />
    <glyph glyph-name="f" unicode="f" horiz-adv-x="500" 
d="M198 649q0 20 15 34t36 14t36 -14t15 -34q0 -21 -15 -35t-36 -14t-36 14t-15 35zM100 550q0 21 14.5 35.5t34.5 14.5t34.5 -14.5t14.5 -35.5t-14.5 -35.5t-34.5 -14.5t-34.5 14.5t-14.5 35.5zM100 451q0 20 15 34.5t36 14.5t36 -14.5t15 -34.5q0 -21 -15 -35.5t-36 -14.5
t-36 14.5t-15 35.5zM99 350q0 21 15 36t37 15q21 0 36 -15t15 -36q0 -22 -15 -37t-36 -15q-22 0 -37 15t-15 37zM99 249q0 20 15.5 34.5t37.5 14.5t37.5 -14.5t15.5 -34.5t-15.5 -34.5t-37.5 -14.5t-37.5 14.5t-15.5 34.5zM98 149q0 21 15.5 36t38.5 15q22 0 37.5 -15
t15.5 -36t-15.5 -36t-37.5 -15q-23 0 -38.5 15t-15.5 36zM98 49q0 20 15 34.5t37 14.5t37 -14.5t15 -34.5t-15 -34.5t-37 -14.5t-37 14.5t-15 34.5zM0 349q0 20 15 34t36 14q20 0 35 -14t15 -34q0 -21 -15 -35t-35 -14q-21 0 -36 14t-15 35zM298 649q0 20 15 34t36 14
t36 -14t15 -34q0 -21 -15 -35t-36 -14t-36 14t-15 35zM200 550q0 21 14.5 35.5t34.5 14.5t34.5 -14.5t14.5 -35.5t-14.5 -35.5t-34.5 -14.5t-34.5 14.5t-14.5 35.5zM200 451q0 20 15 34.5t36 14.5t36 -14.5t15 -34.5q0 -21 -15 -35.5t-36 -14.5t-36 14.5t-15 35.5zM199 350
q0 21 15 36t37 15q21 0 36 -15t15 -36q0 -22 -15 -37t-36 -15q-22 0 -37 15t-15 37zM209 248q0 20 15.5 34.5t37.5 14.5t37.5 -14.5t15.5 -34.5q0 -21 -15.5 -35t-37.5 -14t-37.5 14t-15.5 35zM208 149q0 21 15.5 36t38.5 15q22 0 37.5 -15t15.5 -36t-15.5 -36t-37.5 -15
q-23 0 -38.5 15t-15.5 36zM202 49q0 20 15.5 34.5t36.5 14.5q22 0 37 -14.5t15 -34.5q0 -49 -52 -49q-21 0 -36.5 14.5t-15.5 34.5zM298 348q0 20 15 34.5t36 14.5t35.5 -14.5t14.5 -34.5q0 -21 -14.5 -35t-35.5 -14t-36 14t-15 35z" />
    <glyph glyph-name="g" unicode="g" 
d="M0 -150q0 20 15 34t36 14t36 -14t15 -34t-15 -34t-36 -14t-36 14t-15 34zM301 -51q0 21 15 36t37 15q21 0 36 -15t15 -36t-15 -36t-36 -15q-22 0 -37 15t-15 36zM300 49q0 20 15 34.5t37 14.5t37 -14.5t15 -34.5t-15 -34.5t-37 -14.5t-37 14.5t-15 34.5zM200 49
q0 20 14.5 34.5t35.5 14.5t35.5 -14.5t14.5 -34.5t-14.5 -34.5t-35.5 -14.5t-35.5 14.5t-14.5 34.5zM98 48q0 20 15 34t36 14t36 -14t15 -34t-15 -34t-36 -14t-36 14t-15 34zM0 147q0 20 14.5 35t34.5 15t34.5 -15t14.5 -35q0 -21 -14.5 -36t-34.5 -15t-34.5 15t-14.5 36z
M0 248q0 21 15 36t37 15q21 0 36 -15t15 -36t-15 -36t-36 -15q-22 0 -37 15t-15 36zM0 348q0 20 15 34t37 14q21 0 36 -14t15 -34q0 -21 -15 -35t-36 -14q-22 0 -37 14t-15 35zM97 444q0 21 15.5 35.5t37.5 14.5q21 0 36.5 -14.5t15.5 -35.5t-15.5 -35.5t-36.5 -14.5
q-22 0 -37.5 14.5t-15.5 35.5zM301 349q0 21 14.5 36t35.5 15q20 0 34.5 -15t14.5 -36q0 -22 -14.5 -37t-34.5 -15q-21 0 -35.5 15t-14.5 37zM301 247q0 21 15 35.5t37 14.5q21 0 36 -14.5t15 -35.5t-15 -35.5t-36 -14.5q-22 0 -37 14.5t-15 35.5zM299 148q0 20 15.5 34.5
t37.5 14.5q21 0 36.5 -14.5t15.5 -34.5q0 -21 -15.5 -35.5t-36.5 -14.5q-22 0 -37.5 14.5t-15.5 35.5zM100 -150q0 20 15 34t36 14t36 -14t15 -34t-15 -34t-36 -14t-36 14t-15 34zM202 -150q0 20 15 34t36 14q20 0 35 -14t15 -34t-15 -34t-35 -14q-21 0 -36 14t-15 34z
M303 -150q0 20 14.5 34t34.5 14t34.5 -14t14.5 -34t-14.5 -34t-34.5 -14t-34.5 14t-14.5 34zM401 -51q0 21 15 36t37 15q21 0 36 -15t15 -36t-15 -36t-36 -15q-22 0 -37 15t-15 36zM400 49q0 20 15 34.5t37 14.5t37 -14.5t15 -34.5t-15 -34.5t-37 -14.5t-37 14.5t-15 34.5z
M100 147q0 20 14.5 35t34.5 15t34.5 -15t14.5 -35q0 -21 -14.5 -36t-34.5 -15t-34.5 15t-14.5 36zM100 248q0 21 15 36t37 15q21 0 36 -15t15 -36t-15 -36t-36 -15q-22 0 -37 15t-15 36zM100 348q0 20 15 34t37 14q21 0 36 -14t15 -34q0 -21 -15 -35t-36 -14q-22 0 -37 14
t-15 35zM197 444q0 21 15.5 35.5t37.5 14.5q21 0 36.5 -14.5t15.5 -35.5t-15.5 -35.5t-36.5 -14.5q-22 0 -37.5 14.5t-15.5 35.5zM302 448q0 19 14.5 32.5t34.5 13.5t34.5 -13.5t14.5 -32.5q0 -20 -14.5 -33.5t-34.5 -13.5t-34.5 13.5t-14.5 33.5zM400 450q0 20 15.5 34
t37.5 14q21 0 36.5 -14t15.5 -34q0 -21 -15.5 -35t-36.5 -14q-22 0 -37.5 14t-15.5 35zM401 349q0 21 14.5 36t35.5 15q20 0 34.5 -15t14.5 -36q0 -22 -14.5 -37t-34.5 -15q-21 0 -35.5 15t-14.5 37zM401 247q0 21 15 35.5t37 14.5q21 0 36 -14.5t15 -35.5t-15 -35.5
t-36 -14.5q-22 0 -37 14.5t-15 35.5zM399 148q0 20 15.5 34.5t37.5 14.5q21 0 36.5 -14.5t15.5 -34.5q0 -21 -15.5 -35.5t-36.5 -14.5q-22 0 -37.5 14.5t-15.5 35.5z" />
    <glyph glyph-name="h" unicode="h" 
d="M0 649q0 20 15 34t36 14t36 -14t15 -34q0 -21 -15 -35t-36 -14t-36 14t-15 35zM0 550q0 21 15 35.5t36 14.5t36 -14.5t15 -35.5t-15 -35.5t-36 -14.5t-36 14.5t-15 35.5zM0 450q0 21 15 35.5t36 14.5q20 0 35 -14.5t15 -35.5t-15 -35.5t-35 -14.5q-21 0 -36 14.5
t-15 35.5zM0 350q0 20 15 35t36 15q20 0 35 -15t15 -35q0 -21 -15 -36t-35 -15q-21 0 -36 15t-15 36zM0 248q0 21 15 36t36 15t36 -15t15 -36t-15 -36t-36 -15t-36 15t-15 36zM0 148q0 20 15 34.5t36 14.5t36 -14.5t15 -34.5q0 -21 -15 -35.5t-36 -14.5t-36 14.5t-15 35.5z
M0 49q0 20 15 34.5t36 14.5q20 0 35 -14.5t15 -34.5t-15 -34.5t-35 -14.5q-21 0 -36 14.5t-15 34.5zM301 49q0 20 14.5 34t35.5 14t35.5 -14t14.5 -34q0 -21 -14.5 -35t-35.5 -14t-35.5 14t-14.5 35zM298 148q0 20 15 35t37 15q21 0 36 -15t15 -35q0 -21 -15 -36t-36 -15
q-22 0 -37 15t-15 36zM298 247q0 20 15.5 34.5t37.5 14.5q21 0 36.5 -14.5t15.5 -34.5t-15.5 -34.5t-36.5 -14.5q-22 0 -37.5 14.5t-15.5 34.5zM299 348q0 22 15 37t37 15t37 -15t15 -37t-15 -37t-37 -15t-37 15t-15 37zM101 449q0 21 14.5 35.5t34.5 14.5t34.5 -14.5
t14.5 -35.5t-14.5 -35.5t-34.5 -14.5t-34.5 14.5t-14.5 35.5zM100 649q0 20 15 34t36 14t36 -14t15 -34q0 -21 -15 -35t-36 -14t-36 14t-15 35zM100 550q0 21 15 35.5t36 14.5t36 -14.5t15 -35.5t-15 -35.5t-36 -14.5t-36 14.5t-15 35.5zM100 350q0 20 15 35t36 15
q20 0 35 -15t15 -35q0 -21 -15 -36t-35 -15q-21 0 -36 15t-15 36zM100 248q0 21 15 36t36 15t36 -15t15 -36t-15 -36t-36 -15t-36 15t-15 36zM100 148q0 20 15 34.5t36 14.5t36 -14.5t15 -34.5q0 -21 -15 -35.5t-36 -14.5t-36 14.5t-15 35.5zM100 49q0 20 15 34.5t36 14.5
q20 0 35 -14.5t15 -34.5t-15 -34.5t-35 -14.5q-21 0 -36 14.5t-15 34.5zM401 49q0 20 14.5 34t35.5 14t35.5 -14t14.5 -34q0 -21 -14.5 -35t-35.5 -14t-35.5 14t-14.5 35zM398 148q0 20 15 35t37 15q21 0 36 -15t15 -35q0 -21 -15 -36t-36 -15q-22 0 -37 15t-15 36zM398 247
q0 20 15.5 34.5t37.5 14.5q21 0 36.5 -14.5t15.5 -34.5t-15.5 -34.5t-36.5 -14.5q-22 0 -37.5 14.5t-15.5 34.5zM399 348q0 22 15 37t37 15t37 -15t15 -37t-15 -37t-37 -15t-37 15t-15 37zM299 450q0 20 14.5 34.5t35.5 14.5t35.5 -14.5t14.5 -34.5q0 -21 -14.5 -35.5
t-35.5 -14.5t-35.5 14.5t-14.5 35.5zM200 449q0 21 14 35.5t35 14.5q20 0 34.5 -14.5t14.5 -35.5t-14.5 -35.5t-34.5 -14.5q-21 0 -35 14.5t-14 35.5z" />
    <glyph glyph-name="i" unicode="i" horiz-adv-x="500" 
d="M0 49q0 20 15 34.5t37 14.5q21 0 36 -14.5t15 -34.5t-15 -34.5t-36 -14.5q-22 0 -37 14.5t-15 34.5zM103 49q0 20 14.5 34.5t34.5 14.5t35 -15t15 -35q0 -21 -14 -35t-35 -14q-20 0 -35 15t-15 35zM202 47q0 20 14.5 34.5t35.5 14.5t35.5 -14.5t14.5 -34.5t-14.5 -34.5
t-35.5 -14.5t-35.5 14.5t-14.5 34.5zM0 450q0 19 15 33t37 14t37 -14t15 -33t-15 -33t-37 -14t-37 14t-15 33zM98 350q0 21 15 35.5t37 14.5q21 0 36 -14.5t15 -35.5t-15 -35.5t-36 -14.5q-22 0 -37 14.5t-15 35.5zM98 249q0 21 15.5 36t37.5 15q21 0 36.5 -15t15.5 -36
t-15.5 -36t-36.5 -15q-22 0 -37.5 15t-15.5 36zM98 149q0 20 15.5 34.5t37.5 14.5q21 0 36.5 -14.5t15.5 -34.5q0 -21 -15.5 -35.5t-36.5 -14.5q-22 0 -37.5 14.5t-15.5 35.5zM98 648q0 20 15 34.5t37 14.5t37 -14.5t15 -34.5t-15 -34.5t-37 -14.5t-37 14.5t-15 34.5z
M301 49q0 20 14.5 34.5t35.5 14.5t35.5 -14.5t14.5 -34.5t-14.5 -34.5t-35.5 -14.5t-35.5 14.5t-14.5 34.5zM100 450q0 19 15 33t37 14t37 -14t15 -33t-15 -33t-37 -14t-37 14t-15 33zM204 449q0 20 14 34t35 14q20 0 34 -14t14 -34q0 -21 -14 -35t-34 -14q-21 0 -35 14
t-14 35zM198 350q0 21 15 35.5t37 14.5q21 0 36 -14.5t15 -35.5t-15 -35.5t-36 -14.5q-22 0 -37 14.5t-15 35.5zM198 249q0 21 15.5 36t37.5 15q21 0 36.5 -15t15.5 -36t-15.5 -36t-36.5 -15q-22 0 -37.5 15t-15.5 36zM198 149q0 20 15.5 34.5t37.5 14.5q21 0 36.5 -14.5
t15.5 -34.5q0 -21 -15.5 -35.5t-36.5 -14.5q-22 0 -37.5 14.5t-15.5 35.5zM198 648q0 20 15 34.5t37 14.5t37 -14.5t15 -34.5t-15 -34.5t-37 -14.5t-37 14.5t-15 34.5z" />
    <glyph glyph-name="j" unicode="j" horiz-adv-x="500" 
d="M201 649q0 20 14.5 34t34.5 14t34.5 -14t14.5 -34q0 -21 -14.5 -35t-34.5 -14t-34.5 14t-14.5 35zM100 450q0 19 15 33t36 14t36 -14t15 -33t-15 -33t-36 -14t-36 14t-15 33zM199 350q0 20 15 35t36 15t36 -15t15 -35q0 -21 -15 -36t-36 -15t-36 15t-15 36zM199 250
q0 20 15 34.5t37 14.5t37 -14.5t15 -34.5t-15 -34.5t-37 -14.5t-37 14.5t-15 34.5zM198 151q0 21 15.5 35.5t37.5 14.5q21 0 36.5 -14.5t15.5 -35.5t-15.5 -35.5t-36.5 -14.5q-22 0 -37.5 14.5t-15.5 35.5zM198 51q0 20 15 35t37 15q21 0 36 -15t15 -35q0 -21 -15 -36
t-36 -15q-22 0 -37 15t-15 36zM198 -50q0 21 15 35.5t37 14.5t37 -14.5t15 -35.5q0 -20 -15 -34.5t-37 -14.5t-37 14.5t-15 34.5zM100 -149q0 21 14.5 35.5t34.5 14.5t34.5 -14.5t14.5 -35.5q0 -20 -14.5 -34.5t-34.5 -14.5t-34.5 14.5t-14.5 34.5zM0 -151q0 20 14.5 34
t35.5 14t35.5 -14t14.5 -34q0 -19 -14.5 -33t-35.5 -14t-35.5 14t-14.5 33zM-102 -52q0 22 15 37t36 15t36 -15t15 -37q0 -21 -15 -36t-36 -15t-36 15t-15 36zM301 649q0 20 14.5 34t34.5 14t34.5 -14t14.5 -34q0 -21 -14.5 -35t-34.5 -14t-34.5 14t-14.5 35zM200 450
q0 19 15 33t36 14t36 -14t15 -33t-15 -33t-36 -14t-36 14t-15 33zM302 449q0 20 14.5 34t35.5 14q20 0 34.5 -14t14.5 -34q0 -21 -14.5 -35t-34.5 -14q-21 0 -35.5 14t-14.5 35zM299 350q0 20 15 35t36 15t36 -15t15 -35q0 -21 -15 -36t-36 -15t-36 15t-15 36zM299 250
q0 20 15 34.5t37 14.5t37 -14.5t15 -34.5t-15 -34.5t-37 -14.5t-37 14.5t-15 34.5zM298 151q0 21 15.5 35.5t37.5 14.5q21 0 36.5 -14.5t15.5 -35.5t-15.5 -35.5t-36.5 -14.5q-22 0 -37.5 14.5t-15.5 35.5zM298 51q0 20 15 35t37 15q21 0 36 -15t15 -35q0 -21 -15 -36
t-36 -15q-22 0 -37 15t-15 36zM298 -50q0 21 15 35.5t37 14.5t37 -14.5t15 -35.5q0 -20 -15 -34.5t-37 -14.5t-37 14.5t-15 34.5zM200 -149q0 21 14.5 35.5t34.5 14.5t34.5 -14.5t14.5 -35.5q0 -20 -14.5 -34.5t-34.5 -14.5t-34.5 14.5t-14.5 34.5zM-2 -52q0 22 15 37t36 15
t36 -15t15 -37q0 -21 -15 -36t-36 -15t-36 15t-15 36z" />
    <glyph glyph-name="k" unicode="k" 
d="M0 648q0 20 15 34.5t36 14.5t36 -14.5t15 -34.5t-15 -34.5t-36 -14.5t-36 14.5t-15 34.5zM0 550q0 20 15 34.5t36 14.5t36 -14.5t15 -34.5q0 -21 -15 -35.5t-36 -14.5t-36 14.5t-15 35.5zM0 451q0 20 15 34.5t37 14.5q21 0 36 -14.5t15 -34.5t-15 -34.5t-36 -14.5
q-22 0 -37 14.5t-15 34.5zM0 351q0 21 15 36t37 15q21 0 36 -15t15 -36q0 -22 -15 -37t-36 -15q-22 0 -37 15t-15 37zM0 250q0 20 14.5 34.5t35.5 14.5t35.5 -14.5t14.5 -34.5q0 -21 -14.5 -35.5t-35.5 -14.5t-35.5 14.5t-14.5 35.5zM200 349q0 20 15 34.5t37 14.5t37 -14.5
t15 -34.5q0 -21 -15 -35.5t-37 -14.5t-37 14.5t-15 35.5zM304 448q0 20 14.5 34.5t34.5 14.5t34.5 -14.5t14.5 -34.5q0 -21 -14.5 -35.5t-34.5 -14.5t-34.5 14.5t-14.5 35.5zM0 49q0 20 15 34.5t36 14.5t36 -14.5t15 -34.5t-15 -34.5t-36 -14.5t-36 14.5t-15 34.5zM0 149
q0 20 15 34.5t36 14.5q20 0 35 -14.5t15 -34.5q0 -21 -15 -35.5t-35 -14.5q-21 0 -36 14.5t-15 35.5zM298 50q0 20 15 34.5t37 14.5t37 -14.5t15 -34.5q0 -21 -15 -35.5t-37 -14.5t-37 14.5t-15 35.5zM200 149q0 20 14.5 34.5t34.5 14.5t34.5 -14.5t14.5 -34.5
q0 -21 -14.5 -35.5t-34.5 -14.5t-34.5 14.5t-14.5 35.5zM100 648q0 20 15 34.5t36 14.5t36 -14.5t15 -34.5t-15 -34.5t-36 -14.5t-36 14.5t-15 34.5zM100 550q0 20 15 34.5t36 14.5t36 -14.5t15 -34.5q0 -21 -15 -35.5t-36 -14.5t-36 14.5t-15 35.5zM100 451q0 20 15 34.5
t37 14.5q21 0 36 -14.5t15 -34.5t-15 -34.5t-36 -14.5q-22 0 -37 14.5t-15 34.5zM100 351q0 21 15 36t37 15q21 0 36 -15t15 -36q0 -22 -15 -37t-36 -15q-22 0 -37 15t-15 37zM100 250q0 20 14.5 34.5t35.5 14.5t35.5 -14.5t14.5 -34.5q0 -21 -14.5 -35.5t-35.5 -14.5
t-35.5 14.5t-14.5 35.5zM200 250q0 20 14.5 34.5t35.5 14.5t35.5 -14.5t14.5 -34.5q0 -21 -14.5 -35.5t-35.5 -14.5t-35.5 14.5t-14.5 35.5zM304 349q0 20 15.5 34.5t36.5 14.5q22 0 37 -14.5t15 -34.5q0 -21 -15 -35.5t-37 -14.5q-21 0 -36.5 14.5t-15.5 35.5zM404 448
q0 20 14.5 34.5t34.5 14.5t34.5 -14.5t14.5 -34.5q0 -21 -14.5 -35.5t-34.5 -14.5t-34.5 14.5t-14.5 35.5zM100 49q0 20 15 34.5t36 14.5t36 -14.5t15 -34.5t-15 -34.5t-36 -14.5t-36 14.5t-15 34.5zM100 149q0 20 15 34.5t36 14.5q20 0 35 -14.5t15 -34.5q0 -21 -15 -35.5
t-35 -14.5q-21 0 -36 14.5t-15 35.5zM398 50q0 20 15 34.5t37 14.5t37 -14.5t15 -34.5q0 -21 -15 -35.5t-37 -14.5t-37 14.5t-15 35.5zM300 149q0 20 14.5 34.5t34.5 14.5t34.5 -14.5t14.5 -34.5q0 -21 -14.5 -35.5t-34.5 -14.5t-34.5 14.5t-14.5 35.5z" />
    <glyph glyph-name="l" unicode="l" horiz-adv-x="500" 
d="M0 650q0 19 15 33t36 14t36 -14t15 -33q0 -20 -15 -34t-36 -14t-36 14t-15 34zM100 548q0 20 15 34.5t36 14.5q20 0 35 -14.5t15 -34.5t-15 -34.5t-35 -14.5q-21 0 -36 14.5t-15 34.5zM100 449q0 20 15 35t36 15q20 0 35 -15t15 -35q0 -21 -15 -36t-35 -15q-21 0 -36 15
t-15 36zM99 349q0 20 15 34.5t36 14.5t36 -14.5t15 -34.5q0 -21 -15 -35.5t-36 -14.5t-36 14.5t-15 35.5zM99 249q0 20 15.5 35t37.5 15q21 0 36.5 -15t15.5 -35q0 -21 -15.5 -36t-36.5 -15q-22 0 -37.5 15t-15.5 36zM101 148q0 21 15 35.5t37 14.5q21 0 36 -14.5t15 -35.5
t-15 -35.5t-36 -14.5q-22 0 -37 14.5t-15 35.5zM0 48q0 20 15 34t36 14q20 0 35 -14t15 -34t-15 -34t-35 -14q-21 0 -36 14t-15 34zM100 650q0 19 15 33t36 14t36 -14t15 -33q0 -20 -15 -34t-36 -14t-36 14t-15 34zM202 650q0 19 15 33t36 14q20 0 35 -14t15 -33
q0 -20 -15 -34t-35 -14q-21 0 -36 14t-15 34zM200 548q0 20 15 34.5t36 14.5q20 0 35 -14.5t15 -34.5t-15 -34.5t-35 -14.5q-21 0 -36 14.5t-15 34.5zM200 449q0 20 15 35t36 15q20 0 35 -15t15 -35q0 -21 -15 -36t-35 -15q-21 0 -36 15t-15 36zM199 349q0 20 15 34.5
t36 14.5t36 -14.5t15 -34.5q0 -21 -15 -35.5t-36 -14.5t-36 14.5t-15 35.5zM199 249q0 20 15.5 35t37.5 15q21 0 36.5 -15t15.5 -35q0 -21 -15.5 -36t-36.5 -15q-22 0 -37.5 15t-15.5 36zM201 148q0 21 15 35.5t37 14.5q21 0 36 -14.5t15 -35.5t-15 -35.5t-36 -14.5
q-22 0 -37 14.5t-15 35.5zM201 49q0 20 14.5 34.5t35.5 14.5t35.5 -14.5t14.5 -34.5t-14.5 -34.5t-35.5 -14.5t-35.5 14.5t-14.5 34.5zM301 49q0 20 15 34.5t36 14.5t36 -14.5t15 -34.5t-15 -34.5t-36 -14.5t-36 14.5t-15 34.5zM103 47q0 20 14.5 34t35.5 14t36 -14t15 -34
t-15 -34t-36 -14t-35.5 14t-14.5 34z" />
    <glyph glyph-name="m" unicode="m" horiz-adv-x="800" 
d="M100 49q0 20 14.5 34.5t35.5 14.5t35.5 -14.5t14.5 -34.5t-14.5 -34.5t-35.5 -14.5t-35.5 14.5t-14.5 34.5zM100 148q0 20 14.5 34.5t35.5 14.5t35.5 -14.5t14.5 -34.5q0 -21 -14.5 -35.5t-35.5 -14.5t-35.5 14.5t-14.5 35.5zM100 247q0 20 15 34.5t37 14.5t37 -14.5
t15 -34.5q0 -21 -15 -35.5t-37 -14.5t-37 14.5t-15 35.5zM100 347q0 21 15 36t37 15t37 -15t15 -36t-15 -36t-37 -15t-37 15t-15 36zM100 448q0 20 15 34.5t36 14.5q20 0 35 -14.5t15 -34.5q0 -21 -15 -35.5t-35 -14.5q-21 0 -36 14.5t-15 35.5zM201 450q0 19 15 33t36 14
q20 0 35 -14t15 -33q0 -20 -15 -34t-35 -14q-21 0 -36 14t-15 34zM302 351q0 21 14.5 36t35.5 15t35.5 -15t14.5 -36t-14.5 -36t-35.5 -15t-35.5 15t-14.5 36zM299 250q0 21 15 35.5t37 14.5q21 0 36 -14.5t15 -35.5t-15 -35.5t-36 -14.5q-22 0 -37 14.5t-15 35.5zM299 151
q0 20 15 34.5t37 14.5q21 0 36 -14.5t15 -34.5q0 -21 -15 -35.5t-36 -14.5q-22 0 -37 14.5t-15 35.5zM299 51q0 20 15 35t37 15q21 0 36 -15t15 -35q0 -21 -15 -36t-36 -15q-22 0 -37 15t-15 36zM498 49q0 20 15.5 34.5t37.5 14.5q21 0 36.5 -14.5t15.5 -34.5t-15.5 -34.5
t-36.5 -14.5q-22 0 -37.5 14.5t-15.5 34.5zM499 149q0 20 15 35t37 15t37 -15t15 -35q0 -21 -15 -36t-37 -15t-37 15t-15 36zM499 248q0 20 15 34.5t37 14.5t37 -14.5t15 -34.5t-15 -34.5t-37 -14.5t-37 14.5t-15 34.5zM500 348q0 21 15 36t37 15q21 0 36 -15t15 -36
t-15 -36t-36 -15q-22 0 -37 15t-15 36zM401 448q0 20 14.5 34.5t35.5 14.5q20 0 34.5 -14.5t14.5 -34.5t-14.5 -34.5t-34.5 -14.5q-21 0 -35.5 14.5t-14.5 34.5zM598 49q0 20 15.5 34.5t37.5 14.5q21 0 36.5 -14.5t15.5 -34.5t-15.5 -34.5t-36.5 -14.5q-22 0 -37.5 14.5
t-15.5 34.5zM599 149q0 20 15 35t37 15t37 -15t15 -35q0 -21 -15 -36t-37 -15t-37 15t-15 36zM599 248q0 20 15 34.5t37 14.5t37 -14.5t15 -34.5t-15 -34.5t-37 -14.5t-37 14.5t-15 34.5zM600 348q0 21 15 36t37 15q21 0 36 -15t15 -36t-15 -36t-36 -15q-22 0 -37 15t-15 36
zM-2 49q0 20 15.5 34.5t37.5 14.5q21 0 36.5 -14.5t15.5 -34.5t-15.5 -34.5t-36.5 -14.5q-22 0 -37.5 14.5t-15.5 34.5zM-1 149q0 20 15 35t37 15t37 -15t15 -35q0 -21 -15 -36t-37 -15t-37 15t-15 36zM-1 248q0 20 15 34.5t37 14.5t37 -14.5t15 -34.5t-15 -34.5t-37 -14.5
t-37 14.5t-15 34.5zM0 348q0 21 15 36t37 15q21 0 36 -15t15 -36t-15 -36t-36 -15q-22 0 -37 15t-15 36zM501 448q0 20 14.5 34.5t35.5 14.5q20 0 34.5 -14.5t14.5 -34.5t-14.5 -34.5t-34.5 -14.5q-21 0 -35.5 14.5t-14.5 34.5zM1 448q0 20 14.5 34.5t35.5 14.5
q20 0 34.5 -14.5t14.5 -34.5t-14.5 -34.5t-34.5 -14.5q-21 0 -35.5 14.5t-14.5 34.5z" />
    <glyph glyph-name="n" unicode="n" 
d="M0 48q0 20 15 34t37 14q21 0 36 -14t15 -34t-15 -34t-36 -14q-22 0 -37 14t-15 34zM0 147q0 20 15 35t37 15q21 0 36 -15t15 -35q0 -21 -15 -36t-36 -15q-22 0 -37 15t-15 36zM0 248q0 20 15 35t36 15q20 0 35 -15t15 -35q0 -21 -15 -36t-35 -15q-21 0 -36 15t-15 36z
M0 347q0 20 15 34.5t36 14.5q20 0 35 -14.5t15 -34.5t-15 -34.5t-35 -14.5q-21 0 -36 14.5t-15 34.5zM0 447q0 21 15 36t36 15q20 0 35 -15t15 -36t-15 -36t-35 -15q-21 0 -36 15t-15 36zM301 349q0 20 15 34.5t36 14.5t36 -14.5t15 -34.5t-15 -34.5t-36 -14.5t-36 14.5
t-15 34.5zM298 250q0 20 15.5 35t37.5 15q21 0 36.5 -15t15.5 -35q0 -21 -15.5 -36t-36.5 -15q-22 0 -37.5 15t-15.5 36zM298 149q0 21 15 35.5t37 14.5q21 0 36 -14.5t15 -35.5t-15 -35.5t-36 -14.5q-22 0 -37 14.5t-15 35.5zM301 50q0 20 14.5 34.5t35.5 14.5t35.5 -14.5
t14.5 -34.5q0 -21 -14.5 -35.5t-35.5 -14.5t-35.5 14.5t-14.5 35.5zM100 48q0 20 15 34t37 14q21 0 36 -14t15 -34t-15 -34t-36 -14q-22 0 -37 14t-15 34zM100 147q0 20 15 35t37 15q21 0 36 -15t15 -35q0 -21 -15 -36t-36 -15q-22 0 -37 15t-15 36zM100 248q0 20 15 35
t36 15q20 0 35 -15t15 -35q0 -21 -15 -36t-35 -15q-21 0 -36 15t-15 36zM100 347q0 20 15 34.5t36 14.5q20 0 35 -14.5t15 -34.5t-15 -34.5t-35 -14.5q-21 0 -36 14.5t-15 34.5zM101 447q0 21 15 36t36 15t35.5 -15t14.5 -36q0 -23 -15 -37t-35 -14q-21 0 -36 15t-15 36z
M203 449q0 20 14.5 34.5t34.5 14.5q21 0 35 -14.5t14 -34.5q0 -21 -14 -35.5t-35 -14.5q-20 0 -34.5 14.5t-14.5 35.5zM300 448q0 20 15 34t36 14q20 0 35 -14t15 -34q0 -21 -15 -35t-35 -14q-21 0 -36 14t-15 35zM401 349q0 20 15 34.5t36 14.5t36 -14.5t15 -34.5
t-15 -34.5t-36 -14.5t-36 14.5t-15 34.5zM398 250q0 20 15.5 35t37.5 15q21 0 36.5 -15t15.5 -35q0 -21 -15.5 -36t-36.5 -15q-22 0 -37.5 15t-15.5 36zM398 149q0 21 15 35.5t37 14.5q21 0 36 -14.5t15 -35.5t-15 -35.5t-36 -14.5q-22 0 -37 14.5t-15 35.5zM401 50
q0 20 14.5 34.5t35.5 14.5t35.5 -14.5t14.5 -34.5q0 -21 -14.5 -35.5t-35.5 -14.5t-35.5 14.5t-14.5 35.5z" />
    <glyph glyph-name="o" unicode="o" 
d="M0 347q0 19 15 33t36 14t36 -14t15 -33t-15 -33t-36 -14t-36 14t-15 33zM0 250q0 20 15 35t36 15t36 -15t15 -35q0 -21 -15 -36t-36 -15t-36 15t-15 36zM0 150q0 20 15 34.5t36 14.5t36 -14.5t15 -34.5q0 -21 -15 -35.5t-36 -14.5t-36 14.5t-15 35.5zM102 50
q0 21 14.5 35.5t35.5 14.5q20 0 34.5 -14.5t14.5 -35.5t-14.5 -35.5t-34.5 -14.5q-21 0 -35.5 14.5t-14.5 35.5zM302 148q0 20 14.5 34.5t35.5 14.5t35.5 -14.5t14.5 -34.5q0 -21 -14.5 -35.5t-35.5 -14.5t-35.5 14.5t-14.5 35.5zM299 247q0 21 15 35.5t37 14.5
q21 0 36 -14.5t15 -35.5t-15 -35.5t-36 -14.5q-22 0 -37 14.5t-15 35.5zM299 348q0 20 15 35t37 15q21 0 36 -15t15 -35q0 -21 -15 -36t-36 -15q-22 0 -37 15t-15 36zM99 449q0 20 15 34.5t36 14.5q20 0 35 -14.5t15 -34.5q0 -21 -15 -35.5t-35 -14.5q-21 0 -36 14.5
t-15 35.5zM100 347q0 19 15 33t36 14t36 -14t15 -33t-15 -33t-36 -14t-36 14t-15 33zM100 250q0 20 15 35t36 15t36 -15t15 -35q0 -21 -15 -36t-36 -15t-36 15t-15 36zM100 150q0 20 15 34.5t36 14.5t36 -14.5t15 -34.5q0 -21 -15 -35.5t-36 -14.5t-36 14.5t-15 35.5z
M202 50q0 21 14.5 35.5t35.5 14.5q20 0 34.5 -14.5t14.5 -35.5t-14.5 -35.5t-34.5 -14.5q-21 0 -35.5 14.5t-14.5 35.5zM301 49q0 20 15 34.5t36 14.5q20 0 35 -14.5t15 -34.5t-15 -34.5t-35 -14.5q-21 0 -36 14.5t-15 34.5zM402 148q0 20 14.5 34.5t35.5 14.5t35.5 -14.5
t14.5 -34.5q0 -21 -14.5 -35.5t-35.5 -14.5t-35.5 14.5t-14.5 35.5zM399 247q0 21 15 35.5t37 14.5q21 0 36 -14.5t15 -35.5t-15 -35.5t-36 -14.5q-22 0 -37 14.5t-15 35.5zM399 348q0 20 15 35t37 15q21 0 36 -15t15 -35q0 -21 -15 -36t-36 -15q-22 0 -37 15t-15 36z
M300 451q0 19 15 33t36 14t36 -14t15 -33q0 -20 -15 -34t-36 -14t-36 14t-15 34zM199 447q0 21 15 35.5t36 14.5q20 0 35 -14.5t15 -35.5q0 -20 -15 -34.5t-35 -14.5q-21 0 -36 14.5t-15 34.5z" />
    <glyph glyph-name="p" unicode="p" 
d="M0 -150q0 20 15 34t36 14t36 -14t15 -34t-15 -34t-36 -14t-36 14t-15 34zM0 -51q0 21 15 36t36 15t36 -15t15 -36t-15 -36t-36 -15t-36 15t-15 36zM0 50q0 21 15 35.5t37 14.5t37 -14.5t15 -35.5t-15 -35.5t-37 -14.5t-37 14.5t-15 35.5zM0 149q0 20 15 34t37 14t37 -14
t15 -34q0 -21 -15 -35t-37 -14t-37 14t-15 35zM0 247q0 20 15 34.5t36 14.5q20 0 35 -14.5t15 -34.5q0 -21 -15 -35.5t-35 -14.5q-21 0 -36 14.5t-15 35.5zM0 347q0 21 15 36t36 15q20 0 35 -15t15 -36t-15 -36t-35 -15q-21 0 -36 15t-15 36zM0 448q0 21 15 35.5t37 14.5
q21 0 36 -14.5t15 -35.5t-15 -35.5t-36 -14.5q-22 0 -37 14.5t-15 35.5zM304 351q0 21 14 36t35 15q20 0 34 -15t14 -36q0 -22 -14 -37t-34 -15q-21 0 -35 15t-14 37zM299 249q0 20 15 35t36 15t36 -15t15 -35q0 -21 -15 -36t-36 -15t-36 15t-15 36zM299 149q0 20 15 34.5
t37 14.5q21 0 36 -14.5t15 -34.5q0 -21 -15 -35.5t-36 -14.5q-22 0 -37 14.5t-15 35.5zM198 49q0 20 15.5 34.5t37.5 14.5q47 0 47 -49t-47 -49q-22 0 -37.5 14.5t-15.5 34.5zM105 49q0 20 13.5 34.5t33.5 14.5q19 0 32.5 -14.5t13.5 -34.5t-13.5 -34.5t-32.5 -14.5
q-20 0 -33.5 14.5t-13.5 34.5zM100 -150q0 20 15 34t36 14t36 -14t15 -34t-15 -34t-36 -14t-36 14t-15 34zM100 -51q0 21 15 36t36 15t36 -15t15 -36t-15 -36t-36 -15t-36 15t-15 36zM100 149q0 20 15 34t37 14t37 -14t15 -34q0 -21 -15 -35t-37 -14t-37 14t-15 35zM100 247
q0 20 15 34.5t36 14.5q20 0 35 -14.5t15 -34.5q0 -21 -15 -35.5t-35 -14.5q-21 0 -36 14.5t-15 35.5zM100 347q0 21 15 36t36 15q20 0 35 -15t15 -36t-15 -36t-35 -15q-21 0 -36 15t-15 36zM100 448q0 21 15 35.5t37 14.5q21 0 36 -14.5t15 -35.5t-15 -35.5t-36 -14.5
q-22 0 -37 14.5t-15 35.5zM202 446q0 21 14 35t35 14q20 0 34.5 -14t14.5 -35q0 -20 -14.5 -34.5t-34.5 -14.5q-21 0 -35 14.5t-14 34.5zM301 449q0 20 15 34.5t36 14.5t36 -14.5t15 -34.5t-15 -34.5t-36 -14.5t-36 14.5t-15 34.5zM404 351q0 21 14 36t35 15q20 0 34 -15
t14 -36q0 -22 -14 -37t-34 -15q-21 0 -35 15t-14 37zM399 249q0 20 15 35t36 15t36 -15t15 -35q0 -21 -15 -36t-36 -15t-36 15t-15 36zM399 149q0 20 15 34.5t37 14.5q21 0 36 -14.5t15 -34.5q0 -21 -15 -35.5t-36 -14.5q-22 0 -37 14.5t-15 35.5zM298 49q0 20 15.5 34.5
t37.5 14.5t37.5 -14.5t15.5 -34.5t-15.5 -34.5t-37.5 -14.5t-37.5 14.5t-15.5 34.5z" />
    <glyph glyph-name="q" unicode="q" 
d="M402 -150q0 20 -15 34t-36 14t-36 -14t-15 -34t15 -34t36 -14t36 14t15 34zM402 -51q0 21 -15 36t-36 15t-36 -15t-15 -36t15 -36t36 -15t36 15t15 36zM402 50q0 21 -15 35.5t-37 14.5t-37 -14.5t-15 -35.5t15 -35.5t37 -14.5t37 14.5t15 35.5zM402 149q0 20 -15 34
t-37 14t-37 -14t-15 -34q0 -21 15 -35t37 -14t37 14t15 35zM402 247q0 20 -15 34.5t-35 14.5q-21 0 -36 -14.5t-15 -34.5q0 -21 15 -35.5t36 -14.5q20 0 35 14.5t15 35.5zM402 347q0 21 -15 36t-35 15q-21 0 -36 -15t-15 -36t15 -36t36 -15q20 0 35 15t15 36zM201 449
q0 20 -15 34.5t-36 14.5t-36 -14.5t-15 -34.5t15 -34.5t36 -14.5t36 14.5t15 34.5zM98 351q0 21 -14 36t-34 15q-21 0 -35 -15t-14 -36q0 -22 14 -37t35 -15q20 0 34 15t14 37zM103 249q0 20 -15 35t-36 15t-36 -15t-15 -35q0 -21 15 -36t36 -15t36 15t15 36zM103 149
q0 20 -15 34.5t-36 14.5q-22 0 -37 -14.5t-15 -34.5q0 -21 15 -35.5t37 -14.5q21 0 36 14.5t15 35.5zM204 49q0 20 -15.5 34.5t-37.5 14.5t-37.5 -14.5t-15.5 -34.5t15.5 -34.5t37.5 -14.5t37.5 14.5t15.5 34.5zM297 49q0 20 -13.5 34.5t-32.5 14.5q-20 0 -33.5 -14.5
t-13.5 -34.5t13.5 -34.5t33.5 -14.5q19 0 32.5 14.5t13.5 34.5zM502 -150q0 20 -15 34t-36 14t-36 -14t-15 -34t15 -34t36 -14t36 14t15 34zM502 -51q0 21 -15 36t-36 15t-36 -15t-15 -36t15 -36t36 -15t36 15t15 36zM502 50q0 21 -15 35.5t-37 14.5t-37 -14.5t-15 -35.5
t15 -35.5t37 -14.5t37 14.5t15 35.5zM502 149q0 20 -15 34t-37 14t-37 -14t-15 -34q0 -21 15 -35t37 -14t37 14t15 35zM502 247q0 20 -15 34.5t-35 14.5q-21 0 -36 -14.5t-15 -34.5q0 -21 15 -35.5t36 -14.5q20 0 35 14.5t15 35.5zM502 347q0 21 -15 36t-35 15
q-21 0 -36 -15t-15 -36t15 -36t36 -15q20 0 35 15t15 36zM502 448q0 21 -15 35.5t-36 14.5q-22 0 -37 -14.5t-15 -35.5t15 -35.5t37 -14.5q21 0 36 14.5t15 35.5zM399 449q0 20 -14.5 34.5t-34.5 14.5t-34.5 -14.5t-14.5 -34.5t14.5 -34.5t34.5 -14.5t34.5 14.5t14.5 34.5z
M304 450q0 21 -15 35t-36 14t-36 -14t-15 -35q0 -20 15 -34.5t36 -14.5t36 14.5t15 34.5zM198 351q0 21 -14 36t-34 15q-21 0 -35 -15t-14 -36q0 -22 14 -37t35 -15q20 0 34 15t14 37zM203 249q0 20 -15 35t-36 15t-36 -15t-15 -35q0 -21 15 -36t36 -15t36 15t15 36z
M203 149q0 20 -15 34.5t-36 14.5q-22 0 -37 -14.5t-15 -34.5q0 -21 15 -35.5t37 -14.5q21 0 36 14.5t15 35.5z" />
    <glyph glyph-name="r" unicode="r" 
d="M0 50q0 21 14.5 35.5t35.5 14.5t35.5 -14.5t14.5 -35.5t-14.5 -35.5t-35.5 -14.5t-35.5 14.5t-14.5 35.5zM0 149q0 20 14.5 34.5t35.5 14.5t35.5 -14.5t14.5 -34.5t-14.5 -34.5t-35.5 -14.5t-35.5 14.5t-14.5 34.5zM0 247q0 20 15 34t37 14t37 -14t15 -34q0 -21 -15 -35
t-37 -14t-37 14t-15 35zM0 346q0 21 15 36t37 15t37 -15t15 -36t-15 -36t-37 -15t-37 15t-15 36zM0 448q0 20 15 35t36 15t36 -15t15 -35q0 -21 -15 -36t-36 -15t-36 15t-15 36zM200 449q0 20 15 34t36 14t36 -14t15 -34q0 -21 -15 -35t-36 -14t-36 14t-15 35zM100 50
q0 21 14.5 35.5t35.5 14.5t35.5 -14.5t14.5 -35.5t-14.5 -35.5t-35.5 -14.5t-35.5 14.5t-14.5 35.5zM100 149q0 20 14.5 34.5t35.5 14.5t35.5 -14.5t14.5 -34.5t-14.5 -34.5t-35.5 -14.5t-35.5 14.5t-14.5 34.5zM100 247q0 20 15 34t37 14t37 -14t15 -34q0 -21 -15 -35
t-37 -14t-37 14t-15 35zM100 346q0 21 15 36t37 15t37 -15t15 -36t-15 -36t-37 -15t-37 15t-15 36zM100 448q0 20 15 35t36 15t36 -15t15 -35q0 -21 -15 -36t-36 -15t-36 15t-15 36zM401 450q0 19 14 33t35 14q20 0 34 -14t14 -33q0 -20 -14 -34t-34 -14q-21 0 -35 14
t-14 34zM300 449q0 20 15 34t36 14t36 -14t15 -34q0 -21 -15 -35t-36 -14t-36 14t-15 35zM204 349q0 21 14 36t34 15t34 -15t14 -36t-14 -36t-34 -15t-34 15t-14 36z" />
    <glyph glyph-name="s" unicode="s" 
d="M0 50q0 20 15 34.5t36 14.5q20 0 35 -14.5t15 -34.5q0 -21 -15 -35.5t-35 -14.5q-21 0 -36 14.5t-15 35.5zM101 50q0 20 15 34.5t36 14.5t36 -14.5t15 -34.5q0 -21 -15 -35.5t-36 -14.5t-36 14.5t-15 35.5zM203 48q0 20 14.5 34t35.5 14t35.5 -14t14.5 -34t-14.5 -34
t-35.5 -14t-35.5 14t-14.5 34zM303 148q0 21 15 36t36 15q20 0 35 -15t15 -36q0 -22 -15 -37t-35 -15q-21 0 -36 15t-15 37zM198 249q0 20 15 34.5t36 14.5q20 0 35 -14.5t15 -34.5q0 -21 -15 -35.5t-35 -14.5q-21 0 -36 14.5t-15 35.5zM99 249q0 20 14.5 34.5t35.5 14.5
q20 0 34.5 -14.5t14.5 -34.5q0 -21 -14.5 -35.5t-34.5 -14.5q-21 0 -35.5 14.5t-14.5 35.5zM0 348q0 20 14 34.5t34 14.5t34 -14.5t14 -34.5q0 -21 -14 -35.5t-34 -14.5t-34 14.5t-14 35.5zM92 446q0 21 15 35.5t37 14.5t37 -14.5t15 -35.5t-15 -35.5t-37 -14.5t-37 14.5
t-15 35.5zM196 447q0 20 15 34.5t37 14.5q21 0 36 -14.5t15 -34.5t-15 -34.5t-36 -14.5q-22 0 -37 14.5t-15 34.5zM298 447q0 20 15.5 34.5t37.5 14.5t37.5 -14.5t15.5 -34.5t-15.5 -34.5t-37.5 -14.5t-37.5 14.5t-15.5 34.5zM96 348q0 20 16 34.5t36 14.5t34 -14.5
t14 -34.5q0 -21 -14 -35.5t-34 -14.5t-36 14.5t-16 35.5zM300 248q0 20 14 34.5t34 14.5t34 -14.5t14 -34.5q0 -21 -14 -35.5t-34 -14.5t-34 14.5t-14 35.5zM400 448q0 20 14 34.5t34 14.5t34 -14.5t14 -34.5q0 -21 -14 -35.5t-34 -14.5t-34 14.5t-14 35.5zM400 148
q0 20 14 34.5t34 14.5t34 -14.5t14 -34.5q0 -21 -14 -35.5t-34 -14.5t-34 14.5t-14 35.5zM300 48q0 20 14 34.5t34 14.5t34 -14.5t14 -34.5q0 -21 -14 -35.5t-34 -14.5t-34 14.5t-14 35.5z" />
    <glyph glyph-name="t" unicode="t" horiz-adv-x="500" 
d="M99 648q0 20 15 34.5t37 14.5q21 0 36 -14.5t15 -34.5t-15 -34.5t-36 -14.5q-22 0 -37 14.5t-15 34.5zM99 549q0 21 15 35.5t37 14.5q21 0 36 -14.5t15 -35.5t-15 -35.5t-36 -14.5q-22 0 -37 14.5t-15 35.5zM99 450q0 20 15 34.5t37 14.5t37 -14.5t15 -34.5
q0 -21 -15 -35.5t-37 -14.5t-37 14.5t-15 35.5zM0 349q0 20 14.5 34.5t35.5 14.5q20 0 34.5 -14.5t14.5 -34.5q0 -21 -14.5 -35.5t-34.5 -14.5q-21 0 -35.5 14.5t-14.5 35.5zM200 49q0 20 15 34.5t36 14.5q20 0 35 -14.5t15 -34.5t-15 -34.5t-35 -14.5q-21 0 -36 14.5
t-15 34.5zM99 148q0 21 15 35.5t36 14.5q20 0 35 -14.5t15 -35.5t-15 -35.5t-35 -14.5q-21 0 -36 14.5t-15 35.5zM99 248q0 20 15 34.5t37 14.5t37 -14.5t15 -34.5q0 -21 -15 -35.5t-37 -14.5t-37 14.5t-15 35.5zM199 648q0 20 15 34.5t37 14.5q21 0 36 -14.5t15 -34.5
t-15 -34.5t-36 -14.5q-22 0 -37 14.5t-15 34.5zM199 549q0 21 15 35.5t37 14.5q21 0 36 -14.5t15 -35.5t-15 -35.5t-36 -14.5q-22 0 -37 14.5t-15 35.5zM199 450q0 20 15 34.5t37 14.5t37 -14.5t15 -34.5q0 -21 -15 -35.5t-37 -14.5t-37 14.5t-15 35.5zM199 350q0 20 15 35
t37 15t37 -15t15 -35q0 -21 -15 -36t-37 -15t-37 15t-15 36zM100 349q0 20 14.5 34.5t35.5 14.5q20 0 34.5 -14.5t14.5 -34.5q0 -21 -14.5 -35.5t-34.5 -14.5q-21 0 -35.5 14.5t-14.5 35.5zM300 49q0 20 15 34.5t36 14.5q20 0 35 -14.5t15 -34.5t-15 -34.5t-35 -14.5
q-21 0 -36 14.5t-15 34.5zM199 148q0 21 15 35.5t36 14.5q20 0 35 -14.5t15 -35.5t-15 -35.5t-35 -14.5q-21 0 -36 14.5t-15 35.5zM199 248q0 20 15 34.5t37 14.5t37 -14.5t15 -34.5q0 -21 -15 -35.5t-37 -14.5t-37 14.5t-15 35.5zM303 346q0 20 14.5 34.5t35.5 14.5
t35.5 -14.5t14.5 -34.5t-14.5 -34.5t-35.5 -14.5t-35.5 14.5t-14.5 34.5z" />
    <glyph glyph-name="u" unicode="u" 
d="M0 447q0 20 14.5 34t35.5 14t35.5 -14t14.5 -34q0 -21 -14.5 -35t-35.5 -14t-35.5 14t-14.5 35zM0 349q0 20 15 34.5t36 14.5q20 0 35 -14.5t15 -34.5t-15 -34.5t-35 -14.5q-21 0 -36 14.5t-15 34.5zM0 249q0 21 15 36t36 15q20 0 35 -15t15 -36t-15 -36t-35 -15
q-21 0 -36 15t-15 36zM0 149q0 20 15 34.5t36 14.5q20 0 35 -14.5t15 -34.5t-15 -34.5t-35 -14.5q-21 0 -36 14.5t-15 34.5zM101 50q0 21 14.5 35.5t35.5 14.5t35.5 -14.5t14.5 -35.5t-14.5 -35.5t-35.5 -14.5t-35.5 14.5t-14.5 35.5zM301 50q0 20 14 34.5t35 14.5
q20 0 34 -14.5t14 -34.5q0 -21 -14 -35.5t-34 -14.5q-21 0 -35 14.5t-14 35.5zM301 149q0 20 15 34.5t36 14.5q20 0 35 -14.5t15 -34.5q0 -21 -15 -35.5t-35 -14.5q-21 0 -36 14.5t-15 35.5zM298 247q0 20 15 34.5t37 14.5t37 -14.5t15 -34.5t-15 -34.5t-37 -14.5t-37 14.5
t-15 34.5zM298 347q0 20 15 35t37 15t37 -15t15 -35q0 -21 -15 -36t-37 -15t-37 15t-15 36zM298 447q0 21 15 35.5t37 14.5t37 -14.5t15 -35.5t-15 -35.5t-37 -14.5t-37 14.5t-15 35.5zM100 447q0 20 14.5 34t35.5 14t35.5 -14t14.5 -34q0 -21 -14.5 -35t-35.5 -14t-35.5 14
t-14.5 35zM100 349q0 20 15 34.5t36 14.5q20 0 35 -14.5t15 -34.5t-15 -34.5t-35 -14.5q-21 0 -36 14.5t-15 34.5zM100 249q0 21 15 36t36 15q20 0 35 -15t15 -36t-15 -36t-35 -15q-21 0 -36 15t-15 36zM100 149q0 20 15 34.5t36 14.5q20 0 35 -14.5t15 -34.5t-15 -34.5
t-35 -14.5q-21 0 -36 14.5t-15 34.5zM201 50q0 21 14.5 35.5t35.5 14.5t35.5 -14.5t14.5 -35.5t-14.5 -35.5t-35.5 -14.5t-35.5 14.5t-14.5 35.5zM401 50q0 20 14 34.5t35 14.5q20 0 34 -14.5t14 -34.5q0 -21 -14 -35.5t-34 -14.5q-21 0 -35 14.5t-14 35.5zM401 149
q0 20 15 34.5t36 14.5q20 0 35 -14.5t15 -34.5q0 -21 -15 -35.5t-35 -14.5q-21 0 -36 14.5t-15 35.5zM398 247q0 20 15 34.5t37 14.5t37 -14.5t15 -34.5t-15 -34.5t-37 -14.5t-37 14.5t-15 34.5zM398 347q0 20 15 35t37 15t37 -15t15 -35q0 -21 -15 -36t-37 -15t-37 15
t-15 36zM398 447q0 21 15 35.5t37 14.5t37 -14.5t15 -35.5t-15 -35.5t-37 -14.5t-37 14.5t-15 35.5z" />
    <glyph glyph-name="v" unicode="v" horiz-adv-x="700" 
d="M0 447q0 20 15 34t36 14t36 -14t15 -34q0 -21 -15 -35t-36 -14t-36 14t-15 35zM0 349q0 20 15 34.5t36 14.5t36 -14.5t15 -34.5t-15 -34.5t-36 -14.5t-36 14.5t-15 34.5zM0 250q0 20 15 35t36 15q20 0 35 -15t15 -35q0 -21 -15 -36t-35 -15q-21 0 -36 15t-15 36zM101 150
q0 20 15 34.5t36 14.5q20 0 35 -14.5t15 -34.5t-15 -34.5t-35 -14.5q-21 0 -36 14.5t-15 34.5zM202 51q0 20 14.5 35t35.5 15q20 0 34.5 -15t14.5 -35q0 -21 -14.5 -36t-34.5 -15q-21 0 -35.5 15t-14.5 36zM299 147q0 22 15.5 37t37.5 15q21 0 36.5 -15t15.5 -37t-15.5 -37
t-36.5 -15q-22 0 -37.5 15t-15.5 37zM404 249q0 20 14.5 34.5t35.5 14.5q20 0 34.5 -14.5t14.5 -34.5q0 -21 -14.5 -35.5t-34.5 -14.5q-21 0 -35.5 14.5t-14.5 35.5zM401 348q0 20 15 34.5t36 14.5t36 -14.5t15 -34.5q0 -21 -15 -35.5t-36 -14.5t-36 14.5t-15 35.5zM401 446
q0 20 14.5 34.5t35.5 14.5t35.5 -14.5t14.5 -34.5t-14.5 -34.5t-35.5 -14.5t-35.5 14.5t-14.5 34.5zM100 447q0 20 15 34t36 14t36 -14t15 -34q0 -21 -15 -35t-36 -14t-36 14t-15 35zM100 349q0 20 15 34.5t36 14.5t36 -14.5t15 -34.5t-15 -34.5t-36 -14.5t-36 14.5
t-15 34.5zM100 250q0 20 15 35t36 15q20 0 35 -15t15 -35q0 -21 -15 -36t-35 -15q-21 0 -36 15t-15 36zM201 150q0 20 15 34.5t36 14.5q20 0 35 -14.5t15 -34.5t-15 -34.5t-35 -14.5q-21 0 -36 14.5t-15 34.5zM302 51q0 20 14.5 35t35.5 15q20 0 34.5 -15t14.5 -35
q0 -21 -14.5 -36t-34.5 -15q-21 0 -35.5 15t-14.5 36zM399 147q0 22 15.5 37t37.5 15q21 0 36.5 -15t15.5 -37t-15.5 -37t-36.5 -15q-22 0 -37.5 15t-15.5 37zM504 249q0 20 14.5 34.5t35.5 14.5q20 0 34.5 -14.5t14.5 -34.5q0 -21 -14.5 -35.5t-34.5 -14.5
q-21 0 -35.5 14.5t-14.5 35.5zM501 348q0 20 15 34.5t36 14.5t36 -14.5t15 -34.5q0 -21 -15 -35.5t-36 -14.5t-36 14.5t-15 35.5zM501 446q0 20 14.5 34.5t35.5 14.5t35.5 -14.5t14.5 -34.5t-14.5 -34.5t-35.5 -14.5t-35.5 14.5t-14.5 34.5z" />
    <glyph glyph-name="w" unicode="w" horiz-adv-x="700" 
d="M0 446q0 19 15 33t36 14q20 0 35 -14t15 -33q0 -20 -15 -34t-35 -14q-21 0 -36 14t-15 34zM0 350q0 20 15 34t37 14q21 0 36 -14t15 -34q0 -21 -15 -35t-36 -14q-22 0 -37 14t-15 35zM0 250q0 21 15 36t37 15q21 0 36 -15t15 -36t-15 -36t-36 -15q-22 0 -37 15t-15 36z
M0 149q0 20 14.5 35t34.5 15t34.5 -15t14.5 -35q0 -21 -14.5 -36t-34.5 -15t-34.5 15t-14.5 36zM0 49q0 20 14.5 34.5t34.5 14.5t34.5 -14.5t14.5 -34.5t-14.5 -34.5t-34.5 -14.5t-34.5 14.5t-14.5 34.5zM200 250q0 20 15 34.5t36 14.5q20 0 35 -14.5t15 -34.5
q0 -21 -15 -35.5t-35 -14.5q-21 0 -36 14.5t-15 35.5zM297 150q0 21 15 36t37 15t37 -15t15 -36t-15 -36t-37 -15t-37 15t-15 36zM401 50q0 20 14.5 34.5t35.5 14.5t35.5 -14.5t14.5 -34.5q0 -21 -14.5 -35.5t-35.5 -14.5t-35.5 14.5t-14.5 35.5zM398 449q0 20 15.5 34
t37.5 14q21 0 36.5 -14t15.5 -34q0 -21 -15.5 -35t-36.5 -14q-22 0 -37.5 14t-15.5 35zM399 350q0 21 15 35.5t37 14.5t37 -14.5t15 -35.5t-15 -35.5t-37 -14.5t-37 14.5t-15 35.5zM399 250q0 21 15 35.5t37 14.5q21 0 36 -14.5t15 -35.5t-15 -35.5t-36 -14.5
q-22 0 -37 14.5t-15 35.5zM402 150q0 21 14.5 35.5t35.5 14.5t35.5 -14.5t14.5 -35.5t-14.5 -35.5t-35.5 -14.5t-35.5 14.5t-14.5 35.5zM100 446q0 19 15 33t36 14q20 0 35 -14t15 -33q0 -20 -15 -34t-35 -14q-21 0 -36 14t-15 34zM100 350q0 20 15 34t37 14q21 0 36 -14
t15 -34q0 -21 -15 -35t-36 -14q-22 0 -37 14t-15 35zM100 250q0 21 15 36t37 15q21 0 36 -15t15 -36t-15 -36t-36 -15q-22 0 -37 15t-15 36zM100 149q0 20 14.5 35t34.5 15t34.5 -15t14.5 -35q0 -21 -14.5 -36t-34.5 -15t-34.5 15t-14.5 36zM100 49q0 20 14.5 34.5
t34.5 14.5t34.5 -14.5t14.5 -34.5t-14.5 -34.5t-34.5 -14.5t-34.5 14.5t-14.5 34.5zM300 250q0 20 15 34.5t36 14.5q20 0 35 -14.5t15 -34.5q0 -21 -15 -35.5t-35 -14.5q-21 0 -36 14.5t-15 35.5zM201 149q0 21 14.5 36t35.5 15q20 0 34.5 -15t14.5 -36t-14.5 -36t-34.5 -15
q-21 0 -35.5 15t-14.5 36zM501 50q0 20 14.5 34.5t35.5 14.5t35.5 -14.5t14.5 -34.5q0 -21 -14.5 -35.5t-35.5 -14.5t-35.5 14.5t-14.5 35.5zM498 449q0 20 15.5 34t37.5 14q21 0 36.5 -14t15.5 -34q0 -21 -15.5 -35t-36.5 -14q-22 0 -37.5 14t-15.5 35zM499 350
q0 21 15 35.5t37 14.5t37 -14.5t15 -35.5t-15 -35.5t-37 -14.5t-37 14.5t-15 35.5zM499 250q0 21 15 35.5t37 14.5q21 0 36 -14.5t15 -35.5t-15 -35.5t-36 -14.5q-22 0 -37 14.5t-15 35.5zM502 150q0 21 14.5 35.5t35.5 14.5t35.5 -14.5t14.5 -35.5t-14.5 -35.5t-35.5 -14.5
t-35.5 14.5t-14.5 35.5z" />
    <glyph glyph-name="x" unicode="x" horiz-adv-x="700" 
d="M0 50q0 19 15 32t36 13q20 0 35 -13t15 -32t-15 -32t-35 -13q-21 0 -36 13t-15 32zM101 147q0 21 15 36t36 15q20 0 35 -15t15 -36q0 -22 -15 -37t-35 -15q-21 0 -36 15t-15 37zM202 249q0 20 15 35t36 15q20 0 35 -15t15 -35q0 -21 -15 -36t-35 -15q-21 0 -36 15t-15 36
zM303 350q0 20 14.5 35t35.5 15t35.5 -15t14.5 -35q0 -21 -14.5 -36t-35.5 -15t-35.5 15t-14.5 36zM403 449q0 20 14.5 34t34.5 14t34.5 -14t14.5 -34q0 -21 -14.5 -35t-34.5 -14t-34.5 14t-14.5 35zM0 448q0 19 15 33t36 14q20 0 35 -14t15 -33q0 -20 -15 -34t-35 -14
q-21 0 -36 14t-15 34zM102 350q0 20 15 34.5t36 14.5q20 0 35 -14.5t15 -34.5t-15 -34.5t-35 -14.5q-21 0 -36 14.5t-15 34.5zM299 151q0 20 15 34.5t37 14.5q21 0 36 -14.5t15 -34.5t-15 -34.5t-36 -14.5q-22 0 -37 14.5t-15 34.5zM402 51q0 21 15 36t36 15q20 0 35 -15
t15 -36t-15 -36t-35 -15q-21 0 -36 15t-15 36zM100 50q0 19 15 32t36 13q20 0 35 -13t15 -32t-15 -32t-35 -13q-21 0 -36 13t-15 32zM201 147q0 21 15 36t36 15q20 0 35 -15t15 -36q0 -22 -15 -37t-35 -15q-21 0 -36 15t-15 37zM302 249q0 20 15 35t36 15q20 0 35 -15
t15 -35q0 -21 -15 -36t-35 -15q-21 0 -36 15t-15 36zM403 350q0 20 14.5 35t35.5 15t35.5 -15t14.5 -35q0 -21 -14.5 -36t-35.5 -15t-35.5 15t-14.5 36zM503 449q0 20 14.5 34t34.5 14t34.5 -14t14.5 -34q0 -21 -14.5 -35t-34.5 -14t-34.5 14t-14.5 35zM100 448q0 19 15 33
t36 14q20 0 35 -14t15 -33q0 -20 -15 -34t-35 -14q-21 0 -36 14t-15 34zM202 350q0 20 15 34.5t36 14.5q20 0 35 -14.5t15 -34.5t-15 -34.5t-35 -14.5q-21 0 -36 14.5t-15 34.5zM399 151q0 20 15 34.5t37 14.5q21 0 36 -14.5t15 -34.5t-15 -34.5t-36 -14.5q-22 0 -37 14.5
t-15 34.5zM502 51q0 21 15 36t36 15q20 0 35 -15t15 -36t-15 -36t-35 -15q-21 0 -36 15t-15 36z" />
    <glyph glyph-name="y" unicode="y" 
d="M0 448q0 20 15 34t36 14q20 0 35 -14t15 -34q0 -21 -15 -35t-35 -14q-21 0 -36 14t-15 35zM0 349q0 21 15 35.5t36 14.5q20 0 35 -14.5t15 -35.5t-15 -35.5t-35 -14.5q-21 0 -36 14.5t-15 35.5zM0 250q0 20 15 34.5t37 14.5q21 0 36 -14.5t15 -34.5q0 -21 -15 -35.5
t-36 -14.5q-22 0 -37 14.5t-15 35.5zM0 150q0 20 15 35t37 15q21 0 36 -15t15 -35q0 -21 -15 -36t-36 -15q-22 0 -37 15t-15 36zM0 -150q0 20 15 34t36 14q20 0 35 -14t15 -34t-15 -34t-35 -14q-21 0 -36 14t-15 34zM101 -150q0 20 15 34t36 14t36 -14t15 -34t-15 -34
t-36 -14t-36 14t-15 34zM302 -51q0 21 15 36t36 15q20 0 35 -15t15 -36t-15 -36t-35 -15q-21 0 -36 15t-15 36zM299 49q0 20 15 34.5t37 14.5t37 -14.5t15 -34.5t-15 -34.5t-37 -14.5t-37 14.5t-15 34.5zM299 148q0 20 15 34.5t37 14.5t37 -14.5t15 -34.5q0 -21 -15 -35.5
t-37 -14.5t-37 14.5t-15 35.5zM301 248q0 20 15 35t36 15t36 -15t15 -35q0 -21 -15 -36t-36 -15t-36 15t-15 36zM301 347q0 20 15 34t36 14q20 0 35 -14t15 -34q0 -21 -15 -35t-35 -14q-21 0 -36 14t-15 35zM298 447q0 21 15 36t37 15t37 -15t15 -36q0 -22 -15 -37t-37 -15
t-37 15t-15 37zM99 48q0 20 15 34t37 14q21 0 36 -14t15 -34t-15 -34t-36 -14q-22 0 -37 14t-15 34zM100 448q0 20 15 34t36 14q20 0 35 -14t15 -34q0 -21 -15 -35t-35 -14q-21 0 -36 14t-15 35zM100 349q0 21 15 35.5t36 14.5q20 0 35 -14.5t15 -35.5t-15 -35.5t-35 -14.5
q-21 0 -36 14.5t-15 35.5zM100 250q0 20 15 34.5t37 14.5q21 0 36 -14.5t15 -34.5q0 -21 -15 -35.5t-36 -14.5q-22 0 -37 14.5t-15 35.5zM100 150q0 20 15 35t37 15q21 0 36 -15t15 -35q0 -21 -15 -36t-36 -15q-22 0 -37 15t-15 36zM201 -150q0 20 15 34t36 14t36 -14
t15 -34t-15 -34t-36 -14t-36 14t-15 34zM303 -150q0 20 14.5 34t35.5 14q20 0 34.5 -14t14.5 -34t-14.5 -34t-34.5 -14q-21 0 -35.5 14t-14.5 34zM402 -51q0 21 15 36t36 15q20 0 35 -15t15 -36t-15 -36t-35 -15q-21 0 -36 15t-15 36zM399 49q0 20 15 34.5t37 14.5t37 -14.5
t15 -34.5t-15 -34.5t-37 -14.5t-37 14.5t-15 34.5zM399 148q0 20 15 34.5t37 14.5t37 -14.5t15 -34.5q0 -21 -15 -35.5t-37 -14.5t-37 14.5t-15 35.5zM401 248q0 20 15 35t36 15t36 -15t15 -35q0 -21 -15 -36t-36 -15t-36 15t-15 36zM401 347q0 20 15 34t36 14q20 0 35 -14
t15 -34q0 -21 -15 -35t-35 -14q-21 0 -36 14t-15 35zM398 447q0 21 15 36t37 15t37 -15t15 -36q0 -22 -15 -37t-37 -15t-37 15t-15 37zM199 48q0 20 15 34t37 14q21 0 36 -14t15 -34t-15 -34t-36 -14q-22 0 -37 14t-15 34z" />
    <glyph glyph-name="z" unicode="z" horiz-adv-x="500" 
d="M200 48q0 19 15 33t36 14q20 0 35 -14t15 -33q0 -20 -15 -34t-35 -14q-21 0 -36 14t-15 34zM101 48q0 19 14.5 33t35.5 14q20 0 34.5 -14t14.5 -33q0 -20 -14.5 -34t-34.5 -14q-21 0 -35.5 14t-14.5 34zM0 47q0 19 15 33t36 14q20 0 35 -14t15 -33t-15 -33t-35 -14
q-21 0 -36 14t-15 33zM0 146q0 22 14.5 37t34.5 15t34.5 -15t14.5 -37t-14.5 -37t-34.5 -15t-34.5 15t-14.5 37zM98 247q0 20 15 34.5t37 14.5q21 0 36 -14.5t15 -34.5t-15 -34.5t-36 -14.5q-22 0 -37 14.5t-15 34.5zM201 346q0 20 15 34.5t36 14.5q20 0 35 -14.5t15 -34.5
q0 -21 -15 -35.5t-35 -14.5q-21 0 -36 14.5t-15 35.5zM201 446q0 20 15 35t36 15q20 0 35 -15t15 -35q0 -21 -15 -36t-35 -15q-21 0 -36 15t-15 36zM102 448q0 20 14.5 34t35.5 14q20 0 34.5 -14t14.5 -34q0 -21 -14.5 -35t-34.5 -14q-21 0 -35.5 14t-14.5 35zM0 448
q0 20 15 34.5t36 14.5t36 -14.5t15 -34.5t-15 -34.5t-36 -14.5t-36 14.5t-15 34.5zM198 247q0 20 15 34.5t37 14.5q21 0 36 -14.5t15 -34.5t-15 -34.5t-36 -14.5q-22 0 -37 14.5t-15 34.5zM298 347q0 20 15 34.5t37 14.5q21 0 36 -14.5t15 -34.5t-15 -34.5t-36 -14.5
q-22 0 -37 14.5t-15 34.5zM298 447q0 20 15 34.5t37 14.5q21 0 36 -14.5t15 -34.5t-15 -34.5t-36 -14.5q-22 0 -37 14.5t-15 34.5zM98 147q0 20 15 34.5t37 14.5q21 0 36 -14.5t15 -34.5t-15 -34.5t-36 -14.5q-22 0 -37 14.5t-15 34.5zM298 47q0 20 15 34.5t37 14.5
q21 0 36 -14.5t15 -34.5t-15 -34.5t-36 -14.5q-22 0 -37 14.5t-15 34.5z" />
    <glyph glyph-name="braceleft" unicode="{" horiz-adv-x="500" 
d="M199 649q0 20 15 34t37 14q21 0 36 -14t15 -34q0 -21 -15 -35t-36 -14q-22 0 -37 14t-15 35zM99 551q0 20 14.5 34.5t35.5 14.5t35.5 -14.5t14.5 -34.5q0 -21 -14.5 -35.5t-35.5 -14.5t-35.5 14.5t-14.5 35.5zM99 452q0 20 15 34.5t37 14.5q21 0 36 -14.5t15 -34.5
q0 -21 -15 -35.5t-36 -14.5q-22 0 -37 14.5t-15 35.5zM0 351q0 20 15 34t36 14t36 -14t15 -34q0 -21 -15 -35t-36 -14t-36 14t-15 35zM101 251q0 21 15 36t36 15q20 0 35 -15t15 -36q0 -22 -15 -37t-35 -15q-21 0 -36 15t-15 37zM100 150q0 20 15 34.5t36 14.5t36 -14.5
t15 -34.5q0 -21 -15 -35.5t-36 -14.5t-36 14.5t-15 35.5zM201 51q0 20 15 35t36 15t36 -15t15 -35q0 -21 -15 -36t-36 -15t-36 15t-15 36zM299 649q0 20 15 34t37 14q21 0 36 -14t15 -34q0 -21 -15 -35t-36 -14q-22 0 -37 14t-15 35zM199 551q0 20 14.5 34.5t35.5 14.5
t35.5 -14.5t14.5 -34.5q0 -21 -14.5 -35.5t-35.5 -14.5t-35.5 14.5t-14.5 35.5zM199 452q0 20 15 34.5t37 14.5q21 0 36 -14.5t15 -34.5q0 -21 -15 -35.5t-36 -14.5q-22 0 -37 14.5t-15 35.5zM100 351q0 20 15 34t36 14t36 -14t15 -34q0 -21 -15 -35t-36 -14t-36 14t-15 35z
M201 251q0 21 15 36t36 15q20 0 35 -15t15 -36q0 -22 -15 -37t-35 -15q-21 0 -36 15t-15 37zM200 150q0 20 15 34.5t36 14.5t36 -14.5t15 -34.5q0 -21 -15 -35.5t-36 -14.5t-36 14.5t-15 35.5zM301 51q0 20 15 35t36 15t36 -15t15 -35q0 -21 -15 -36t-36 -15t-36 15t-15 36z
" />
    <glyph glyph-name="bar" unicode="|" horiz-adv-x="300" 
d="M0 648q0 20 15 34.5t37 14.5q21 0 36 -14.5t15 -34.5t-15 -34.5t-36 -14.5q-22 0 -37 14.5t-15 34.5zM0 550q0 20 15 34.5t37 14.5q21 0 36 -14.5t15 -34.5q0 -21 -15 -35.5t-36 -14.5q-22 0 -37 14.5t-15 35.5zM0 449q0 21 15 36t36 15q20 0 35 -15t15 -36t-15 -36
t-35 -15q-21 0 -36 15t-15 36zM0 349q0 20 15 34.5t36 14.5q20 0 35 -14.5t15 -34.5q0 -21 -15 -35.5t-35 -14.5q-21 0 -36 14.5t-15 35.5zM0 249q0 20 15 35t36 15t36 -15t15 -35q0 -21 -15 -36t-36 -15t-36 15t-15 36zM0 149q0 20 15 34.5t36 14.5t36 -14.5t15 -34.5
q0 -21 -15 -35.5t-36 -14.5t-36 14.5t-15 35.5zM0 50q0 20 15 34.5t36 14.5t36 -14.5t15 -34.5q0 -21 -15 -35.5t-36 -14.5t-36 14.5t-15 35.5zM100 648q0 20 15 34.5t37 14.5q21 0 36 -14.5t15 -34.5t-15 -34.5t-36 -14.5q-22 0 -37 14.5t-15 34.5zM100 550q0 20 15 34.5
t37 14.5q21 0 36 -14.5t15 -34.5q0 -21 -15 -35.5t-36 -14.5q-22 0 -37 14.5t-15 35.5zM100 449q0 21 15 36t36 15q20 0 35 -15t15 -36t-15 -36t-35 -15q-21 0 -36 15t-15 36zM100 349q0 20 15 34.5t36 14.5q20 0 35 -14.5t15 -34.5q0 -21 -15 -35.5t-35 -14.5
q-21 0 -36 14.5t-15 35.5zM100 249q0 20 15 35t36 15t36 -15t15 -35q0 -21 -15 -36t-36 -15t-36 15t-15 36zM100 149q0 20 15 34.5t36 14.5t36 -14.5t15 -34.5q0 -21 -15 -35.5t-36 -14.5t-36 14.5t-15 35.5zM100 50q0 20 15 34.5t36 14.5t36 -14.5t15 -34.5
q0 -21 -15 -35.5t-36 -14.5t-36 14.5t-15 35.5z" />
    <glyph glyph-name="braceright" unicode="}" horiz-adv-x="500" 
d="M0 649q0 20 15 34t36 14t36 -14t15 -34q0 -21 -15 -35t-36 -14t-36 14t-15 35zM102 550q0 21 14.5 35.5t35.5 14.5t35.5 -14.5t14.5 -35.5t-14.5 -35.5t-35.5 -14.5t-35.5 14.5t-14.5 35.5zM100 449q0 21 15 36t36 15t36 -15t15 -36q0 -22 -15 -37t-36 -15t-36 15t-15 37
zM201 350q0 20 15 35t36 15q20 0 35 -15t15 -35q0 -21 -15 -36t-35 -15q-21 0 -36 15t-15 36zM99 250q0 21 15 36t36 15t36 -15t15 -36t-15 -36t-36 -15t-36 15t-15 36zM99 150q0 20 15 34.5t37 14.5q21 0 36 -14.5t15 -34.5t-15 -34.5t-36 -14.5q-22 0 -37 14.5t-15 34.5z
M0 49q0 20 15 34.5t36 14.5t36 -14.5t15 -34.5t-15 -34.5t-36 -14.5t-36 14.5t-15 34.5zM100 649q0 20 15 34t36 14t36 -14t15 -34q0 -21 -15 -35t-36 -14t-36 14t-15 35zM202 550q0 21 14.5 35.5t35.5 14.5t35.5 -14.5t14.5 -35.5t-14.5 -35.5t-35.5 -14.5t-35.5 14.5
t-14.5 35.5zM200 449q0 21 15 36t36 15t36 -15t15 -36q0 -22 -15 -37t-36 -15t-36 15t-15 37zM301 350q0 20 15 35t36 15q20 0 35 -15t15 -35q0 -21 -15 -36t-35 -15q-21 0 -36 15t-15 36zM199 250q0 21 15 36t36 15t36 -15t15 -36t-15 -36t-36 -15t-36 15t-15 36zM199 150
q0 20 15 34.5t37 14.5q21 0 36 -14.5t15 -34.5t-15 -34.5t-36 -14.5q-22 0 -37 14.5t-15 34.5zM100 49q0 20 15 34.5t36 14.5t36 -14.5t15 -34.5t-15 -34.5t-36 -14.5t-36 14.5t-15 34.5z" />
    <glyph glyph-name="asciitilde" unicode="~" 
d="M0 550q0 19 15 32.5t37 13.5q21 0 36 -13.5t15 -32.5t-15 -32.5t-36 -13.5q-22 0 -37 13.5t-15 32.5zM103 647q0 20 14.5 35t35.5 15t35.5 -15t14.5 -35q0 -21 -14.5 -36t-35.5 -15t-35.5 15t-14.5 36zM100 550q0 19 15 32.5t37 13.5q21 0 36 -13.5t15 -32.5t-15 -32.5
t-36 -13.5q-22 0 -37 13.5t-15 32.5zM203 647q0 20 14.5 35t35.5 15t35.5 -15t14.5 -35q0 -21 -14.5 -36t-35.5 -15t-35.5 15t-14.5 36zM401 648q0 20 15 34.5t37 14.5q21 0 36 -14.5t15 -34.5t-15 -34.5t-36 -14.5q-22 0 -37 14.5t-15 34.5zM298 550q0 20 15 34.5t37 14.5
q21 0 36 -14.5t15 -34.5t-15 -34.5t-36 -14.5q-22 0 -37 14.5t-15 34.5z" />
    <glyph glyph-name="sterling" unicode="&#xa3;" horiz-adv-x="700" 
d="M401 49q0 20 14.5 34.5t35.5 14.5q20 0 34.5 -14.5t14.5 -34.5t-14.5 -34.5t-34.5 -14.5q-21 0 -35.5 14.5t-14.5 34.5zM302 49q0 20 14.5 34.5t35.5 14.5q20 0 34.5 -14.5t14.5 -34.5t-14.5 -34.5t-34.5 -14.5q-21 0 -35.5 14.5t-14.5 34.5zM199 48q0 20 15 34t37 14
q21 0 36 -14t15 -34t-15 -34t-36 -14q-22 0 -37 14t-15 34zM98 48q0 20 15 34t36 14q20 0 35 -14t15 -34t-15 -34t-35 -14q-21 0 -36 14t-15 34zM397 549q0 20 15 34t37 14q21 0 36 -14t15 -34q0 -21 -15 -35t-36 -14q-22 0 -37 14t-15 35zM199 648q0 20 14.5 34.5
t35.5 14.5t35.5 -14.5t14.5 -34.5t-14.5 -34.5t-35.5 -14.5t-35.5 14.5t-14.5 34.5zM101 550q0 20 14.5 34.5t34.5 14.5t34.5 -14.5t14.5 -34.5q0 -21 -14.5 -35.5t-34.5 -14.5t-34.5 14.5t-14.5 35.5zM101 450q0 21 15 35.5t36 14.5q20 0 35 -14.5t15 -35.5t-15 -35.5
t-35 -14.5q-21 0 -36 14.5t-15 35.5zM101 349q0 21 15 36t36 15q20 0 35 -15t15 -36t-15 -36t-35 -15q-21 0 -36 15t-15 36zM101 249q0 20 15 34.5t36 14.5t36 -14.5t15 -34.5q0 -21 -15 -35.5t-36 -14.5t-36 14.5t-15 35.5zM99 148q0 21 15 36t37 15t37 -15t15 -36
q0 -22 -15 -37t-37 -15t-37 15t-15 37zM0 349q0 19 15 33t36 14q20 0 35 -14t15 -33q0 -20 -15 -34t-35 -14q-21 0 -36 14t-15 34zM501 49q0 20 14.5 34.5t35.5 14.5q20 0 34.5 -14.5t14.5 -34.5t-14.5 -34.5t-34.5 -14.5q-21 0 -35.5 14.5t-14.5 34.5zM497 549q0 20 15 34
t37 14q21 0 36 -14t15 -34q0 -21 -15 -35t-36 -14q-22 0 -37 14t-15 35zM399 647q0 21 14.5 35.5t34.5 14.5t34.5 -14.5t14.5 -35.5t-14.5 -35.5t-34.5 -14.5t-34.5 14.5t-14.5 35.5zM299 645q0 21 14.5 35t35.5 14t35.5 -14t14.5 -35q0 -20 -14.5 -34.5t-35.5 -14.5
t-35.5 14.5t-14.5 34.5zM201 550q0 20 14.5 34.5t34.5 14.5t34.5 -14.5t14.5 -34.5q0 -21 -14.5 -35.5t-34.5 -14.5t-34.5 14.5t-14.5 35.5zM201 450q0 21 15 35.5t36 14.5q20 0 35 -14.5t15 -35.5t-15 -35.5t-35 -14.5q-21 0 -36 14.5t-15 35.5zM201 349q0 21 15 36t36 15
q20 0 35 -15t15 -36t-15 -36t-35 -15q-21 0 -36 15t-15 36zM201 249q0 20 15 34.5t36 14.5t36 -14.5t15 -34.5q0 -21 -15 -35.5t-36 -14.5t-36 14.5t-15 35.5zM199 148q0 21 15 36t37 15t37 -15t15 -36q0 -22 -15 -37t-37 -15t-37 15t-15 37zM302 349q0 20 14 34t35 14
q20 0 34 -14t14 -34t-14 -34t-34 -14q-21 0 -35 14t-14 34z" />
    <glyph glyph-name="copyright" unicode="&#xa9;" horiz-adv-x="900" 
d="M0 449q0 20 15 34.5t36 14.5t36 -14.5t15 -34.5q0 -21 -15 -35.5t-36 -14.5t-36 14.5t-15 35.5zM0 350q0 20 15 34.5t36 14.5t36 -14.5t15 -34.5t-15 -34.5t-36 -14.5t-36 14.5t-15 34.5zM0 249q0 22 15.5 37t37.5 15q21 0 36.5 -15t15.5 -37t-15.5 -37t-36.5 -15
q-22 0 -37.5 15t-15.5 37zM0 148q0 20 15.5 34.5t37.5 14.5q21 0 36.5 -14.5t15.5 -34.5q0 -21 -15.5 -35.5t-36.5 -14.5q-22 0 -37.5 14.5t-15.5 35.5zM100 49q0 20 15 34.5t36 14.5t36 -14.5t15 -34.5t-15 -34.5t-36 -14.5t-36 14.5t-15 34.5zM202 -50q0 21 14.5 35.5
t35.5 14.5q20 0 34.5 -14.5t14.5 -35.5t-14.5 -35.5t-34.5 -14.5q-21 0 -35.5 14.5t-14.5 35.5zM301 -50q0 21 14.5 35.5t35.5 14.5t35.5 -14.5t14.5 -35.5t-14.5 -35.5t-35.5 -14.5t-35.5 14.5t-14.5 35.5zM401 -51q0 21 14.5 36t35.5 15t35.5 -15t14.5 -36
q0 -20 -14.5 -35t-35.5 -15t-35.5 15t-14.5 35zM501 48q0 19 15 33t36 14t36 -14t15 -33q0 -20 -15 -34t-36 -14t-36 14t-15 34zM603 147q0 21 15 36t37 15q21 0 36 -15t15 -36q0 -22 -15 -37t-36 -15q-22 0 -37 15t-15 37zM598 247q0 20 16 34.5t38 14.5t38 -14.5t16 -34.5
t-16 -34.5t-38 -14.5t-38 14.5t-16 34.5zM599 348q0 21 15.5 36t37.5 15t37.5 -15t15.5 -36q0 -22 -15.5 -37t-37.5 -15t-37.5 15t-15.5 37zM600 448q0 20 15.5 34.5t37.5 14.5q21 0 36.5 -14.5t15.5 -34.5t-15.5 -34.5t-36.5 -14.5q-22 0 -37.5 14.5t-15.5 34.5zM502 548
q0 21 14.5 36t34.5 15t34.5 -15t14.5 -36t-14.5 -36t-34.5 -15t-34.5 15t-14.5 36zM401 648q0 20 15 34.5t36 14.5q20 0 35 -14.5t15 -34.5t-15 -34.5t-35 -14.5q-21 0 -36 14.5t-15 34.5zM300 649q0 20 15 34t36 14q20 0 35 -14t15 -34q0 -21 -15 -35t-35 -14q-21 0 -36 14
t-15 35zM197 649q0 20 15 34t37 14q21 0 36 -14t15 -34q0 -21 -15 -35t-36 -14q-22 0 -37 14t-15 35zM100 552q0 22 14.5 37t35.5 15t35.5 -15t14.5 -37t-14.5 -37t-35.5 -15t-35.5 15t-14.5 37zM298 448q0 19 15 32.5t37 13.5t37 -13.5t15 -32.5q0 -20 -15 -33.5t-37 -13.5
t-37 13.5t-15 33.5zM196 350q0 21 15 36t36 15t36 -15t15 -36t-15 -36t-36 -15t-36 15t-15 36zM196 250q0 20 15.5 34.5t37.5 14.5t37.5 -14.5t15.5 -34.5t-15.5 -34.5t-37.5 -14.5t-37.5 14.5t-15.5 34.5zM302 151q0 21 14.5 35.5t35.5 14.5t35.5 -14.5t14.5 -35.5
t-14.5 -35.5t-35.5 -14.5t-35.5 14.5t-14.5 35.5zM100 449q0 20 15 34.5t36 14.5t36 -14.5t15 -34.5q0 -21 -15 -35.5t-36 -14.5t-36 14.5t-15 35.5zM100 350q0 20 15 34.5t36 14.5t36 -14.5t15 -34.5t-15 -34.5t-36 -14.5t-36 14.5t-15 34.5zM100 249q0 22 15.5 37t37.5 15
q21 0 36.5 -15t15.5 -37t-15.5 -37t-36.5 -15q-22 0 -37.5 15t-15.5 37zM100 148q0 20 15.5 34.5t37.5 14.5q21 0 36.5 -14.5t15.5 -34.5q0 -21 -15.5 -35.5t-36.5 -14.5q-22 0 -37.5 14.5t-15.5 35.5zM200 49q0 20 15 34.5t36 14.5t36 -14.5t15 -34.5t-15 -34.5t-36 -14.5
t-36 14.5t-15 34.5zM302 -50q0 21 14.5 35.5t35.5 14.5q20 0 34.5 -14.5t14.5 -35.5t-14.5 -35.5t-34.5 -14.5q-21 0 -35.5 14.5t-14.5 35.5zM401 -50q0 21 14.5 35.5t35.5 14.5t35.5 -14.5t14.5 -35.5t-14.5 -35.5t-35.5 -14.5t-35.5 14.5t-14.5 35.5zM501 -51
q0 21 14.5 36t35.5 15t35.5 -15t14.5 -36q0 -20 -14.5 -35t-35.5 -15t-35.5 15t-14.5 35zM601 48q0 19 15 33t36 14t36 -14t15 -33q0 -20 -15 -34t-36 -14t-36 14t-15 34zM703 147q0 21 15 36t37 15q21 0 36 -15t15 -36q0 -22 -15 -37t-36 -15q-22 0 -37 15t-15 37zM698 247
q0 20 16 34.5t38 14.5t38 -14.5t16 -34.5t-16 -34.5t-38 -14.5t-38 14.5t-16 34.5zM699 348q0 21 15.5 36t37.5 15t37.5 -15t15.5 -36q0 -22 -15.5 -37t-37.5 -15t-37.5 15t-15.5 37zM700 448q0 20 15.5 34.5t37.5 14.5q21 0 36.5 -14.5t15.5 -34.5t-15.5 -34.5t-36.5 -14.5
q-22 0 -37.5 14.5t-15.5 34.5zM602 548q0 21 14.5 36t34.5 15t34.5 -15t14.5 -36t-14.5 -36t-34.5 -15t-34.5 15t-14.5 36zM501 648q0 20 15 34.5t36 14.5q20 0 35 -14.5t15 -34.5t-15 -34.5t-35 -14.5q-21 0 -36 14.5t-15 34.5zM400 649q0 20 15 34t36 14q20 0 35 -14
t15 -34q0 -21 -15 -35t-35 -14q-21 0 -36 14t-15 35zM297 649q0 20 15 34t37 14q21 0 36 -14t15 -34q0 -21 -15 -35t-36 -14q-22 0 -37 14t-15 35zM200 552q0 22 14.5 37t35.5 15t35.5 -15t14.5 -37t-14.5 -37t-35.5 -15t-35.5 15t-14.5 37zM398 448q0 19 15 32.5t37 13.5
t37 -13.5t15 -32.5q0 -20 -15 -33.5t-37 -13.5t-37 13.5t-15 33.5zM296 350q0 21 15 36t36 15t36 -15t15 -36t-15 -36t-36 -15t-36 15t-15 36zM296 250q0 20 15.5 34.5t37.5 14.5t37.5 -14.5t15.5 -34.5t-15.5 -34.5t-37.5 -14.5t-37.5 14.5t-15.5 34.5zM402 151
q0 21 14.5 35.5t35.5 14.5t35.5 -14.5t14.5 -35.5t-14.5 -35.5t-35.5 -14.5t-35.5 14.5t-14.5 35.5z" />
    <glyph glyph-name="guillemotleft" unicode="&#xab;" horiz-adv-x="700" 
d="M97 448q0 19 15 33t37 14t37 -14t15 -33t-15 -33t-37 -14t-37 14t-15 33zM0 351q0 20 14 35t35 15q20 0 34 -15t14 -35q0 -21 -14 -36t-34 -15q-21 0 -35 15t-14 36zM96 249q0 21 15.5 36t37.5 15q21 0 36.5 -15t15.5 -36t-15.5 -36t-36.5 -15q-22 0 -37.5 15t-15.5 36z
M398 249q0 20 15 34t37 14q21 0 36 -14t15 -34q0 -21 -15 -35t-36 -14q-22 0 -37 14t-15 35zM300 348q0 20 14.5 35t34.5 15t34.5 -15t14.5 -35q0 -21 -14.5 -36t-34.5 -15t-34.5 15t-14.5 36zM398 447q0 21 15 36t37 15t37 -15t15 -36q0 -22 -15 -37t-37 -15t-37 15t-15 37
zM197 448q0 19 15 33t37 14t37 -14t15 -33t-15 -33t-37 -14t-37 14t-15 33zM100 351q0 20 14 35t35 15q20 0 34 -15t14 -35q0 -21 -14 -36t-34 -15q-21 0 -35 15t-14 36zM196 249q0 21 15.5 36t37.5 15q21 0 36.5 -15t15.5 -36t-15.5 -36t-36.5 -15q-22 0 -37.5 15t-15.5 36
zM498 249q0 20 15 34t37 14q21 0 36 -14t15 -34q0 -21 -15 -35t-36 -14q-22 0 -37 14t-15 35zM400 348q0 20 14.5 35t34.5 15t34.5 -15t14.5 -35q0 -21 -14.5 -36t-34.5 -15t-34.5 15t-14.5 36zM498 447q0 21 15 36t37 15t37 -15t15 -36q0 -22 -15 -37t-37 -15t-37 15
t-15 37z" />
    <glyph glyph-name="guillemotright" unicode="&#xbb;" horiz-adv-x="700" 
d="M0 247q0 19 14 33t34 14t34 -14t14 -33q0 -20 -14 -34t-34 -14t-34 14t-14 34zM101 346q0 22 15 37.5t36 15.5q20 0 35 -15.5t15 -37.5q0 -23 -15 -38.5t-35 -15.5q-21 0 -36 15.5t-15 38.5zM0 450q0 19 15 32.5t36 13.5q20 0 35 -13.5t15 -32.5q0 -20 -15 -33.5
t-35 -13.5q-21 0 -36 13.5t-15 33.5zM302 447q0 20 14.5 34.5t35.5 14.5t35.5 -14.5t14.5 -34.5t-14.5 -34.5t-35.5 -14.5t-35.5 14.5t-14.5 34.5zM402 349q0 20 14.5 34.5t34.5 14.5t34.5 -14.5t14.5 -34.5q0 -21 -14.5 -35.5t-34.5 -14.5t-34.5 14.5t-14.5 35.5zM297 248
q0 19 15.5 32.5t37.5 13.5t37.5 -13.5t15.5 -32.5q0 -20 -15.5 -33.5t-37.5 -13.5t-37.5 13.5t-15.5 33.5zM100 247q0 19 14 33t34 14t34 -14t14 -33q0 -20 -14 -34t-34 -14t-34 14t-14 34zM201 346q0 22 15 37.5t36 15.5q20 0 35 -15.5t15 -37.5q0 -23 -15 -38.5t-35 -15.5
q-21 0 -36 15.5t-15 38.5zM100 450q0 19 15 32.5t36 13.5q20 0 35 -13.5t15 -32.5q0 -20 -15 -33.5t-35 -13.5q-21 0 -36 13.5t-15 33.5zM402 447q0 20 14.5 34.5t35.5 14.5t35.5 -14.5t14.5 -34.5t-14.5 -34.5t-35.5 -14.5t-35.5 14.5t-14.5 34.5zM502 349q0 20 14.5 34.5
t34.5 14.5t34.5 -14.5t14.5 -34.5q0 -21 -14.5 -35.5t-34.5 -14.5t-34.5 14.5t-14.5 35.5zM397 248q0 19 15.5 32.5t37.5 13.5t37.5 -13.5t15.5 -32.5q0 -20 -15.5 -33.5t-37.5 -13.5t-37.5 13.5t-15.5 33.5z" />
    <glyph glyph-name="Aring" unicode="&#xc5;" horiz-adv-x="700" 
d="M0 49q0 20 15 34.5t37 14.5t37 -14.5t15 -34.5t-15 -34.5t-37 -14.5t-37 14.5t-15 34.5zM0 147q0 20 15 34.5t37 14.5t37 -14.5t15 -34.5t-15 -34.5t-37 -14.5t-37 14.5t-15 34.5zM0 247q0 20 15 35t36 15t36 -15t15 -35q0 -21 -15 -36t-36 -15t-36 15t-15 36zM0 346
q0 20 15 34.5t36 14.5t36 -14.5t15 -34.5t-15 -34.5t-36 -14.5t-36 14.5t-15 34.5zM0 445q0 21 15 35.5t37 14.5t37 -14.5t15 -35.5t-15 -35.5t-37 -14.5t-37 14.5t-15 35.5zM104 546q0 21 14 36t35 15q20 0 34 -15t14 -36t-14 -36t-34 -15q-21 0 -35 15t-14 36zM201 548
q0 20 15 34.5t36 14.5t36 -14.5t15 -34.5q0 -21 -15 -35.5t-36 -14.5t-36 14.5t-15 35.5zM303 547q0 20 15 34.5t36 14.5t36 -14.5t15 -34.5t-15 -34.5t-36 -14.5t-36 14.5t-15 34.5zM401 49q0 20 14 34t35 14q20 0 34 -14t14 -34q0 -21 -14 -35t-34 -14q-21 0 -35 14
t-14 35zM401 148q0 20 15.5 35t37.5 15q21 0 36.5 -15t15.5 -35q0 -21 -15.5 -36t-36.5 -15q-22 0 -37.5 15t-15.5 36zM398 248q0 20 16 34.5t38 14.5t38 -14.5t16 -34.5q0 -21 -16 -35.5t-38 -14.5t-38 14.5t-16 35.5zM398 347q0 20 15.5 34.5t37.5 14.5t37.5 -14.5
t15.5 -34.5q0 -21 -15.5 -35.5t-37.5 -14.5t-37.5 14.5t-15.5 35.5zM400 447q0 21 15 36t37 15t37 -15t15 -36t-15 -36t-37 -15t-37 15t-15 36zM300 347q0 20 14 34.5t35 14.5q20 0 34 -14.5t14 -34.5t-14 -34.5t-34 -14.5q-21 0 -35 14.5t-14 34.5zM200 347q0 20 14.5 34.5
t35.5 14.5t35.5 -14.5t14.5 -34.5t-14.5 -34.5t-35.5 -14.5t-35.5 14.5t-14.5 34.5zM103 347q0 20 14 34.5t35 14.5q20 0 34 -14.5t14 -34.5t-14 -34.5t-34 -14.5q-21 0 -35 14.5t-14 34.5zM197 747q0 21 15.5 35.5t38.5 14.5q22 0 37.5 -14.5t15.5 -35.5t-15.5 -35.5
t-37.5 -14.5q-23 0 -38.5 14.5t-15.5 35.5zM306 747q0 21 15.5 35.5t37.5 14.5t38 -14.5t16 -35.5t-16 -35.5t-38 -14.5t-37.5 14.5t-15.5 35.5zM97 447q0 21 15.5 35.5t38.5 14.5q22 0 37.5 -14.5t15.5 -35.5t-15.5 -35.5t-37.5 -14.5q-23 0 -38.5 14.5t-15.5 35.5z
M103 247q0 21 15.5 35.5t38.5 14.5q22 0 37.5 -14.5t15.5 -35.5q0 -17 -16 -33.5t-37 -16.5q-23 0 -38.5 14.5t-15.5 35.5zM104 147q0 21 16 35.5t38 14.5t37.5 -14.5t15.5 -35.5t-15.5 -35.5t-37.5 -14.5t-38 14.5t-16 35.5zM107 47q0 21 15.5 35.5t38.5 14.5
q22 0 37.5 -14.5t15.5 -35.5t-15.5 -35.5t-37.5 -14.5q-23 0 -38.5 14.5t-15.5 35.5zM407 547q0 21 15.5 35.5t38.5 14.5q22 0 37.5 -14.5t15.5 -35.5t-15.5 -35.5t-37.5 -14.5q-23 0 -38.5 14.5t-15.5 35.5zM503 447q0 21 16 35.5t38 14.5q21 0 34 -14.5t13 -35.5
t-13 -35.5t-34 -14.5q-22 0 -38 14.5t-16 35.5zM504 347q0 50 47 50q22 0 37.5 -14.5t15.5 -35.5q0 -50 -46 -50q-23 0 -38.5 14.5t-15.5 35.5zM503 247q0 21 16 35.5t38 14.5q21 0 34 -14.5t13 -35.5t-13 -35.5t-34 -14.5q-22 0 -38 14.5t-16 35.5zM503 147q0 21 16 35.5
t38 14.5q21 0 34 -14.5t13 -35.5t-13 -35.5t-34 -14.5q-22 0 -38 14.5t-16 35.5zM503 47q0 21 16 35.5t38 14.5q21 0 34 -14.5t13 -35.5t-13 -35.5t-34 -14.5q-22 0 -38 14.5t-16 35.5z" />
    <glyph glyph-name="AE" unicode="&#xc6;" horiz-adv-x="800" 
d="M1 49q0 20 15 34.5t36 14.5t36 -14.5t15 -34.5t-15 -34.5t-36 -14.5t-36 14.5t-15 34.5zM0 147q0 20 15 34.5t36 14.5t36 -14.5t15 -34.5t-15 -34.5t-36 -14.5t-36 14.5t-15 34.5zM0 246q0 21 14.5 35.5t35.5 14.5t35.5 -14.5t14.5 -35.5t-14.5 -35.5t-35.5 -14.5
t-35.5 14.5t-14.5 35.5zM0 347q0 21 14.5 36t35.5 15t35.5 -15t14.5 -36t-14.5 -36t-35.5 -15t-35.5 15t-14.5 36zM0 449q0 20 15 35t37 15t37 -15t15 -35q0 -21 -15 -36t-37 -15t-37 15t-15 36zM0 548q0 20 15 34t37 14t37 -14t15 -34q0 -21 -15 -35t-37 -14t-37 14t-15 35
zM98 649q0 20 15 34t37 14t37 -14t15 -34t-15 -34t-37 -14t-37 14t-15 34zM202 649q0 20 15 34t36 14q20 0 35 -14t15 -34t-15 -34t-35 -14q-21 0 -36 14t-15 34zM303 647q0 20 14.5 35t34.5 15t34.5 -15t14.5 -35q0 -21 -14.5 -36t-34.5 -15t-34.5 15t-14.5 36zM401 647
q0 20 15 35t37 15q21 0 36 -15t15 -35q0 -21 -15 -36t-36 -15q-22 0 -37 15t-15 36zM504 647q0 21 15 35.5t36 14.5q20 0 35 -14.5t15 -35.5t-15 -35.5t-35 -14.5q-21 0 -36 14.5t-15 35.5zM500 49q0 20 14.5 34t35.5 14q20 0 34.5 -14t14.5 -34q0 -21 -14.5 -35t-34.5 -14
q-21 0 -35.5 14t-14.5 35zM398 49q0 20 15 34t36 14t36 -14t15 -34q0 -21 -15 -35t-36 -14t-36 14t-15 35zM298 50q0 21 14.5 35.5t35.5 14.5t35.5 -14.5t14.5 -35.5t-14.5 -35.5t-35.5 -14.5t-35.5 14.5t-14.5 35.5zM298 147q0 19 15.5 33t37.5 14t37.5 -14t15.5 -33
t-15.5 -33t-37.5 -14t-37.5 14t-15.5 33zM298 246q0 22 15.5 37t37.5 15t37.5 -15t15.5 -37t-15.5 -37t-37.5 -15t-37.5 15t-15.5 37zM298 347q0 20 15 34.5t37 14.5t37 -14.5t15 -34.5t-15 -34.5t-37 -14.5t-37 14.5t-15 34.5zM298 446q0 20 15 34.5t37 14.5t37 -14.5
t15 -34.5q0 -21 -15 -35.5t-37 -14.5t-37 14.5t-15 35.5zM298 544q0 20 15.5 34.5t37.5 14.5t37.5 -14.5t15.5 -34.5t-15.5 -34.5t-37.5 -14.5t-37.5 14.5t-15.5 34.5zM402 348q0 19 15 33t36 14q20 0 35 -14t15 -33t-15 -33t-35 -14q-21 0 -36 14t-15 33zM200 348
q0 19 14.5 33t35.5 14q20 0 34.5 -14t14.5 -33t-14.5 -33t-34.5 -14q-21 0 -35.5 14t-14.5 33zM102 348q0 19 14.5 33t34.5 14t34.5 -14t14.5 -33q0 -20 -14.5 -34t-34.5 -14t-34.5 14t-14.5 34zM105 449q0 20 15 35t37 15q21 0 36.5 -15t15.5 -35q0 -21 -15.5 -36
t-36.5 -15q-22 0 -37 15t-15 36zM105 548q0 20 15 34t37 14q21 0 36.5 -14t15.5 -34q0 -21 -15.5 -35t-36.5 -14q-22 0 -37 14t-15 35zM101 49q0 20 15 34.5t36 14.5t36 -14.5t15 -34.5t-15 -34.5t-36 -14.5t-36 14.5t-15 34.5zM101 149q0 20 15 34.5t36 14.5t36 -14.5
t15 -34.5t-15 -34.5t-36 -14.5t-36 14.5t-15 34.5zM101 249q0 20 15 34.5t36 14.5t36 -14.5t15 -34.5t-15 -34.5t-36 -14.5t-36 14.5t-15 34.5zM601 49q0 20 15 34.5t36 14.5t36 -14.5t15 -34.5t-15 -34.5t-36 -14.5t-36 14.5t-15 34.5zM401 149q0 20 15 34.5t36 14.5
t36 -14.5t15 -34.5t-15 -34.5t-36 -14.5t-36 14.5t-15 34.5zM401 249q0 20 15 34.5t36 14.5t36 -14.5t15 -34.5t-15 -34.5t-36 -14.5t-36 14.5t-15 34.5zM501 349q0 20 15 34.5t36 14.5t36 -14.5t15 -34.5t-15 -34.5t-36 -14.5t-36 14.5t-15 34.5zM401 449q0 20 15 34.5
t36 14.5t36 -14.5t15 -34.5t-15 -34.5t-36 -14.5t-36 14.5t-15 34.5zM401 549q0 20 15 34.5t36 14.5t36 -14.5t15 -34.5t-15 -34.5t-36 -14.5t-36 14.5t-15 34.5zM601 649q0 20 15 34.5t36 14.5t36 -14.5t15 -34.5t-15 -34.5t-36 -14.5t-36 14.5t-15 34.5z" />
    <glyph glyph-name="Oslash" unicode="&#xd8;" 
d="M99 50q0 20 14.5 34.5t35.5 14.5t35.5 -14.5t14.5 -34.5q0 -21 -14.5 -35.5t-35.5 -14.5t-35.5 14.5t-14.5 35.5zM0 148q0 20 14.5 34.5t35.5 14.5q20 0 34.5 -14.5t14.5 -34.5t-14.5 -34.5t-34.5 -14.5q-21 0 -35.5 14.5t-14.5 34.5zM0 247q0 21 15 35.5t37 14.5
q21 0 36 -14.5t15 -35.5t-15 -35.5t-36 -14.5q-22 0 -37 14.5t-15 35.5zM0 347q0 20 15 34.5t37 14.5q21 0 36 -14.5t15 -34.5q0 -21 -15 -35.5t-36 -14.5q-22 0 -37 14.5t-15 35.5zM0 447q0 20 15.5 35t37.5 15t37.5 -15t15.5 -35q0 -21 -15.5 -36t-37.5 -15t-37.5 15
t-15.5 36zM0 548q0 20 15.5 35t37.5 15t37.5 -15t15.5 -35q0 -21 -15.5 -36t-37.5 -15t-37.5 15t-15.5 36zM102 647q0 21 15 35.5t36 14.5q20 0 35 -14.5t15 -35.5t-15 -35.5t-35 -14.5q-21 0 -36 14.5t-15 35.5zM303 549q0 22 14.5 37t34.5 15t34.5 -15t14.5 -37t-14.5 -37
t-34.5 -15t-34.5 15t-14.5 37zM301 448q0 20 14.5 34.5t35.5 14.5t35.5 -14.5t14.5 -34.5t-14.5 -34.5t-35.5 -14.5t-35.5 14.5t-14.5 34.5zM301 349q0 21 15 35.5t37 14.5q21 0 36 -14.5t15 -35.5t-15 -35.5t-36 -14.5q-22 0 -37 14.5t-15 35.5zM297 248q0 21 15.5 36
t38.5 15q22 0 37.5 -15t15.5 -36t-15.5 -36t-37.5 -15q-23 0 -38.5 15t-15.5 36zM297 147q0 20 16 35t38 15t38 -15t16 -35q0 -21 -16 -36t-38 -15t-38 15t-16 36zM203 448q0 18 14.5 31.5t35.5 13.5t35.5 -13.5t14.5 -31.5q0 -19 -14.5 -32.5t-35.5 -13.5t-35.5 13.5
t-14.5 32.5zM299 46q0 19 14 32.5t35 13.5q20 0 34 -13.5t14 -32.5t-14 -32.5t-34 -13.5q-21 0 -35 13.5t-14 32.5zM199 50q0 20 14.5 34.5t35.5 14.5t35.5 -14.5t14.5 -34.5q0 -21 -14.5 -35.5t-35.5 -14.5t-35.5 14.5t-14.5 35.5zM100 148q0 20 14.5 34.5t35.5 14.5
q20 0 34.5 -14.5t14.5 -34.5t-14.5 -34.5t-34.5 -14.5q-21 0 -35.5 14.5t-14.5 34.5zM100 247q0 21 15 35.5t37 14.5q21 0 36 -14.5t15 -35.5t-15 -35.5t-36 -14.5q-22 0 -37 14.5t-15 35.5zM100 347q0 20 15 34.5t37 14.5q21 0 36 -14.5t15 -34.5q0 -21 -15 -35.5
t-36 -14.5q-22 0 -37 14.5t-15 35.5zM100 447q0 20 15.5 35t37.5 15t37.5 -15t15.5 -35q0 -21 -15.5 -36t-37.5 -15t-37.5 15t-15.5 36zM100 548q0 20 15.5 35t37.5 15t37.5 -15t15.5 -35q0 -21 -15.5 -36t-37.5 -15t-37.5 15t-15.5 36zM202 647q0 21 15 35.5t36 14.5
q20 0 35 -14.5t15 -35.5t-15 -35.5t-35 -14.5q-21 0 -36 14.5t-15 35.5zM303 649q0 20 14.5 34t35.5 14t35.5 -14t14.5 -34t-14.5 -34t-35.5 -14t-35.5 14t-14.5 34zM403 549q0 22 14.5 37t34.5 15t34.5 -15t14.5 -37t-14.5 -37t-34.5 -15t-34.5 15t-14.5 37zM401 448
q0 20 14.5 34.5t35.5 14.5t35.5 -14.5t14.5 -34.5t-14.5 -34.5t-35.5 -14.5t-35.5 14.5t-14.5 34.5zM401 349q0 21 15 35.5t37 14.5q21 0 36 -14.5t15 -35.5t-15 -35.5t-36 -14.5q-22 0 -37 14.5t-15 35.5zM404 248q0 51 47 51q22 0 37.5 -15t15.5 -36t-15.5 -36t-37.5 -15
q-47 0 -47 51zM405 147q0 50 46 50q22 0 38 -15t16 -35q0 -21 -16 -36t-38 -15q-46 0 -46 51zM202 350q0 22 15 37t36 15t36 -15t15 -37t-15 -37t-36 -15t-36 15t-15 37z" />
    <glyph glyph-name="aring" unicode="&#xe5;" 
d="M200 650q0 19 15 33t37 14q21 0 36 -14t15 -33q0 -20 -15 -34t-36 -14q-22 0 -37 14t-15 34zM98 448q0 20 15 34.5t37 14.5t37 -14.5t15 -34.5t-15 -34.5t-37 -14.5t-37 14.5t-15 34.5zM202 449q0 20 14.5 34.5t35.5 14.5q20 0 34.5 -14.5t14.5 -34.5q0 -21 -14.5 -35.5
t-34.5 -14.5q-21 0 -35.5 14.5t-14.5 35.5zM299 350q0 20 15 35t36 15t36 -15t15 -35q0 -21 -15 -36t-36 -15t-36 15t-15 36zM300 250q0 20 15 34.5t36 14.5q20 0 35 -14.5t15 -34.5q0 -21 -15 -35.5t-35 -14.5q-21 0 -36 14.5t-15 35.5zM198 249q0 20 15 34.5t36 14.5
t36 -14.5t15 -34.5t-15 -34.5t-36 -14.5t-36 14.5t-15 34.5zM100 249q0 20 14.5 34.5t34.5 14.5t34.5 -14.5t14.5 -34.5t-14.5 -34.5t-34.5 -14.5t-34.5 14.5t-14.5 34.5zM0 150q0 21 14.5 35.5t35.5 14.5t35.5 -14.5t14.5 -35.5t-14.5 -35.5t-35.5 -14.5t-35.5 14.5
t-14.5 35.5zM96 51q0 20 15.5 35t37.5 15q21 0 36.5 -15t15.5 -35q0 -21 -15.5 -36t-36.5 -15q-22 0 -37.5 15t-15.5 36zM201 49q0 20 14.5 34.5t35.5 14.5t35.5 -14.5t14.5 -34.5t-14.5 -34.5t-35.5 -14.5t-35.5 14.5t-14.5 34.5zM301 147q0 20 14.5 34.5t35.5 14.5
t35.5 -14.5t14.5 -34.5t-14.5 -34.5t-35.5 -14.5t-35.5 14.5t-14.5 34.5zM300 48q0 20 15 34t36 14t36 -14t15 -34t-15 -34t-36 -14t-36 14t-15 34zM100 150q0 19 15 33t37 14q21 0 36 -14t15 -33q0 -20 -15 -34t-36 -14q-22 0 -37 14t-15 34zM300 650q0 19 15 33t37 14
q21 0 36 -14t15 -33q0 -20 -15 -34t-36 -14q-22 0 -37 14t-15 34zM300 450q0 19 15 33t37 14q21 0 36 -14t15 -33q0 -20 -15 -34t-36 -14q-22 0 -37 14t-15 34zM400 350q0 19 15 33t37 14q21 0 36 -14t15 -33q0 -20 -15 -34t-36 -14q-22 0 -37 14t-15 34zM400 250
q0 19 15 33t37 14q21 0 36 -14t15 -33q0 -20 -15 -34t-36 -14q-22 0 -37 14t-15 34zM400 150q0 19 15 33t37 14q21 0 36 -14t15 -33q0 -20 -15 -34t-36 -14q-22 0 -37 14t-15 34zM400 50q0 19 15 33t37 14q21 0 36 -14t15 -33q0 -20 -15 -34t-36 -14q-22 0 -37 14t-15 34z
" />
    <glyph glyph-name="ae" unicode="&#xe6;" horiz-adv-x="900" 
d="M0 149q0 20 15 34.5t36 14.5t36 -14.5t15 -34.5t-15 -34.5t-36 -14.5t-36 14.5t-15 34.5zM102 50q0 21 14.5 35.5t35.5 14.5q20 0 34.5 -14.5t14.5 -35.5t-14.5 -35.5t-34.5 -14.5q-21 0 -35.5 14.5t-14.5 35.5zM201 49q0 20 15 34t36 14q20 0 35 -14t15 -34
q0 -21 -15 -35t-35 -14q-21 0 -36 14t-15 35zM302 49q0 20 14.5 34t35.5 14t35.5 -14t14.5 -34q0 -21 -14.5 -35t-35.5 -14t-35.5 14t-14.5 35zM402 49q0 20 14.5 34.5t35.5 14.5t35.5 -14.5t14.5 -34.5t-14.5 -34.5t-35.5 -14.5t-35.5 14.5t-14.5 34.5zM502 49
q0 20 14.5 34.5t34.5 14.5t34.5 -14.5t14.5 -34.5t-14.5 -34.5t-34.5 -14.5t-34.5 14.5t-14.5 34.5zM299 147q0 20 14.5 34.5t34.5 14.5t34.5 -14.5t14.5 -34.5t-14.5 -34.5t-34.5 -14.5t-34.5 14.5t-14.5 34.5zM96 250q0 20 15.5 34t37.5 14q21 0 36.5 -14t15.5 -34
q0 -21 -15.5 -35t-36.5 -14q-22 0 -37.5 14t-15.5 35zM201 251q0 20 14.5 34.5t35.5 14.5q20 0 34.5 -14.5t14.5 -34.5q0 -21 -14.5 -35.5t-34.5 -14.5q-21 0 -35.5 14.5t-14.5 35.5zM300 250q0 21 15 35.5t36 14.5q20 0 35 -14.5t15 -35.5t-15 -35.5t-35 -14.5
q-21 0 -36 14.5t-15 35.5zM401 249q0 20 14.5 34t35.5 14q20 0 34.5 -14t14.5 -34q0 -21 -14.5 -35t-34.5 -14q-21 0 -35.5 14t-14.5 35zM500 249q0 20 15 34t36 14t36 -14t15 -34q0 -21 -15 -35t-36 -14t-36 14t-15 35zM602 248q0 20 15 34t36 14q20 0 35 -14t15 -34
t-15 -34t-35 -14q-21 0 -36 14t-15 34zM598 348q0 22 15.5 37t37.5 15q21 0 36.5 -15t15.5 -37t-15.5 -37t-36.5 -15q-22 0 -37.5 15t-15.5 37zM500 449q0 20 14.5 34.5t34.5 14.5t34.5 -14.5t14.5 -34.5t-14.5 -34.5t-34.5 -14.5t-34.5 14.5t-14.5 34.5zM399 449
q0 20 15 34.5t36 14.5q20 0 35 -14.5t15 -34.5q0 -21 -15 -35.5t-35 -14.5q-21 0 -36 14.5t-15 35.5zM296 349q0 21 15 35.5t37 14.5q21 0 36 -14.5t15 -35.5t-15 -35.5t-36 -14.5q-22 0 -37 14.5t-15 35.5zM201 449q0 20 14 34.5t35 14.5q20 0 34 -14.5t14 -34.5
q0 -21 -14 -35.5t-34 -14.5q-21 0 -35 14.5t-14 35.5zM99 449q0 20 15 34.5t36 14.5t36 -14.5t15 -34.5q0 -21 -15 -35.5t-36 -14.5t-36 14.5t-15 35.5zM100 149q0 20 15 34.5t36 14.5t36 -14.5t15 -34.5t-15 -34.5t-36 -14.5t-36 14.5t-15 34.5zM400 149q0 20 15 34.5
t36 14.5t36 -14.5t15 -34.5t-15 -34.5t-36 -14.5t-36 14.5t-15 34.5zM400 349q0 20 15 34.5t36 14.5t36 -14.5t15 -34.5t-15 -34.5t-36 -14.5t-36 14.5t-15 34.5zM600 449q0 20 15 34.5t36 14.5t36 -14.5t15 -34.5t-15 -34.5t-36 -14.5t-36 14.5t-15 34.5zM700 349
q0 20 15 34.5t36 14.5t36 -14.5t15 -34.5t-15 -34.5t-36 -14.5t-36 14.5t-15 34.5zM700 249q0 20 15 34.5t36 14.5t36 -14.5t15 -34.5t-15 -34.5t-36 -14.5t-36 14.5t-15 34.5zM600 49q0 20 15 34.5t36 14.5t36 -14.5t15 -34.5t-15 -34.5t-36 -14.5t-36 14.5t-15 34.5z
M300 449q0 20 15 34.5t36 14.5t36 -14.5t15 -34.5t-15 -34.5t-36 -14.5t-36 14.5t-15 34.5z" />
    <glyph glyph-name="ograve" unicode="&#xf2;" 
d="M0 250q0 20 15 34.5t37 14.5q21 0 36 -14.5t15 -34.5q0 -21 -15 -35.5t-36 -14.5q-22 0 -37 14.5t-15 35.5zM0 149q0 21 15 36t37 15q21 0 36 -15t15 -36q0 -22 -15 -37t-36 -15q-22 0 -37 15t-15 37zM98 47q0 19 15 33t37 14t37 -14t15 -33t-15 -33t-37 -14t-37 14
t-15 33zM205 47q0 20 13.5 33.5t34.5 13.5q20 0 35 -14t15 -33q0 -20 -13.5 -33.5t-34.5 -13.5t-35.5 14t-14.5 33zM301 147q0 20 15.5 34.5t37.5 14.5t37.5 -14.5t15.5 -34.5t-15.5 -34.5t-37.5 -14.5t-37.5 14.5t-15.5 34.5zM297 248q0 22 16 37t39 15t39 -15t16 -37
t-16 -37t-39 -15t-39 15t-16 37zM99 349q0 20 15 34t36 14q20 0 35 -14t15 -34q0 -21 -15 -35t-35 -14q-21 0 -36 14t-15 35zM99 649q0 20 15 34t36 14t36 -14t15 -34q0 -21 -15 -35t-36 -14t-36 14t-15 35zM201 551q0 20 15 34.5t36 14.5t36 -14.5t15 -34.5
q0 -21 -15 -35.5t-36 -14.5t-36 14.5t-15 35.5zM100 250q0 20 15 34.5t37 14.5q21 0 36 -14.5t15 -34.5q0 -21 -15 -35.5t-36 -14.5q-22 0 -37 14.5t-15 35.5zM100 149q0 21 15 36t37 15q21 0 36 -15t15 -36q0 -22 -15 -37t-36 -15q-22 0 -37 15t-15 37zM302 47q0 19 15 33
t36 14q20 0 35 -14t15 -33t-15 -33t-35 -14q-21 0 -36 14t-15 33zM401 147q0 20 15.5 34.5t37.5 14.5t37.5 -14.5t15.5 -34.5t-15.5 -34.5t-37.5 -14.5t-37.5 14.5t-15.5 34.5zM407 248q0 22 14 37.5t37 15.5q22 0 35.5 -15.5t13.5 -37.5t-15 -37t-38 -15q-47 0 -47 52z
M300 349q0 20 14 34t35 14q20 0 34 -14t14 -34q0 -21 -14 -35t-34 -14q-21 0 -35 14t-14 35zM199 349q0 20 15 34t36 14q20 0 35 -14t15 -34q0 -21 -15 -35t-35 -14q-21 0 -36 14t-15 35zM199 649q0 20 15 34t36 14t36 -14t15 -34q0 -21 -15 -35t-36 -14t-36 14t-15 35z
M301 551q0 20 15 34.5t36 14.5t36 -14.5t15 -34.5q0 -21 -15 -35.5t-36 -14.5t-36 14.5t-15 35.5z" />
    <glyph glyph-name="oacute" unicode="&#xf3;" 
d="M198 649q0 20 16 34t38 14t38 -14t16 -34t-16 -34t-38 -14t-38 14t-16 34zM99 550q0 21 14.5 36t35.5 15q20 0 34.5 -15t14.5 -36t-14.5 -36t-34.5 -15q-21 0 -35.5 15t-14.5 36zM103 350q0 20 14.5 34.5t35.5 14.5q20 0 34.5 -14.5t14.5 -34.5q0 -21 -14.5 -35.5
t-34.5 -14.5q-21 0 -35.5 14.5t-14.5 35.5zM305 250q0 21 14.5 35.5t35.5 14.5t35.5 -14.5t14.5 -35.5t-14.5 -35.5t-35.5 -14.5t-35.5 14.5t-14.5 35.5zM301 149q0 21 15 36t37 15t37 -15t15 -36t-15 -36t-37 -15t-37 15t-15 36zM200 49q0 20 15 34.5t36 14.5
q20 0 35 -14.5t15 -34.5t-15 -34.5t-35 -14.5q-21 0 -36 14.5t-15 34.5zM99 49q0 20 15 34t36 14q20 0 35 -14t15 -34q0 -21 -15 -35t-35 -14q-21 0 -36 14t-15 35zM0 148q0 21 14.5 36t35.5 15q20 0 34.5 -15t14.5 -36t-14.5 -36t-34.5 -15q-21 0 -35.5 15t-14.5 36zM0 248
q0 20 15 34.5t37 14.5q21 0 36 -14.5t15 -34.5t-15 -34.5t-36 -14.5q-22 0 -37 14.5t-15 34.5zM298 649q0 20 16 34t38 14t38 -14t16 -34t-16 -34t-38 -14t-38 14t-16 34zM199 550q0 21 14.5 36t35.5 15q20 0 34.5 -15t14.5 -36t-14.5 -36t-34.5 -15q-21 0 -35.5 15
t-14.5 36zM203 350q0 20 14.5 34.5t35.5 14.5q20 0 34.5 -14.5t14.5 -34.5q0 -21 -14.5 -35.5t-34.5 -14.5q-21 0 -35.5 14.5t-14.5 35.5zM302 349q0 20 15 34t36 14q20 0 35 -14t15 -34q0 -21 -15 -35t-35 -14q-21 0 -36 14t-15 35zM405 250q0 21 14.5 35.5t35.5 14.5
t35.5 -14.5t14.5 -35.5t-14.5 -35.5t-35.5 -14.5t-35.5 14.5t-14.5 35.5zM401 149q0 21 15 36t37 15t37 -15t15 -36t-15 -36t-37 -15t-37 15t-15 36zM300 49q0 20 15 34.5t36 14.5q20 0 35 -14.5t15 -34.5t-15 -34.5t-35 -14.5q-21 0 -36 14.5t-15 34.5zM100 148
q0 21 14.5 36t35.5 15q20 0 34.5 -15t14.5 -36t-14.5 -36t-34.5 -15q-21 0 -35.5 15t-14.5 36zM100 248q0 20 15 34.5t37 14.5q21 0 36 -14.5t15 -34.5t-15 -34.5t-36 -14.5q-22 0 -37 14.5t-15 34.5z" />
    <glyph glyph-name="oslash" unicode="&#xf8;" horiz-adv-x="700" 
d="M0 348q0 20 15 34.5t37 14.5t37 -14.5t15 -34.5t-15 -34.5t-37 -14.5t-37 14.5t-15 34.5zM0 250q0 20 15 34.5t37 14.5t37 -14.5t15 -34.5q0 -21 -15 -35.5t-37 -14.5t-37 14.5t-15 35.5zM0 149q0 21 15 36t36 15q20 0 35 -15t15 -36t-15 -36t-35 -15q-21 0 -36 15
t-15 36zM101 49q0 20 15 34.5t36 14.5q20 0 35 -14.5t15 -34.5t-15 -34.5t-35 -14.5q-21 0 -36 14.5t-15 34.5zM402 147q0 21 15 36t37 15q21 0 36 -15t15 -36t-15 -36t-36 -15q-22 0 -37 15t-15 36zM399 249q0 20 15.5 35t37.5 15t37.5 -15t15.5 -35q0 -21 -15.5 -36
t-37.5 -15t-37.5 15t-15.5 36zM300 349q0 20 14.5 34.5t35.5 14.5q20 0 34.5 -14.5t14.5 -34.5q0 -21 -14.5 -35.5t-34.5 -14.5q-21 0 -35.5 14.5t-14.5 35.5zM95 448q0 19 15.5 33t38.5 14q22 0 37.5 -14t15.5 -33q0 -20 -15.5 -34t-37.5 -14q-23 0 -38.5 14t-15.5 34z
M202 449q0 20 14.5 34.5t35.5 14.5q20 0 34.5 -14.5t14.5 -34.5t-14.5 -34.5t-34.5 -14.5q-21 0 -35.5 14.5t-14.5 34.5zM204 250q0 21 15 36.5t36 15.5q46 0 46 -51q0 -22 -14.5 -39t-35.5 -17q-20 0 -33.5 16.5t-13.5 38.5zM100 348q0 20 15 34.5t37 14.5t37 -14.5
t15 -34.5t-15 -34.5t-37 -14.5t-37 14.5t-15 34.5zM100 250q0 20 15 34.5t37 14.5t37 -14.5t15 -34.5q0 -21 -15 -35.5t-37 -14.5t-37 14.5t-15 35.5zM100 149q0 21 15 36t36 15q20 0 35 -15t15 -36t-15 -36t-35 -15q-21 0 -36 15t-15 36zM201 49q0 20 15 34.5t36 14.5
q20 0 35 -14.5t15 -34.5t-15 -34.5t-35 -14.5q-21 0 -36 14.5t-15 34.5zM302 49q0 20 14.5 34.5t35.5 14.5q20 0 34.5 -14.5t14.5 -34.5t-14.5 -34.5t-34.5 -14.5q-21 0 -35.5 14.5t-14.5 34.5zM401 49q0 20 14.5 34.5t35.5 14.5q20 0 34.5 -14.5t14.5 -34.5t-14.5 -34.5
t-34.5 -14.5q-21 0 -35.5 14.5t-14.5 34.5zM502 147q0 21 15 36t37 15q21 0 36 -15t15 -36t-15 -36t-36 -15q-22 0 -37 15t-15 36zM499 249q0 20 15.5 35t37.5 15t37.5 -15t15.5 -35q0 -21 -15.5 -36t-37.5 -15t-37.5 15t-15.5 36zM400 349q0 20 14.5 34.5t35.5 14.5
q20 0 34.5 -14.5t14.5 -34.5q0 -21 -14.5 -35.5t-34.5 -14.5q-21 0 -35.5 14.5t-14.5 35.5zM400 447q0 20 15 34.5t36 14.5t36 -14.5t15 -34.5t-15 -34.5t-36 -14.5t-36 14.5t-15 34.5zM302 449q0 20 14.5 34.5t35.5 14.5q20 0 34.5 -14.5t14.5 -34.5t-14.5 -34.5
t-34.5 -14.5q-21 0 -35.5 14.5t-14.5 34.5zM500 348q0 20 14.5 34t34.5 14t34.5 -14t14.5 -34t-14.5 -34t-34.5 -14t-34.5 14t-14.5 34zM297 251q0 21 15 36t37 15t37 -15t15 -36t-15 -36t-37 -15t-37 15t-15 36zM203 149q0 20 14 33t34 13q46 0 46 -46q0 -22 -14 -37
t-33 -15t-33 15t-14 37z" />
  </font>
</defs>
</svg>
